<?xml version="1.0" encoding="UTF-8"?>
<!DOCTYPE svg PUBLIC "-//W3C//DTD SVG 1.1//EN" "http://www.w3.org/Graphics/SVG/1.1/DTD/svg11.dtd">
<svg xmlns="http://www.w3.org/2000/svg" version="1.1" width="467px" height="624px" style="shape-rendering:geometricPrecision; text-rendering:geometricPrecision; image-rendering:optimizeQuality; fill-rule:evenodd; clip-rule:evenodd" xmlns:xlink="http://www.w3.org/1999/xlink">
<g><path style="opacity:1" fill="#fcebd0" d="M -0.5,-0.5 C 107.167,-0.5 214.833,-0.5 322.5,-0.5C 321.047,0.824868 321.381,1.6582 323.5,2C 322.833,2.33333 322.167,2.66667 321.5,3C 322.949,4.11702 324.616,4.78369 326.5,5C 322.312,5.17618 318.312,5.67618 314.5,6.5C 277.195,11.2463 251.028,30.9129 236,65.5C 231.991,75.1949 228.991,85.1949 227,95.5C 221.694,71.3811 210.528,50.5478 193.5,33C 189.783,29.6153 185.783,26.6153 181.5,24C 179.975,22.9914 178.308,22.4914 176.5,22.5C 177.41,29.2019 178.244,35.8685 179,42.5C 171.999,31.5703 162.166,24.4036 149.5,21C 120.836,12.8003 94.8357,17.8003 71.5,36C 59.9912,46.6883 52.6579,59.6883 49.5,75C 49.6667,76.8333 49.8333,78.6667 50,80.5C 50.7247,81.0585 51.5581,81.3918 52.5,81.5C 66.235,73.8704 80.9016,71.3704 96.5,74C 105.017,76.3923 113.184,79.559 121,83.5C 125.518,81.4921 130.018,79.3254 134.5,77C 135.5,76.3333 136.5,76.3333 137.5,77C 134.035,79.4626 130.869,82.2959 128,85.5C 127.333,86.8333 127.333,88.1667 128,89.5C 146.506,97.6734 162.673,109.173 176.5,124C 170.01,120.755 163.343,117.422 156.5,114C 128.385,102.221 100.052,101.555 71.5,112C 53.9331,119.905 40.5997,132.239 31.5,149C 31.7336,150.732 32.7336,151.566 34.5,151.5C 38.51,150.32 42.51,149.487 46.5,149C 27.3666,162.083 16.5332,180.249 14,203.5C 10.9646,225.686 15.6312,246.019 28,264.5C 30.367,267.932 33.0337,268.265 36,265.5C 40.7021,245.456 51.7021,229.79 69,218.5C 69.2479,213.437 69.9145,208.437 71,203.5C 71.42,207.959 73.2533,211.625 76.5,214.5C 81.162,210.834 86.162,207.667 91.5,205C 93.9845,195.222 97.4845,185.722 102,176.5C 101.256,184.172 101.423,191.839 102.5,199.5C 104.527,199.662 106.527,199.495 108.5,199C 121.896,192.818 135.896,189.152 150.5,188C 109.518,209.465 87.8508,243.299 85.5,289.5C 88.9966,288.94 91.4966,286.94 93,283.5C 93.6543,282.304 94.1543,282.304 94.5,283.5C 85.3614,317.25 94.3614,345.083 121.5,367C 127.043,370.626 133.043,372.626 139.5,373C 140.293,371.915 140.96,370.748 141.5,369.5C 138.626,357.389 139.126,345.389 143,333.5C 147.293,321.575 153.126,310.575 160.5,300.5C 158.24,295.731 155.74,291.064 153,286.5C 151.392,283.649 150.726,280.649 151,277.5C 154.912,282.083 159.412,285.917 164.5,289C 166.076,289.388 167.409,288.888 168.5,287.5C 171.791,270.583 177.624,254.583 186,239.5C 186.603,252.646 190.77,264.48 198.5,275C 199.784,275.684 200.951,275.517 202,274.5C 204.194,268.093 207.361,262.427 211.5,257.5C 212.967,265.772 213.967,274.105 214.5,282.5C 214.123,287.453 214.789,292.119 216.5,296.5C 217.724,324.158 217.724,351.824 216.5,379.5C 211.823,431.889 200.323,482.889 182,532.5C 177.52,520.367 170.353,510.2 160.5,502C 157.11,499.755 153.443,498.755 149.5,499C 148.398,501.401 148.231,503.901 149,506.5C 155.041,516.567 159.374,527.234 162,538.5C 153.807,528.271 143.307,524.271 130.5,526.5C 129.386,527.723 129.219,529.056 130,530.5C 137.586,538.082 144.419,546.248 150.5,555C 144.174,553.361 137.674,552.195 131,551.5C 128.41,551.376 126.077,552.042 124,553.5C 123.333,554.833 123.333,556.167 124,557.5C 129.73,560.562 134.897,564.396 139.5,569C 122.711,571.348 106.045,574.348 89.5,578C 85.0558,579.389 80.7225,581.056 76.5,583C 75.7476,583.671 75.4142,584.504 75.5,585.5C 66.727,586.637 59.227,590.303 53,596.5C 52.3603,598.265 52.5269,599.932 53.5,601.5C 54.1667,602.833 55.1667,603.833 56.5,604.5C 54.4727,606.088 52.1394,606.588 49.5,606C 49.0698,605.08 48.7365,604.247 48.5,603.5C 46.8367,605.801 45.0033,605.801 43,603.5C 42.3333,604.167 41.6667,604.833 41,605.5C 38.5832,604.648 36.0832,603.981 33.5,603.5C 32.3527,603.818 31.5194,604.484 31,605.5C 30.4577,600.279 29.6244,600.279 28.5,605.5C 27.2888,604.726 27.2888,603.893 28.5,603C 27.2559,602.544 26.4226,603.044 26,604.5C 25.4169,602.998 24.5836,601.665 23.5,600.5C 23.6931,601.688 23.1931,603.022 22,604.5C 19.2242,602.86 17.2242,603.527 16,606.5C 15.0411,604.342 13.5411,604.009 11.5,605.5C 10.2588,604.963 9.09213,604.296 8,603.5C 5.02731,604.59 2.19398,604.59 -0.5,603.5C -0.5,402.167 -0.5,200.833 -0.5,-0.5 Z"/></g>
<g><path style="opacity:1" fill="#fcebd0" d="M 322.5,-0.5 C 370.5,-0.5 418.5,-0.5 466.5,-0.5C 466.5,203.5 466.5,407.5 466.5,611.5C 462.655,612.735 458.822,613.735 455,614.5C 453.578,613.795 452.245,613.461 451,613.5C 450.311,614.357 449.478,615.023 448.5,615.5C 448.511,614.559 448.011,613.892 447,613.5C 444.732,615.988 443.399,615.321 443,611.5C 442.072,615.155 440.405,615.821 438,613.5C 437.667,614.167 437.333,614.833 437,615.5C 435.482,615.943 434.315,615.276 433.5,613.5C 432.252,614.04 431.085,614.707 430,615.5C 428.783,614.614 427.449,613.614 426,612.5C 425,613.167 424,613.833 423,614.5C 420.712,614.263 418.212,614.263 415.5,614.5C 415.649,615.552 415.483,616.552 415,617.5C 414.599,615.479 413.432,614.145 411.5,613.5C 410.28,614.711 409.113,614.711 408,613.5C 407.667,614.167 407.333,614.833 407,615.5C 405.122,614.947 403.622,613.947 402.5,612.5C 402.833,612.5 403.167,612.5 403.5,612.5C 415.007,606.83 415.34,600.663 404.5,594C 399.702,591.789 394.702,590.289 389.5,589.5C 389.489,587.983 388.823,586.816 387.5,586C 367.381,577.366 346.381,572.032 324.5,570C 326.746,568.961 328.913,567.794 331,566.5C 332.033,563.783 331.2,561.949 328.5,561C 321.704,560.297 315.037,560.63 308.5,562C 315.371,553.462 323.204,545.962 332,539.5C 332.863,537.251 332.363,535.418 330.5,534C 326.5,533.333 322.5,533.333 318.5,534C 310.879,536.972 303.879,540.639 297.5,545C 303.287,533.923 309.454,523.089 316,512.5C 319.5,504 317,501.5 308.5,505C 295.843,512.656 286.343,523.156 280,536.5C 280.965,512.697 281.799,488.864 282.5,465C 282.363,455.82 282.03,446.654 281.5,437.5C 279.314,371.361 268.98,306.527 250.5,243C 260.817,238.856 268.483,231.689 273.5,221.5C 273.435,221.062 273.601,220.728 274,220.5C 278.202,224.367 282.035,228.533 285.5,233C 287.112,233.72 288.612,233.554 290,232.5C 291.667,229.167 293.333,225.833 295,222.5C 294.717,228.237 294.05,233.904 293,239.5C 301.245,249.248 308.078,259.915 313.5,271.5C 314.451,272.326 315.451,272.492 316.5,272C 320.369,268.466 323.869,264.633 327,260.5C 325.822,266.02 323.822,271.353 321,276.5C 320.333,278.167 320.333,279.833 321,281.5C 333.89,295.403 341.89,311.737 345,330.5C 345.275,336.849 345.275,343.182 345,349.5C 346.133,351.211 347.633,351.711 349.5,351C 368.977,340.16 380.811,323.66 385,301.5C 388.933,280.545 385.933,260.879 376,242.5C 379.074,245.286 382.241,247.952 385.5,250.5C 386.946,249.829 387.612,248.662 387.5,247C 379.959,214.447 360.959,191.114 330.5,177C 322.949,174.261 315.282,171.927 307.5,170C 312.155,169.501 316.821,169.334 321.5,169.5C 321.34,167.801 321.506,166.134 322,164.5C 323.833,166.333 325.667,168.167 327.5,170C 345.195,169.506 362.195,172.672 378.5,179.5C 379.442,179.392 380.275,179.059 381,178.5C 381.972,171.865 382.639,165.199 383,158.5C 386.618,165.355 389.452,172.522 391.5,180C 409.808,184.066 425.308,192.899 438,206.5C 441.063,210.569 443.73,214.902 446,219.5C 447.667,220.833 449.333,220.833 451,219.5C 461.672,189.037 459.005,159.704 443,131.5C 417.896,94.3723 383.063,79.2057 338.5,86C 321.455,89.4416 305.955,96.2749 292,106.5C 291.333,105.833 291.333,105.167 292,104.5C 304.754,90.4098 319.754,79.4098 337,71.5C 336.77,67.998 335.603,64.6647 333.5,61.5C 333.833,61.1667 334.167,60.8333 334.5,60.5C 336.75,62.7976 339.416,63.631 342.5,63C 357.716,50.4674 374.883,46.9674 394,52.5C 398.151,52.5495 399.484,50.5495 398,46.5C 391.553,33.7196 382.053,23.8862 369.5,17C 352.127,8.57437 333.793,5.07437 314.5,6.5C 318.312,5.67618 322.312,5.17618 326.5,5C 324.616,4.78369 322.949,4.11702 321.5,3C 322.167,2.66667 322.833,2.33333 323.5,2C 321.381,1.6582 321.047,0.824868 322.5,-0.5 Z"/></g>
<g><path style="opacity:1" fill="#241e0a" d="M 314.5,6.5 C 333.793,5.07437 352.127,8.57437 369.5,17C 382.053,23.8862 391.553,33.7196 398,46.5C 399.484,50.5495 398.151,52.5495 394,52.5C 374.883,46.9674 357.716,50.4674 342.5,63C 339.416,63.631 336.75,62.7976 334.5,60.5C 334.167,60.8333 333.833,61.1667 333.5,61.5C 335.603,64.6647 336.77,67.998 337,71.5C 319.754,79.4098 304.754,90.4098 292,104.5C 291.333,105.167 291.333,105.833 292,106.5C 305.955,96.2749 321.455,89.4416 338.5,86C 383.063,79.2057 417.896,94.3723 443,131.5C 459.005,159.704 461.672,189.037 451,219.5C 449.333,220.833 447.667,220.833 446,219.5C 443.73,214.902 441.063,210.569 438,206.5C 425.308,192.899 409.808,184.066 391.5,180C 389.452,172.522 386.618,165.355 383,158.5C 382.639,165.199 381.972,171.865 381,178.5C 380.275,179.059 379.442,179.392 378.5,179.5C 362.195,172.672 345.195,169.506 327.5,170C 325.667,168.167 323.833,166.333 322,164.5C 321.506,166.134 321.34,167.801 321.5,169.5C 316.821,169.334 312.155,169.501 307.5,170C 315.282,171.927 322.949,174.261 330.5,177C 360.959,191.114 379.959,214.447 387.5,247C 387.612,248.662 386.946,249.829 385.5,250.5C 382.241,247.952 379.074,245.286 376,242.5C 385.933,260.879 388.933,280.545 385,301.5C 380.811,323.66 368.977,340.16 349.5,351C 347.633,351.711 346.133,351.211 345,349.5C 345.275,343.182 345.275,336.849 345,330.5C 341.89,311.737 333.89,295.403 321,281.5C 320.333,279.833 320.333,278.167 321,276.5C 323.822,271.353 325.822,266.02 327,260.5C 323.869,264.633 320.369,268.466 316.5,272C 315.451,272.492 314.451,272.326 313.5,271.5C 308.078,259.915 301.245,249.248 293,239.5C 294.05,233.904 294.717,228.237 295,222.5C 293.333,225.833 291.667,229.167 290,232.5C 288.612,233.554 287.112,233.72 285.5,233C 282.035,228.533 278.202,224.367 274,220.5C 273.601,220.728 273.435,221.062 273.5,221.5C 272.883,221.389 272.383,221.056 272,220.5C 271.333,221.833 270.667,223.167 270,224.5C 269.764,222.881 268.931,221.881 267.5,221.5C 269.749,216.414 270.749,211.081 270.5,205.5C 270.802,202.941 270.468,200.607 269.5,198.5C 269.302,194.908 268.302,191.574 266.5,188.5C 267.222,188.082 267.722,187.416 268,186.5C 268.368,187.91 269.201,188.91 270.5,189.5C 270.593,188.528 270.926,187.528 271.5,186.5C 272.473,187.984 273.807,188.484 275.5,188C 289.364,181.105 294.864,169.938 292,154.5C 291.59,153.099 291.09,151.766 290.5,150.5C 284.463,134.976 273.129,128.476 256.5,131C 251.91,132.297 247.577,134.13 243.5,136.5C 243.5,135.5 243.5,134.5 243.5,133.5C 240.244,135.925 236.91,138.258 233.5,140.5C 235.772,132.017 238.439,123.683 241.5,115.5C 247.759,98.9781 256.092,83.6448 266.5,69.5C 279.061,53.2057 294.727,40.7057 313.5,32C 327.201,25.9171 341.201,24.4171 355.5,27.5C 337.507,26.3317 320.84,30.4984 305.5,40C 290.422,49.244 277.756,61.0773 267.5,75.5C 254.183,92.4793 245.517,111.479 241.5,132.5C 248.926,127.191 257.259,124.358 266.5,124C 273.73,117.768 279.897,110.601 285,102.5C 293.094,93.9012 301.594,85.9012 310.5,78.5C 317.112,74.8579 323.779,71.1912 330.5,67.5C 327.082,59.915 321.748,54.0816 314.5,50C 315.43,49.0093 316.596,48.5093 318,48.5C 321.821,49.6082 325.655,50.6082 329.5,51.5C 332.872,53.6063 336.372,55.6063 340,57.5C 355.01,46.1307 371.843,41.7974 390.5,44.5C 385.739,36.0698 379.072,29.7365 370.5,25.5C 359.698,18.2876 347.698,14.121 334.5,13C 295.13,9.93299 265.63,25.433 246,59.5C 242.653,65.1882 240.153,71.1882 238.5,77.5C 234.623,86.3429 232.289,95.6763 231.5,105.5C 230.6,110.332 229.934,115.332 229.5,120.5C 228.671,128.657 228.171,136.99 228,145.5C 227.56,147.076 226.727,148.41 225.5,149.5C 226.262,149.911 227.262,150.077 228.5,150C 228.5,151 228.5,152 228.5,153C 229.5,153.333 230.5,153.667 231.5,154C 230.234,154.309 229.067,154.809 228,155.5C 227.667,155.167 227.333,154.833 227,154.5C 225.383,155.539 224.217,156.539 223.5,157.5C 222.167,156.5 220.833,155.5 219.5,154.5C 215.803,150.416 211.136,147.916 205.5,147C 188.024,144.823 175.524,151.656 168,167.5C 167.338,169.813 166.838,172.146 166.5,174.5C 165.527,176.948 165.194,179.615 165.5,182.5C 165.605,197.938 173.271,206.938 188.5,209.5C 193.134,210.557 197.8,210.557 202.5,209.5C 202.5,207.5 202.5,205.5 202.5,203.5C 202.5,202.833 202.5,202.167 202.5,201.5C 203.222,201.918 203.722,202.584 204,203.5C 204.308,202.692 204.808,202.025 205.5,201.5C 206.897,204.881 206.564,208.047 204.5,211C 204.759,212.261 205.426,213.261 206.5,214C 206.167,214.333 205.833,214.667 205.5,215C 206.448,215.483 207.448,215.649 208.5,215.5C 208.301,218.011 207.968,220.178 207.5,222C 210.167,223 210.167,224 207.5,225C 212.178,225.197 212.512,226.197 208.5,228C 210.544,228.498 211.878,229.665 212.5,231.5C 211.903,231.735 211.57,232.235 211.5,233C 213.076,240.468 214.409,247.968 215.5,255.5C 213.801,255.527 212.467,256.194 211.5,257.5C 207.361,262.427 204.194,268.093 202,274.5C 200.951,275.517 199.784,275.684 198.5,275C 190.77,264.48 186.603,252.646 186,239.5C 177.624,254.583 171.791,270.583 168.5,287.5C 167.409,288.888 166.076,289.388 164.5,289C 159.412,285.917 154.912,282.083 151,277.5C 150.726,280.649 151.392,283.649 153,286.5C 155.74,291.064 158.24,295.731 160.5,300.5C 153.126,310.575 147.293,321.575 143,333.5C 139.126,345.389 138.626,357.389 141.5,369.5C 140.96,370.748 140.293,371.915 139.5,373C 133.043,372.626 127.043,370.626 121.5,367C 94.3614,345.083 85.3614,317.25 94.5,283.5C 94.1543,282.304 93.6543,282.304 93,283.5C 91.4966,286.94 88.9966,288.94 85.5,289.5C 87.8508,243.299 109.518,209.465 150.5,188C 135.896,189.152 121.896,192.818 108.5,199C 106.527,199.495 104.527,199.662 102.5,199.5C 101.423,191.839 101.256,184.172 102,176.5C 97.4845,185.722 93.9845,195.222 91.5,205C 86.162,207.667 81.162,210.834 76.5,214.5C 73.2533,211.625 71.42,207.959 71,203.5C 69.9145,208.437 69.2479,213.437 69,218.5C 51.7021,229.79 40.7021,245.456 36,265.5C 33.0337,268.265 30.367,267.932 28,264.5C 15.6312,246.019 10.9646,225.686 14,203.5C 16.5332,180.249 27.3666,162.083 46.5,149C 42.51,149.487 38.51,150.32 34.5,151.5C 32.7336,151.566 31.7336,150.732 31.5,149C 40.5997,132.239 53.9331,119.905 71.5,112C 100.052,101.555 128.385,102.221 156.5,114C 163.343,117.422 170.01,120.755 176.5,124C 162.673,109.173 146.506,97.6734 128,89.5C 127.333,88.1667 127.333,86.8333 128,85.5C 130.869,82.2959 134.035,79.4626 137.5,77C 136.5,76.3333 135.5,76.3333 134.5,77C 130.018,79.3254 125.518,81.4921 121,83.5C 113.184,79.559 105.017,76.3923 96.5,74C 80.9016,71.3704 66.235,73.8704 52.5,81.5C 51.5581,81.3918 50.7247,81.0585 50,80.5C 49.8333,78.6667 49.6667,76.8333 49.5,75C 52.6579,59.6883 59.9912,46.6883 71.5,36C 94.8357,17.8003 120.836,12.8003 149.5,21C 162.166,24.4036 171.999,31.5703 179,42.5C 178.244,35.8685 177.41,29.2019 176.5,22.5C 178.308,22.4914 179.975,22.9914 181.5,24C 185.783,26.6153 189.783,29.6153 193.5,33C 210.528,50.5478 221.694,71.3811 227,95.5C 228.991,85.1949 231.991,75.1949 236,65.5C 251.028,30.9129 277.195,11.2463 314.5,6.5 Z"/></g>
<g><path style="opacity:1" fill="#355e07" d="M 172.5,254.5 C 172.167,255.167 171.833,255.833 171.5,256.5C 166.071,249.897 160.405,243.397 154.5,237C 156.631,237.398 158.631,238.398 160.5,240C 164.742,244.732 168.742,249.565 172.5,254.5 Z"/></g>
<g><path style="opacity:1" fill="#669814" d="M 149.5,217.5 C 118.008,250.796 105.674,290.13 112.5,335.5C 113.231,341.757 114.898,347.757 117.5,353.5C 117.043,354.298 116.376,354.631 115.5,354.5C 106.097,344.697 100.097,333.03 97.5,319.5C 99.1087,310.472 100.609,301.139 102,291.5C 103.221,285.834 105.221,280.501 108,275.5C 108.72,273.888 108.554,272.388 107.5,271C 110.113,269.929 110.113,269.095 107.5,268.5C 110.1,265.968 111.6,262.968 112,259.5C 106.04,263.627 100.54,268.293 95.5,273.5C 97.9714,258.252 103.305,244.085 111.5,231C 110.906,230.536 110.239,230.369 109.5,230.5C 111.885,228.116 113.885,225.45 115.5,222.5C 116.15,222.804 116.817,223.137 117.5,223.5C 124.796,218.901 132.629,215.568 141,213.5C 143.473,214.12 145.973,214.786 148.5,215.5C 148.863,216.183 149.196,216.85 149.5,217.5 Z"/></g>
<g><path style="opacity:1" fill="#3c6208" d="M 126.5,234.5 C 127.873,234.343 129.207,234.51 130.5,235C 125.055,236.888 120.055,239.555 115.5,243C 114.5,243.667 113.5,243.667 112.5,243C 116.475,238.854 121.142,236.02 126.5,234.5 Z"/></g>
<g><path style="opacity:1" fill="#98b228" d="M 109.5,230.5 C 110.239,230.369 110.906,230.536 111.5,231C 103.305,244.085 97.9714,258.252 95.5,273.5C 94.5423,274.962 93.3756,276.295 92,277.5C 93.8866,260.388 99.7199,244.722 109.5,230.5 Z"/></g>
<g><path style="opacity:1" fill="#427e13" d="M 312.5,201.5 C 315.473,203.147 318.14,205.147 320.5,207.5C 317.986,209.708 317.319,212.374 318.5,215.5C 315.826,223.877 314.326,232.543 314,241.5C 315.144,239.291 315.977,236.957 316.5,234.5C 318.086,235.413 319.586,235.413 321,234.5C 321.5,235 322,235.5 322.5,236C 320.956,236.29 319.623,236.956 318.5,238C 319.636,239.53 320.636,240.863 321.5,242C 320.366,243.016 320.699,243.683 322.5,244C 321.939,245.676 320.939,247.009 319.5,248C 322.31,248.007 324.31,249.174 325.5,251.5C 323.262,256.071 320.262,260.071 316.5,263.5C 311.578,254.655 305.912,246.322 299.5,238.5C 300.89,236.831 301.223,235.164 300.5,233.5C 302.379,233.607 302.712,233.107 301.5,232C 303.718,228.669 305.718,225.169 307.5,221.5C 306.098,220.158 306.431,219.324 308.5,219C 307.672,218.085 306.672,217.419 305.5,217C 307.402,216.801 308.902,215.967 310,214.5C 311.364,215.258 312.531,214.758 313.5,213C 311.651,211.907 309.984,210.574 308.5,209C 310.002,208.417 311.335,207.584 312.5,206.5C 311.948,204.997 311.948,203.331 312.5,201.5 Z"/></g>
<g><path style="opacity:1" fill="#669915" d="M 323.5,210.5 C 339.306,224.108 350.639,240.775 357.5,260.5C 356.811,261.774 355.977,261.774 355,260.5C 348.558,248.606 341.892,236.94 335,225.5C 331.702,221.2 328.035,217.2 324,213.5C 323.517,212.552 323.351,211.552 323.5,210.5 Z"/></g>
<g><path style="opacity:1" fill="#356c13" d="M 201.5,216.5 C 204.971,226.651 207.638,237.151 209.5,248C 206.062,254.129 202.562,260.295 199,266.5C 192.092,253.947 190.092,240.614 193,226.5C 195.669,223 198.502,219.667 201.5,216.5 Z"/></g>
<g><path style="opacity:1" fill="#448014" d="M 64.5,209.5 C 64.6602,211.199 64.4935,212.866 64,214.5C 48.4709,225.362 37.4709,239.695 31,257.5C 28.3178,254.135 26.1512,250.469 24.5,246.5C 25.1667,240.833 25.8333,235.167 26.5,229.5C 26.7208,232.097 27.2208,232.097 28,229.5C 29.9434,214.823 35.1101,201.49 43.5,189.5C 45.5932,188.955 47.5932,188.122 49.5,187C 47.2927,184.016 47.7927,183.85 51,186.5C 51.9057,184.388 53.4057,183.555 55.5,184C 53.4078,184.953 53.0745,186.286 54.5,188C 52.2053,188.984 52.5386,189.817 55.5,190.5C 56.8333,191.5 56.8333,192.5 55.5,193.5C 54.2519,194.04 53.0852,194.707 52,195.5C 51.0094,194.061 49.676,193.061 48,192.5C 47.6886,193.742 48.1886,194.742 49.5,195.5C 45.7347,195.295 45.7347,196.128 49.5,198C 48.2341,198.309 47.0674,198.809 46,199.5C 45.6667,199.167 45.3333,198.833 45,198.5C 44.3058,199.818 43.4725,200.651 42.5,201C 42.8333,201.5 43.1667,202 43.5,202.5C 45.2781,202.431 47.1114,202.097 49,201.5C 49.0885,203.113 48.2552,204.28 46.5,205C 46.4911,206.851 47.3244,208.685 49,210.5C 50.8175,208.355 52.3175,208.355 53.5,210.5C 53.4895,209.559 53.9895,208.892 55,208.5C 59.769,209.953 60.269,209.453 56.5,207C 57.4491,206.383 58.2825,206.549 59,207.5C 59.6914,205.109 60.6914,205.109 62,207.5C 62.3333,207.167 62.6667,206.833 63,206.5C 63.2321,207.737 63.7321,208.737 64.5,209.5 Z"/></g>
<g><path style="opacity:1" fill="#305405" d="M 318.5,215.5 C 318.558,221.922 317.891,228.256 316.5,234.5C 315.977,236.957 315.144,239.291 314,241.5C 314.326,232.543 315.826,223.877 318.5,215.5 Z"/></g>
<g><path style="opacity:1" fill="#376f13" d="M 176.5,244.5 C 171.186,233.859 163.519,225.525 153.5,219.5C 158.09,214.535 163.424,210.535 169.5,207.5C 176.936,212.879 185.27,216.046 194.5,217C 187.357,225.463 181.357,234.629 176.5,244.5 Z"/></g>
<g><path style="opacity:1" fill="#76420d" d="M 260.5,211.5 C 261.401,210.71 262.068,209.71 262.5,208.5C 264.567,209.593 265.234,209.093 264.5,207C 266.301,206.683 266.634,206.016 265.5,205C 266.667,203.167 267.833,201.333 269,199.5C 269.191,201.708 269.691,203.708 270.5,205.5C 270.749,211.081 269.749,216.414 267.5,221.5C 259.068,234.541 247.068,239.708 231.5,237C 211.525,229.349 204.359,215.182 210,194.5C 211.357,191.102 213.19,188.102 215.5,185.5C 217.017,185.489 218.184,184.823 219,183.5C 217.59,192.762 218.59,201.762 222,210.5C 230.319,223.484 241.152,225.984 254.5,218C 257.409,216.594 259.409,214.428 260.5,211.5 Z"/></g>
<g><path style="opacity:1" fill="#4a2907" d="M 211.5,212.5 C 216.035,220.865 222.702,227.031 231.5,231C 220.906,229.245 214.24,223.078 211.5,212.5 Z"/></g>
<g><path style="opacity:1" fill="#376f13" d="M 298.5,193.5 C 303.5,195.664 308.167,198.331 312.5,201.5C 311.948,203.331 311.948,204.997 312.5,206.5C 311.335,207.584 310.002,208.417 308.5,209C 309.984,210.574 311.651,211.907 313.5,213C 312.531,214.758 311.364,215.258 310,214.5C 308.902,215.967 307.402,216.801 305.5,217C 306.672,217.419 307.672,218.085 308.5,219C 306.431,219.324 306.098,220.158 307.5,221.5C 305.718,225.169 303.718,228.669 301.5,232C 302.712,233.107 302.379,233.607 300.5,233.5C 299.169,224.53 299.169,215.53 300.5,206.5C 298.063,205.119 296.73,203.286 296.5,201C 299.167,200.333 299.167,199.667 296.5,199C 299.167,198.333 299.167,197.667 296.5,197C 297.305,195.887 297.972,194.721 298.5,193.5 Z"/></g>
<g><path style="opacity:1" fill="#3c7713" d="M 149.5,217.5 C 149.196,216.85 148.863,216.183 148.5,215.5C 145.973,214.786 143.473,214.12 141,213.5C 132.629,215.568 124.796,218.901 117.5,223.5C 116.817,223.137 116.15,222.804 115.5,222.5C 127.623,207.373 142.956,197.04 161.5,191.5C 161.936,195.872 163.603,199.706 166.5,203C 160.373,207.294 154.706,212.127 149.5,217.5 Z"/></g>
<g><path style="opacity:1" fill="#9a5913" d="M 269.5,198.5 C 270.468,200.607 270.802,202.941 270.5,205.5C 269.691,203.708 269.191,201.708 269,199.5C 267.833,201.333 266.667,203.167 265.5,205C 266.634,206.016 266.301,206.683 264.5,207C 265.234,209.093 264.567,209.593 262.5,208.5C 264.226,199.739 262.06,192.072 256,185.5C 257.879,190.297 259.545,195.297 261,200.5C 261.279,204.17 261.112,207.837 260.5,211.5C 259.409,214.428 257.409,216.594 254.5,218C 241.152,225.984 230.319,223.484 222,210.5C 218.59,201.762 217.59,192.762 219,183.5C 218.184,184.823 217.017,185.489 215.5,185.5C 217.167,183.167 219.167,181.167 221.5,179.5C 239.32,173.484 254.487,177.817 267,192.5C 267.24,194.852 268.073,196.852 269.5,198.5 Z"/></g>
<g><path style="opacity:1" fill="#2e5f11" d="M 298.5,193.5 C 297.972,194.721 297.305,195.887 296.5,197C 299.167,197.667 299.167,198.333 296.5,199C 299.167,199.667 299.167,200.333 296.5,201C 296.73,203.286 298.063,205.119 300.5,206.5C 299.169,215.53 299.169,224.53 300.5,233.5C 301.223,235.164 300.89,236.831 299.5,238.5C 298.475,237.626 297.808,236.459 297.5,235C 298.794,225.85 298.794,216.684 297.5,207.5C 294,213.833 290.5,220.167 287,226.5C 283.658,221.992 279.825,217.992 275.5,214.5C 276.407,207.426 276.74,200.426 276.5,193.5C 280.053,191.557 283.719,189.89 287.5,188.5C 291.516,189.607 295.182,191.274 298.5,193.5 Z"/></g>
<g><path style="opacity:1" fill="#4b2a09" d="M 262.5,208.5 C 262.068,209.71 261.401,210.71 260.5,211.5C 261.112,207.837 261.279,204.17 261,200.5C 259.545,195.297 257.879,190.297 256,185.5C 262.06,192.072 264.226,199.739 262.5,208.5 Z"/></g>
<g><path style="opacity:1" fill="#689914" d="M 325.5,181.5 C 330.984,183.407 335.984,186.073 340.5,189.5C 346.011,195.515 351.844,201.515 358,207.5C 364.779,215.448 369.613,224.448 372.5,234.5C 367.439,231.977 362.106,230.81 356.5,231C 366.724,237.629 373.391,246.796 376.5,258.5C 376.788,265.563 376.288,272.563 375,279.5C 372.129,285.546 369.629,291.546 367.5,297.5C 365.548,250.231 344.214,214.898 303.5,191.5C 310.143,186.833 317.476,183.5 325.5,181.5 Z"/></g>
<g><path style="opacity:1" fill="#3f6508" d="M 338.5,205.5 C 344.189,204.741 349.022,206.741 353,211.5C 353.667,212.167 353.667,212.833 353,213.5C 348.381,210.44 343.547,207.774 338.5,205.5 Z"/></g>
<g><path style="opacity:1" fill="#5b340d" d="M 202.5,203.5 C 202.5,205.5 202.5,207.5 202.5,209.5C 197.8,210.557 193.134,210.557 188.5,209.5C 188.119,208.069 187.119,207.236 185.5,207C 186.624,206.751 187.624,206.251 188.5,205.5C 182.368,203.53 177.202,200.197 173,195.5C 170.929,193.545 170.262,191.212 171,188.5C 175.921,199.043 184.254,204.043 196,203.5C 198.136,199.79 200.302,199.79 202.5,203.5 Z"/></g>
<g><path style="opacity:1" fill="#8dae20" d="M 340.5,189.5 C 359.396,201.35 372.062,217.683 378.5,238.5C 376.435,237.143 374.435,235.81 372.5,234.5C 369.613,224.448 364.779,215.448 358,207.5C 351.844,201.515 346.011,195.515 340.5,189.5 Z"/></g>
<g><path style="opacity:1" fill="#4a8512" d="M 151.5,144.5 C 151.459,146.745 150.625,147.412 149,146.5C 145.432,151.075 141.432,155.408 137,159.5C 135.729,162.433 134.062,165.099 132,167.5C 123.366,174.3 115.199,181.633 107.5,189.5C 107.335,186.15 107.502,182.817 108,179.5C 110.117,171.644 112.45,163.978 115,156.5C 99.4141,166.984 90.4141,181.65 88,200.5C 84.7148,203.057 81.2148,204.89 77.5,206C 74.2403,197.166 72.7403,187.999 73,178.5C 68.1495,188.231 65.3161,198.564 64.5,209.5C 63.7321,208.737 63.2321,207.737 63,206.5C 62.6667,206.833 62.3333,207.167 62,207.5C 60.6914,205.109 59.6914,205.109 59,207.5C 58.2825,206.549 57.4491,206.383 56.5,207C 60.269,209.453 59.769,209.953 55,208.5C 53.9895,208.892 53.4895,209.559 53.5,210.5C 52.3175,208.355 50.8175,208.355 49,210.5C 47.3244,208.685 46.4911,206.851 46.5,205C 48.2552,204.28 49.0885,203.113 49,201.5C 47.1114,202.097 45.2781,202.431 43.5,202.5C 43.1667,202 42.8333,201.5 42.5,201C 43.4725,200.651 44.3058,199.818 45,198.5C 45.3333,198.833 45.6667,199.167 46,199.5C 47.0674,198.809 48.2341,198.309 49.5,198C 45.7347,196.128 45.7347,195.295 49.5,195.5C 48.1886,194.742 47.6886,193.742 48,192.5C 49.676,193.061 51.0094,194.061 52,195.5C 53.0852,194.707 54.2519,194.04 55.5,193.5C 56.8333,192.5 56.8333,191.5 55.5,190.5C 52.5386,189.817 52.2053,188.984 54.5,188C 53.0745,186.286 53.4078,184.953 55.5,184C 53.4057,183.555 51.9057,184.388 51,186.5C 47.7927,183.85 47.2927,184.016 49.5,187C 47.5932,188.122 45.5932,188.955 43.5,189.5C 44.7589,185.975 46.7589,182.975 49.5,180.5C 49.4346,180.938 49.6012,181.272 50,181.5C 69.3745,161.896 92.5412,149.229 119.5,143.5C 130.148,142.34 140.815,142.674 151.5,144.5 Z"/></g>
<g><path style="opacity:1" fill="#619615" d="M 28.5,183.5 C 29.6879,184.684 30.8545,184.684 32,183.5C 33.487,184.253 33.6537,185.086 32.5,186C 34.2711,188.113 35.7711,187.947 37,185.5C 37.3333,186.5 37.6667,187.5 38,188.5C 38.4217,184.795 39.5884,184.128 41.5,186.5C 33.1231,199.63 28.1231,213.963 26.5,229.5C 25.8333,235.167 25.1667,240.833 24.5,246.5C 19.5998,232.061 18.2665,217.395 20.5,202.5C 23.1475,196.243 25.8141,189.91 28.5,183.5 Z"/></g>
<g><path style="opacity:1" fill="#74410d" d="M 206.5,150.5 C 210.965,151.433 215.298,152.766 219.5,154.5C 220.833,155.5 222.167,156.5 223.5,157.5C 225.832,160.665 227.499,164.165 228.5,168C 214.039,174.632 205.372,185.799 202.5,201.5C 202.5,202.167 202.5,202.833 202.5,203.5C 200.302,199.79 198.136,199.79 196,203.5C 184.254,204.043 175.921,199.043 171,188.5C 170.262,191.212 170.929,193.545 173,195.5C 177.202,200.197 182.368,203.53 188.5,205.5C 187.624,206.251 186.624,206.751 185.5,207C 187.119,207.236 188.119,208.069 188.5,209.5C 173.271,206.938 165.605,197.938 165.5,182.5C 166.496,182.586 167.329,182.252 168,181.5C 169.984,183.303 171.984,184.303 174,184.5C 174.909,181.089 175.909,177.755 177,174.5C 177.979,178.423 177.479,182.09 175.5,185.5C 185.677,188.942 195.343,187.775 204.5,182C 208,178.5 211.5,175 215,171.5C 218.232,166.468 218.232,161.468 215,156.5C 211.51,154.437 208.677,152.437 206.5,150.5 Z"/></g>
<g><path style="opacity:1" fill="#356c13" d="M 325.5,181.5 C 317.476,183.5 310.143,186.833 303.5,191.5C 299.032,189.35 294.698,187.016 290.5,184.5C 293.146,181.375 295.146,177.875 296.5,174C 306.722,174.578 316.389,177.078 325.5,181.5 Z"/></g>
<g><path style="opacity:1" fill="#9bb42d" d="M 64.5,147.5 C 49.5275,156.473 37.5275,168.473 28.5,183.5C 25.8141,189.91 23.1475,196.243 20.5,202.5C 22.5402,183.249 31.2068,167.749 46.5,156C 52.1282,152.352 58.1282,149.519 64.5,147.5 Z"/></g>
<g><path style="opacity:1" fill="#9a5913" d="M 206.5,150.5 C 208.677,152.437 211.51,154.437 215,156.5C 218.232,161.468 218.232,166.468 215,171.5C 211.5,175 208,178.5 204.5,182C 195.343,187.775 185.677,188.942 175.5,185.5C 177.479,182.09 177.979,178.423 177,174.5C 175.909,177.755 174.909,181.089 174,184.5C 171.984,184.303 169.984,183.303 168,181.5C 167.329,182.252 166.496,182.586 165.5,182.5C 165.194,179.615 165.527,176.948 166.5,174.5C 167.09,175.766 167.59,177.099 168,178.5C 171.473,166.359 178.64,157.193 189.5,151C 195.277,149.356 200.943,149.189 206.5,150.5 Z"/></g>
<g><path style="opacity:1" fill="#ba7925" d="M 266.5,188.5 C 268.302,191.574 269.302,194.908 269.5,198.5C 268.073,196.852 267.24,194.852 267,192.5C 254.487,177.817 239.32,173.484 221.5,179.5C 232.678,170.674 244.344,170.174 256.5,178C 260.065,181.396 263.398,184.896 266.5,188.5 Z"/></g>
<g><path style="opacity:1" fill="#72400d" d="M 242.5,138.5 C 242.842,139.338 243.508,139.672 244.5,139.5C 240.651,161.817 249.984,170.983 272.5,167C 275.171,165.75 277.337,163.917 279,161.5C 278.923,162.738 279.089,163.738 279.5,164.5C 284.847,160.472 287.514,155.139 287.5,148.5C 288.5,149.167 289.5,149.833 290.5,150.5C 291.09,151.766 291.59,153.099 292,154.5C 294.864,169.938 289.364,181.105 275.5,188C 273.807,188.484 272.473,187.984 271.5,186.5C 266.944,177.868 259.944,172.035 250.5,169C 244.962,168.105 239.462,167.272 234,166.5C 231.337,155.333 234.17,146 242.5,138.5 Z"/></g>
<g><path style="opacity:1" fill="#c07f28" d="M 219.5,154.5 C 215.298,152.766 210.965,151.433 206.5,150.5C 200.943,149.189 195.277,149.356 189.5,151C 178.64,157.193 171.473,166.359 168,178.5C 167.59,177.099 167.09,175.766 166.5,174.5C 166.838,172.146 167.338,169.813 168,167.5C 175.524,151.656 188.024,144.823 205.5,147C 211.136,147.916 215.803,150.416 219.5,154.5 Z"/></g>
<g><path style="opacity:1" fill="#3c7915" d="M 410.5,141.5 C 420.788,149.121 430.121,157.787 438.5,167.5C 445.293,176.758 449.626,187.092 451.5,198.5C 450.972,202.998 449.805,207.331 448,211.5C 435.465,192.476 417.965,180.81 395.5,176.5C 394.096,167.364 390.763,159.03 385.5,151.5C 388.244,150.49 390.577,150.824 392.5,152.5C 397.406,150.142 397.74,150.976 393.5,155C 394.833,155.667 396.167,155.667 397.5,155C 396.112,154.111 396.278,153.611 398,153.5C 399.766,154.502 401.433,154.168 403,152.5C 403.777,154.701 404.944,154.701 406.5,152.5C 405.45,150.898 406.117,150.065 408.5,150C 408.167,149 407.833,148 407.5,147C 409.797,145.84 409.464,144.84 406.5,144C 407.858,143.066 409.192,142.232 410.5,141.5 Z"/></g>
<g><path style="opacity:1" fill="#5b9415" d="M 446.5,154.5 C 448.755,159.845 450.255,165.512 451,171.5C 451.5,180.494 451.666,189.494 451.5,198.5C 449.626,187.092 445.293,176.758 438.5,167.5C 437.277,164.726 435.777,162.059 434,159.5C 428.963,154.631 424.13,149.631 419.5,144.5C 419.721,141.903 420.221,141.903 421,144.5C 422.667,143.833 424.333,143.167 426,142.5C 427.666,143.34 427.833,142.84 426.5,141C 428.301,140.683 428.634,140.016 427.5,139C 428.5,137 429.5,137 430.5,139C 429.277,141.052 428.277,143.219 427.5,145.5C 426.313,144.106 425.646,144.273 425.5,146C 426.67,150.255 428.503,150.422 431,146.5C 432.204,147.471 432.704,148.471 432.5,149.5C 433.251,148.624 433.751,147.624 434,146.5C 435.364,147.258 436.531,146.758 437.5,145C 436.346,144.086 436.513,143.253 438,142.5C 438.678,145.303 439.844,147.803 441.5,150C 439.638,154.473 441.305,155.973 446.5,154.5 Z"/></g>
<g><path style="opacity:1" fill="#9a5913" d="M 287.5,148.5 C 287.514,155.139 284.847,160.472 279.5,164.5C 279.089,163.738 278.923,162.738 279,161.5C 277.337,163.917 275.171,165.75 272.5,167C 249.984,170.983 240.651,161.817 244.5,139.5C 246.493,137.837 248.826,136.67 251.5,136C 266.246,132.838 278.246,137.005 287.5,148.5 Z"/></g>
<g><path style="opacity:1" fill="#377013" d="M 151.5,144.5 C 158.854,145.925 165.854,148.425 172.5,152C 164.729,159.464 160.729,168.631 160.5,179.5C 142.009,180.497 124.509,185.164 108,193.5C 107.51,192.207 107.343,190.873 107.5,189.5C 115.199,181.633 123.366,174.3 132,167.5C 134.062,165.099 135.729,162.433 137,159.5C 141.432,155.408 145.432,151.075 149,146.5C 150.625,147.412 151.459,146.745 151.5,144.5 Z"/></g>
<g><path style="opacity:1" fill="#3e2106" d="M 193.5,152.5 C 194.552,152.351 195.552,152.517 196.5,153C 192.422,154.902 188.422,156.569 184.5,158C 187.263,155.626 190.263,153.792 193.5,152.5 Z"/></g>
<g><path style="opacity:1" fill="#8aac1c" d="M 119.5,143.5 C 92.5412,149.229 69.3745,161.896 50,181.5C 49.6012,181.272 49.4346,180.938 49.5,180.5C 67.3961,158.215 90.7294,145.882 119.5,143.5 Z"/></g>
<g><path style="opacity:1" fill="#387113" d="M 302.5,131.5 C 303.598,132.397 303.598,133.23 302.5,134C 304.598,133.016 306.598,133.349 308.5,135C 309.589,136.947 309.589,138.781 308.5,140.5C 306.887,138.877 305.22,137.71 303.5,137C 305.421,141.111 307.921,142.944 311,142.5C 311.318,144.061 312.151,145.228 313.5,146C 312.833,146.333 312.167,146.667 311.5,147C 312.065,148.674 312.232,150.507 312,152.5C 312.995,151.934 313.828,151.267 314.5,150.5C 315.972,154.919 316.638,159.586 316.5,164.5C 310.512,163.33 304.512,163.33 298.5,164.5C 299.156,154.638 296.49,145.805 290.5,138C 294.08,135.044 298.08,132.877 302.5,131.5 Z"/></g>
<g><path style="opacity:1" fill="#3a7515" d="M 149.5,118.5 C 163.886,124.056 176.886,131.89 188.5,142C 184.13,144.185 179.797,146.351 175.5,148.5C 167.989,145.049 160.322,142.382 152.5,140.5C 153.787,139.129 154.453,137.295 154.5,135C 154.129,129.057 152.462,123.557 149.5,118.5 Z"/></g>
<g><path style="opacity:1" fill="#78a215" d="M 144.5,116.5 C 146.167,117.167 147.833,117.833 149.5,118.5C 152.462,123.557 154.129,129.057 154.5,135C 154.453,137.295 153.787,139.129 152.5,140.5C 110.82,133.335 75.987,145.335 48,176.5C 45.5738,179.691 43.4072,183.025 41.5,186.5C 39.5884,184.128 38.4217,184.795 38,188.5C 37.6667,187.5 37.3333,186.5 37,185.5C 35.7711,187.947 34.2711,188.113 32.5,186C 33.6537,185.086 33.487,184.253 32,183.5C 30.8545,184.684 29.6879,184.684 28.5,183.5C 37.5275,168.473 49.5275,156.473 64.5,147.5C 67.9032,146.075 71.5698,145.242 75.5,145C 76.3452,143.442 75.6785,142.442 73.5,142C 63.1738,139.781 53.0071,140.281 43,143.5C 42.7207,141.588 43.5541,140.254 45.5,139.5C 56.8429,131.69 68.8429,124.856 81.5,119C 99.3312,113.898 117.331,113.232 135.5,117C 133.405,117.556 133.238,118.056 135,118.5C 138.324,117.95 141.491,117.283 144.5,116.5 Z"/></g>
<g><path style="opacity:1" fill="#498412" d="M 323.5,125.5 C 352.164,123.555 379.831,128.222 406.5,139.5C 408.062,139.733 409.395,140.4 410.5,141.5C 409.192,142.232 407.858,143.066 406.5,144C 409.464,144.84 409.797,145.84 407.5,147C 407.833,148 408.167,149 408.5,150C 406.117,150.065 405.45,150.898 406.5,152.5C 404.944,154.701 403.777,154.701 403,152.5C 401.433,154.168 399.766,154.502 398,153.5C 396.278,153.611 396.112,154.111 397.5,155C 396.167,155.667 394.833,155.667 393.5,155C 397.74,150.976 397.406,150.142 392.5,152.5C 390.577,150.824 388.244,150.49 385.5,151.5C 382.247,146.741 378.413,142.408 374,138.5C 375.412,149.418 376.245,160.418 376.5,171.5C 360.809,167.163 344.809,164.663 328.5,164C 324.765,157.596 320.265,151.763 315,146.5C 314.51,147.793 314.343,149.127 314.5,150.5C 313.828,151.267 312.995,151.934 312,152.5C 312.232,150.507 312.065,148.674 311.5,147C 312.167,146.667 312.833,146.333 313.5,146C 312.151,145.228 311.318,144.061 311,142.5C 307.921,142.944 305.421,141.111 303.5,137C 305.22,137.71 306.887,138.877 308.5,140.5C 309.589,138.781 309.589,136.947 308.5,135C 306.598,133.349 304.598,133.016 302.5,134C 303.598,133.23 303.598,132.397 302.5,131.5C 309.471,129.341 316.471,127.341 323.5,125.5 Z"/></g>
<g><path style="opacity:1" fill="#335807" d="M 334.5,137.5 C 338.183,141.025 341.35,145.025 344,149.5C 346.24,152.953 347.573,156.619 348,160.5C 343.477,152.778 338.977,145.112 334.5,137.5 Z"/></g>
<g><path style="opacity:1" fill="#be7d27" d="M 290.5,150.5 C 289.5,149.833 288.5,149.167 287.5,148.5C 278.246,137.005 266.246,132.838 251.5,136C 248.826,136.67 246.493,137.837 244.5,139.5C 243.508,139.672 242.842,139.338 242.5,138.5C 242.833,137.833 243.167,137.167 243.5,136.5C 247.577,134.13 251.91,132.297 256.5,131C 273.129,128.476 284.463,134.976 290.5,150.5 Z"/></g>
<g><path style="opacity:1" fill="#6d9d15" d="M 410.5,125.5 C 415.021,128.353 419.521,131.353 424,134.5C 423.888,132.203 422.722,130.536 420.5,129.5C 420.856,128.13 421.69,127.13 423,126.5C 424.69,127.149 426.523,127.149 428.5,126.5C 428.117,129.462 429.117,130.462 431.5,129.5C 432.814,130.313 433.981,131.313 435,132.5C 435.399,132.272 435.565,131.938 435.5,131.5C 440.483,138.469 444.15,146.136 446.5,154.5C 441.305,155.973 439.638,154.473 441.5,150C 439.844,147.803 438.678,145.303 438,142.5C 436.513,143.253 436.346,144.086 437.5,145C 436.531,146.758 435.364,147.258 434,146.5C 433.751,147.624 433.251,148.624 432.5,149.5C 432.704,148.471 432.204,147.471 431,146.5C 428.503,150.422 426.67,150.255 425.5,146C 425.646,144.273 426.313,144.106 427.5,145.5C 428.277,143.219 429.277,141.052 430.5,139C 429.5,137 428.5,137 427.5,139C 428.634,140.016 428.301,140.683 426.5,141C 427.833,142.84 427.666,143.34 426,142.5C 424.333,143.167 422.667,143.833 421,144.5C 420.221,141.903 419.721,141.903 419.5,144.5C 413.087,139.412 406.42,134.745 399.5,130.5C 400.232,129.192 401.066,127.858 402,126.5C 404.184,125.892 406.184,126.559 408,128.5C 408.236,126.881 409.069,125.881 410.5,125.5 Z"/></g>
<g><path style="opacity:1" fill="#8bad1c" d="M 406.5,139.5 C 379.831,128.222 352.164,123.555 323.5,125.5C 353.095,119.71 380.761,124.377 406.5,139.5 Z"/></g>
<g><path style="opacity:1" fill="#436708" d="M 104.5,126.5 C 111.084,126.618 116.751,129.285 121.5,134.5C 121.167,134.833 120.833,135.167 120.5,135.5C 115.76,131.463 110.426,128.463 104.5,126.5 Z"/></g>
<g><path style="opacity:1" fill="#416709" d="M 410.5,125.5 C 414.052,126.276 417.386,127.609 420.5,129.5C 422.722,130.536 423.888,132.203 424,134.5C 419.521,131.353 415.021,128.353 410.5,125.5 Z"/></g>
<g><path style="opacity:1" fill="#387114" d="M 298.5,109.5 C 296.069,116.058 295.403,122.725 296.5,129.5C 293.569,131.248 290.736,133.248 288,135.5C 284.79,131.813 280.956,128.979 276.5,127C 282.953,119.955 290.286,114.122 298.5,109.5 Z"/></g>
<g><path style="opacity:1" fill="#3d7a15" d="M 231.5,105.5 C 231.351,106.552 231.517,107.552 232,108.5C 234.781,111.462 237.948,113.796 241.5,115.5C 238.439,123.683 235.772,132.017 233.5,140.5C 232.812,143.057 231.646,145.391 230,147.5C 229.5,138.506 229.334,129.506 229.5,120.5C 229.934,115.332 230.6,110.332 231.5,105.5 Z"/></g>
<g><path style="opacity:1" fill="#a9bb37" d="M 144.5,116.5 C 141.491,117.283 138.324,117.95 135,118.5C 133.238,118.056 133.405,117.556 135.5,117C 117.331,113.232 99.3312,113.898 81.5,119C 68.8429,124.856 56.8429,131.69 45.5,139.5C 66.0295,117.597 91.3629,108.43 121.5,112C 129.226,113.287 136.893,114.787 144.5,116.5 Z"/></g>
<g><path style="opacity:1" fill="#77a115" d="M 334.5,98.5 C 328.247,101.906 324.081,106.906 322,113.5C 325.044,108.955 328.877,105.289 333.5,102.5C 335.497,104.407 337.664,104.074 340,101.5C 341.507,103.008 343.173,104.341 345,105.5C 345.718,104.549 346.551,104.383 347.5,105C 348.376,106.586 349.376,108.086 350.5,109.5C 351.167,108.5 351.833,107.5 352.5,106.5C 352.833,106.667 353.167,106.833 353.5,107C 353.5,109 353.5,111 353.5,113C 354.672,113.419 355.672,114.085 356.5,115C 354.565,116.238 352.565,116.738 350.5,116.5C 352.655,117.001 354.322,118.001 355.5,119.5C 335.071,118.453 315.404,121.786 296.5,129.5C 295.403,122.725 296.069,116.058 298.5,109.5C 302.235,106.787 306.235,104.287 310.5,102C 313.309,100.259 316.309,99.0922 319.5,98.5C 324.626,98.6038 329.626,98.6038 334.5,98.5 Z"/></g>
<g><path style="opacity:1" fill="#80a716" d="M 428.5,122.5 C 431.185,125.19 433.518,128.19 435.5,131.5C 435.565,131.938 435.399,132.272 435,132.5C 433.981,131.313 432.814,130.313 431.5,129.5C 429.117,130.462 428.117,129.462 428.5,126.5C 426.523,127.149 424.69,127.149 423,126.5C 421.69,127.13 420.856,128.13 420.5,129.5C 417.386,127.609 414.052,126.276 410.5,125.5C 409.069,125.881 408.236,126.881 408,128.5C 406.184,126.559 404.184,125.892 402,126.5C 401.066,127.858 400.232,129.192 399.5,130.5C 385.471,124.326 370.805,120.659 355.5,119.5C 354.322,118.001 352.655,117.001 350.5,116.5C 352.565,116.738 354.565,116.238 356.5,115C 355.672,114.085 354.672,113.419 353.5,113C 353.5,111 353.5,109 353.5,107C 353.167,106.833 352.833,106.667 352.5,106.5C 351.833,107.5 351.167,108.5 350.5,109.5C 349.376,108.086 348.376,106.586 347.5,105C 346.551,104.383 345.718,104.549 345,105.5C 343.173,104.341 341.507,103.008 340,101.5C 337.664,104.074 335.497,104.407 333.5,102.5C 335.273,101.108 337.273,99.941 339.5,99C 340.738,98.31 340.738,97.81 339.5,97.5C 341.026,95.87 343.026,95.0367 345.5,95C 375.663,92.9204 401.996,101.92 424.5,122C 425.793,122.49 427.127,122.657 428.5,122.5 Z"/></g>
<g><path style="opacity:1" fill="#4c7009" d="M 376.5,106.5 C 380.182,106.335 383.848,106.501 387.5,107C 382.232,108.587 376.899,109.92 371.5,111C 369.919,111.707 368.419,112.54 367,113.5C 366.383,112.551 366.549,111.718 367.5,111C 370.437,109.199 373.437,107.699 376.5,106.5 Z"/></g>
<g><path style="opacity:1" fill="#456909" d="M 339.5,97.5 C 340.738,97.81 340.738,98.31 339.5,99C 337.273,99.941 335.273,101.108 333.5,102.5C 328.877,105.289 325.044,108.955 322,113.5C 324.081,106.906 328.247,101.906 334.5,98.5C 336.117,97.962 337.784,97.6287 339.5,97.5 Z"/></g>
<g><path style="opacity:1" fill="#a4b831" d="M 428.5,122.5 C 427.127,122.657 425.793,122.49 424.5,122C 401.996,101.92 375.663,92.9204 345.5,95C 343.026,95.0367 341.026,95.87 339.5,97.5C 337.784,97.6287 336.117,97.962 334.5,98.5C 329.626,98.6038 324.626,98.6038 319.5,98.5C 354.986,84.3016 387.986,88.8016 418.5,112C 422.037,115.369 425.371,118.869 428.5,122.5 Z"/></g>
<g><path style="opacity:1" fill="#3a7714" d="M 193.5,93.5 C 202.884,104.255 209.718,116.589 214,130.5C 215.806,135.378 216.473,140.378 216,145.5C 209.899,142.31 203.399,140.31 196.5,139.5C 186.202,123.87 173.535,110.536 158.5,99.5C 160.218,98.776 162.052,98.1094 164,97.5C 165.487,98.7414 166.32,98.2414 166.5,96C 166.245,94.6739 165.578,93.6739 164.5,93C 171.341,92.325 177.508,94.1583 183,98.5C 183.667,97.1667 184.333,95.8333 185,94.5C 186.087,96.9316 186.587,96.5983 186.5,93.5C 187.552,93.3505 188.552,93.5172 189.5,94C 187.789,95.1332 187.289,96.6332 188,98.5C 190.206,94.4693 190.706,94.6359 189.5,99C 190.931,99.4652 192.097,100.299 193,101.5C 193.374,100.584 193.874,99.7504 194.5,99C 192.428,97.7268 191.095,95.8935 190.5,93.5C 191.425,92.4376 192.425,92.4376 193.5,93.5 Z"/></g>
<g><path style="opacity:1" fill="#468314" d="M 293.5,54.5 C 293.885,56.4841 295.218,58.3175 297.5,60C 293.622,62.2305 293.622,64.3971 297.5,66.5C 298.891,65.3554 300.224,65.3554 301.5,66.5C 303.02,67.8499 303.687,69.1832 303.5,70.5C 304.716,69.9984 305.883,69.6651 307,69.5C 307.75,70.1258 308.584,70.6258 309.5,71C 308.643,71.6891 307.977,72.5224 307.5,73.5C 308.133,75.1465 309.133,76.8132 310.5,78.5C 301.594,85.9012 293.094,93.9012 285,102.5C 279.897,110.601 273.73,117.768 266.5,124C 257.259,124.358 248.926,127.191 241.5,132.5C 245.517,111.479 254.183,92.4793 267.5,75.5C 276.148,68.5234 284.814,61.5234 293.5,54.5 Z"/></g>
<g><path style="opacity:1" fill="#407d15" d="M 209.5,65.5 C 223.874,92.3819 228.707,121.049 224,151.5C 223,150.5 222,149.5 221,148.5C 218.013,126.005 209.513,106.005 195.5,88.5C 202.921,82.6845 207.588,75.0178 209.5,65.5 Z"/></g>
<g><path style="opacity:1" fill="#729f15" d="M 266.5,69.5 C 256.092,83.6448 247.759,98.9781 241.5,115.5C 237.948,113.796 234.781,111.462 232,108.5C 231.517,107.552 231.351,106.552 231.5,105.5C 232.289,95.6763 234.623,86.3429 238.5,77.5C 241.5,73.5 244.5,69.5 247.5,65.5C 248.239,65.369 248.906,65.5357 249.5,66C 245.578,68.3233 245.912,68.8233 250.5,67.5C 251.602,64.2836 253.436,61.617 256,59.5C 257.558,60.3452 258.558,59.6785 259,57.5C 260.661,60.6583 263.161,62.9916 266.5,64.5C 265.948,66.0026 265.948,67.6693 266.5,69.5 Z"/></g>
<g><path style="opacity:1" fill="#5d9313" d="M 363.5,32.5 C 362.153,33.1712 360.986,33.1712 360,32.5C 358,33.1667 356.667,34.5 356,36.5C 353.218,35.1665 350.718,35.6665 348.5,38C 350.135,38.5396 351.468,38.0396 352.5,36.5C 352.109,37.7185 352.776,38.5518 354.5,39C 350.333,39.1692 347.166,41.0025 345,44.5C 344.586,44.0426 344.086,43.7093 343.5,43.5C 342.138,45.012 341.804,46.512 342.5,48C 341.833,48.3333 341.167,48.6667 340.5,49C 341.451,49.7175 341.617,50.5509 341,51.5C 339.667,50.8333 338.667,49.8333 338,48.5C 335.748,50.9266 332.914,51.9266 329.5,51.5C 325.655,50.6082 321.821,49.6082 318,48.5C 316.596,48.5093 315.43,49.0093 314.5,50C 321.748,54.0816 327.082,59.915 330.5,67.5C 323.779,71.1912 317.112,74.8579 310.5,78.5C 309.133,76.8132 308.133,75.1465 307.5,73.5C 307.977,72.5224 308.643,71.6891 309.5,71C 308.584,70.6258 307.75,70.1258 307,69.5C 305.883,69.6651 304.716,69.9984 303.5,70.5C 303.687,69.1832 303.02,67.8499 301.5,66.5C 300.224,65.3554 298.891,65.3554 297.5,66.5C 293.622,64.3971 293.622,62.2305 297.5,60C 295.218,58.3175 293.885,56.4841 293.5,54.5C 314.006,38.1087 337.339,30.7754 363.5,32.5 Z"/></g>
<g><path style="opacity:1" fill="#508b14" d="M 370.5,25.5 C 379.072,29.7365 385.739,36.0698 390.5,44.5C 371.843,41.7974 355.01,46.1307 340,57.5C 336.372,55.6063 332.872,53.6063 329.5,51.5C 332.914,51.9266 335.748,50.9266 338,48.5C 338.667,49.8333 339.667,50.8333 341,51.5C 341.617,50.5509 341.451,49.7175 340.5,49C 341.167,48.6667 341.833,48.3333 342.5,48C 341.804,46.512 342.138,45.012 343.5,43.5C 344.086,43.7093 344.586,44.0426 345,44.5C 347.166,41.0025 350.333,39.1692 354.5,39C 352.776,38.5518 352.109,37.7185 352.5,36.5C 351.468,38.0396 350.135,38.5396 348.5,38C 350.718,35.6665 353.218,35.1665 356,36.5C 356.667,34.5 358,33.1667 360,32.5C 360.986,33.1712 362.153,33.1712 363.5,32.5C 366.187,32.6641 368.854,32.4974 371.5,32C 369.075,30.7874 366.741,29.6207 364.5,28.5C 367.089,28.539 369.089,27.539 370.5,25.5 Z"/></g>
<g><path style="opacity:1" fill="#468214" d="M 193.5,93.5 C 192.425,92.4376 191.425,92.4376 190.5,93.5C 191.095,95.8935 192.428,97.7268 194.5,99C 193.874,99.7504 193.374,100.584 193,101.5C 192.097,100.299 190.931,99.4652 189.5,99C 190.706,94.6359 190.206,94.4693 188,98.5C 187.289,96.6332 187.789,95.1332 189.5,94C 188.552,93.5172 187.552,93.3505 186.5,93.5C 186.587,96.5983 186.087,96.9316 185,94.5C 184.333,95.8333 183.667,97.1667 183,98.5C 177.508,94.1583 171.341,92.325 164.5,93C 165.578,93.6739 166.245,94.6739 166.5,96C 166.32,98.2414 165.487,98.7414 164,97.5C 162.052,98.1094 160.218,98.776 158.5,99.5C 150.881,94.3944 142.881,89.8944 134.5,86C 141.193,78.4849 149.526,73.8183 159.5,72C 145.821,67.4176 132.988,69.251 121,77.5C 102.688,66.4213 83.1885,63.7547 62.5,69.5C 64.466,64.0276 67.7993,59.5276 72.5,56C 78.3087,51.7623 84.6421,48.5956 91.5,46.5C 127.969,41.1547 158.469,52.1547 183,79.5C 187.126,83.7795 190.626,88.4462 193.5,93.5 Z"/></g>
<g><path style="opacity:1" fill="#9db52b" d="M 355.5,27.5 C 358.465,27.6474 361.465,27.9807 364.5,28.5C 366.741,29.6207 369.075,30.7874 371.5,32C 368.854,32.4974 366.187,32.6641 363.5,32.5C 337.339,30.7754 314.006,38.1087 293.5,54.5C 284.814,61.5234 276.148,68.5234 267.5,75.5C 277.756,61.0773 290.422,49.244 305.5,40C 320.84,30.4984 337.507,26.3317 355.5,27.5 Z"/></g>
<g><path style="opacity:1" fill="#acbc39" d="M 370.5,25.5 C 317.911,4.21367 276.911,17.547 247.5,65.5C 244.5,69.5 241.5,73.5 238.5,77.5C 240.153,71.1882 242.653,65.1882 246,59.5C 265.63,25.433 295.13,9.93299 334.5,13C 347.698,14.121 359.698,18.2876 370.5,25.5 Z"/></g>
<g><path style="opacity:1" fill="#78a216" d="M 178.5,50.5 C 179.901,53.6339 181.568,56.6339 183.5,59.5C 186.113,50.6103 185.78,41.7769 182.5,33C 194.637,41.0363 203.637,51.8697 209.5,65.5C 207.588,75.0178 202.921,82.6845 195.5,88.5C 177.794,63.4747 153.794,48.308 123.5,43C 112.412,41.637 101.745,42.8037 91.5,46.5C 84.6421,48.5956 78.3087,51.7623 72.5,56C 67.7993,59.5276 64.466,64.0276 62.5,69.5C 60.604,70.4805 58.604,71.4805 56.5,72.5C 57.6719,63.8165 61.3386,56.1498 67.5,49.5C 75.4419,43.8542 83.7752,38.6875 92.5,34C 111.254,27.4136 130.254,26.7469 149.5,32C 159.464,35.808 167.797,41.808 174.5,50C 175.793,50.49 177.127,50.6567 178.5,50.5 Z"/></g>
<g><path style="opacity:1" fill="#325806" d="M 122.5,60.5 C 124.527,60.3379 126.527,60.5045 128.5,61C 128.167,61.3333 127.833,61.6667 127.5,62C 121.425,63.3669 115.425,64.7003 109.5,66C 113.707,63.6598 118.041,61.8264 122.5,60.5 Z"/></g>
<g><path style="opacity:1" fill="#acbc39" d="M 178.5,50.5 C 177.127,50.6567 175.793,50.49 174.5,50C 167.797,41.808 159.464,35.808 149.5,32C 130.254,26.7469 111.254,27.4136 92.5,34C 83.7752,38.6875 75.4419,43.8542 67.5,49.5C 81.7042,32.5688 100.038,23.9022 122.5,23.5C 139.573,23.0965 154.906,27.9298 168.5,38C 172.683,41.5587 176.016,45.7253 178.5,50.5 Z"/></g>
<g><path style="opacity:1" fill="#7fa516" d="M 370.5,25.5 C 369.089,27.539 367.089,28.539 364.5,28.5C 361.465,27.9807 358.465,27.6474 355.5,27.5C 341.201,24.4171 327.201,25.9171 313.5,32C 294.727,40.7057 279.061,53.2057 266.5,69.5C 265.948,67.6693 265.948,66.0026 266.5,64.5C 263.161,62.9916 260.661,60.6583 259,57.5C 258.558,59.6785 257.558,60.3452 256,59.5C 253.436,61.617 251.602,64.2836 250.5,67.5C 245.912,68.8233 245.578,68.3233 249.5,66C 248.906,65.5357 248.239,65.369 247.5,65.5C 276.911,17.547 317.911,4.21367 370.5,25.5 Z"/></g>
<g><path style="opacity:1" fill="#76430d" d="M 212.5,231.5 C 221.097,240.701 231.764,244.367 244.5,242.5C 245.183,246.565 246.183,250.565 247.5,254.5C 247.182,255.647 246.516,256.481 245.5,257C 236.387,260.075 227.053,261.408 217.5,261C 216.891,259.052 216.224,257.218 215.5,255.5C 214.409,247.968 213.076,240.468 211.5,233C 211.57,232.235 211.903,231.735 212.5,231.5 Z"/></g>
<g><path style="opacity:1" fill="#4b8612" d="M 320.5,207.5 C 321.833,208.167 322.833,209.167 323.5,210.5C 323.351,211.552 323.517,212.552 324,213.5C 328.035,217.2 331.702,221.2 335,225.5C 341.892,236.94 348.558,248.606 355,260.5C 355.977,261.774 356.811,261.774 357.5,260.5C 363.897,276.104 366.23,292.437 364.5,309.5C 362.484,308.514 361.151,306.847 360.5,304.5C 359.808,305.025 359.308,305.692 359,306.5C 358.667,306.167 358.333,305.833 358,305.5C 354.163,308.085 353.829,307.751 357,304.5C 357.553,298.01 356.887,298.01 355,304.5C 354.692,303.692 354.192,303.025 353.5,302.5C 353.598,303.616 353.098,304.616 352,305.5C 350.775,305.138 349.609,304.638 348.5,304C 351,302.866 352.167,301.032 352,298.5C 351.311,299.357 350.478,300.023 349.5,300.5C 347.192,299.359 345.359,297.692 344,295.5C 343.257,297.645 342.424,297.811 341.5,296C 342.056,294.989 342.722,294.156 343.5,293.5C 341.992,291.829 341.659,289.996 342.5,288C 341.672,287.085 340.672,286.419 339.5,286C 340.167,285.667 340.833,285.333 341.5,285C 340.234,284.691 339.067,284.191 338,283.5C 336.483,286.551 334.316,287.217 331.5,285.5C 329.721,283.454 328.054,281.287 326.5,279C 334.245,265.129 336.079,250.629 332,235.5C 330.119,240.983 327.952,246.316 325.5,251.5C 324.31,249.174 322.31,248.007 319.5,248C 320.939,247.009 321.939,245.676 322.5,244C 320.699,243.683 320.366,243.016 321.5,242C 320.636,240.863 319.636,239.53 318.5,238C 319.623,236.956 320.956,236.29 322.5,236C 322,235.5 321.5,235 321,234.5C 319.586,235.413 318.086,235.413 316.5,234.5C 317.891,228.256 318.558,221.922 318.5,215.5C 317.319,212.374 317.986,209.708 320.5,207.5 Z"/></g>
<g><path style="opacity:1" fill="#4b8612" d="M 153.5,219.5 C 163.519,225.525 171.186,233.859 176.5,244.5C 175.164,247.838 173.831,251.171 172.5,254.5C 168.742,249.565 164.742,244.732 160.5,240C 158.631,238.398 156.631,237.398 154.5,237C 160.405,243.397 166.071,249.897 171.5,256.5C 168.836,264.826 166.169,273.16 163.5,281.5C 155.4,275.23 148.9,267.563 144,258.5C 143.041,272.7 146.041,286.033 153,298.5C 153.667,299.833 153.667,301.167 153,302.5C 138.754,321.486 132.254,342.819 133.5,366.5C 126.643,363.617 120.643,359.617 115.5,354.5C 116.376,354.631 117.043,354.298 117.5,353.5C 114.898,347.757 113.231,341.757 112.5,335.5C 108.715,290.626 122.382,251.96 153.5,219.5 Z"/></g>
<g><path style="opacity:1" fill="#355b07" d="M 343.5,293.5 C 345.223,285.663 347.557,277.996 350.5,270.5C 350.309,277.282 348.809,283.948 346,290.5C 345.148,291.571 344.315,292.571 343.5,293.5 Z"/></g>
<g><path style="opacity:1" fill="#8fb022" d="M 107.5,268.5 C 110.113,269.095 110.113,269.929 107.5,271C 108.554,272.388 108.72,273.888 108,275.5C 105.221,280.501 103.221,285.834 102,291.5C 100.609,301.139 99.1087,310.472 97.5,319.5C 94.1767,301.118 97.51,284.118 107.5,268.5 Z"/></g>
<g><path style="opacity:1" fill="#aba293" d="M 214.5,282.5 C 215.644,286.964 216.31,291.63 216.5,296.5C 214.789,292.119 214.123,287.453 214.5,282.5 Z"/></g>
<g><path style="opacity:1" fill="#355b07" d="M 128.5,289.5 C 129.117,289.611 129.617,289.944 130,290.5C 130.452,293.877 131.118,297.211 132,300.5C 134.414,305.975 136.747,311.309 139,316.5C 132.068,308.875 128.568,299.875 128.5,289.5 Z"/></g>
<g><path style="opacity:1" fill="#427f14" d="M 376.5,258.5 C 384.971,283.056 382.138,306.389 368,328.5C 363.599,334.736 358.099,339.736 351.5,343.5C 350.992,321.972 344.325,302.639 331.5,285.5C 334.316,287.217 336.483,286.551 338,283.5C 339.067,284.191 340.234,284.691 341.5,285C 340.833,285.333 340.167,285.667 339.5,286C 340.672,286.419 341.672,287.085 342.5,288C 341.659,289.996 341.992,291.829 343.5,293.5C 342.722,294.156 342.056,294.989 341.5,296C 342.424,297.811 343.257,297.645 344,295.5C 345.359,297.692 347.192,299.359 349.5,300.5C 350.478,300.023 351.311,299.357 352,298.5C 352.167,301.032 351,302.866 348.5,304C 349.609,304.638 350.775,305.138 352,305.5C 353.098,304.616 353.598,303.616 353.5,302.5C 354.192,303.025 354.692,303.692 355,304.5C 356.887,298.01 357.553,298.01 357,304.5C 353.829,307.751 354.163,308.085 358,305.5C 358.333,305.833 358.667,306.167 359,306.5C 359.308,305.692 359.808,305.025 360.5,304.5C 361.151,306.847 362.484,308.514 364.5,309.5C 364.351,310.552 364.517,311.552 365,312.5C 365.974,307.511 366.808,302.511 367.5,297.5C 369.629,291.546 372.129,285.546 375,279.5C 376.288,272.563 376.788,265.563 376.5,258.5 Z"/></g>
<g><path style="opacity:1" fill="#261c0a" d="M 229.5,120.5 C 229.334,129.506 229.5,138.506 230,147.5C 231.646,145.391 232.812,143.057 233.5,140.5C 236.91,138.258 240.244,135.925 243.5,133.5C 243.5,134.5 243.5,135.5 243.5,136.5C 243.167,137.167 242.833,137.833 242.5,138.5C 234.17,146 231.337,155.333 234,166.5C 239.462,167.272 244.962,168.105 250.5,169C 259.944,172.035 266.944,177.868 271.5,186.5C 270.926,187.528 270.593,188.528 270.5,189.5C 269.201,188.91 268.368,187.91 268,186.5C 267.722,187.416 267.222,188.082 266.5,188.5C 263.398,184.896 260.065,181.396 256.5,178C 244.344,170.174 232.678,170.674 221.5,179.5C 219.167,181.167 217.167,183.167 215.5,185.5C 213.19,188.102 211.357,191.102 210,194.5C 204.359,215.182 211.525,229.349 231.5,237C 247.068,239.708 259.068,234.541 267.5,221.5C 268.931,221.881 269.764,222.881 270,224.5C 270.667,223.167 271.333,221.833 272,220.5C 272.383,221.056 272.883,221.389 273.5,221.5C 268.483,231.689 260.817,238.856 250.5,243C 268.98,306.527 279.314,371.361 281.5,437.5C 280.698,436.048 280.198,434.382 280,432.5C 279.667,433.167 279.333,433.833 279,434.5C 278.71,432.956 278.044,431.623 277,430.5C 276.231,433.099 276.398,435.599 277.5,438C 276.877,440.607 276.21,443.107 275.5,445.5C 275.426,431.125 274.592,416.791 273,402.5C 269.233,404.551 265.399,406.218 261.5,407.5C 258.193,408.051 254.86,408.384 251.5,408.5C 250.262,408.19 250.262,407.69 251.5,407C 250.263,406.768 249.263,406.268 248.5,405.5C 252.962,405.577 257.295,404.91 261.5,403.5C 265.027,402.268 268.527,400.935 272,399.5C 271.972,386.743 270.805,374.076 268.5,361.5C 264.55,363.586 260.55,365.252 256.5,366.5C 246.705,368.159 237.038,367.826 227.5,365.5C 226.417,365.461 225.417,365.127 224.5,364.5C 223.004,374.115 222.004,383.782 221.5,393.5C 221.067,390.741 219.4,389.408 216.5,389.5C 216.5,386.167 216.5,382.833 216.5,379.5C 217.724,351.824 217.724,324.158 216.5,296.5C 216.31,291.63 215.644,286.964 214.5,282.5C 213.967,274.105 212.967,265.772 211.5,257.5C 212.467,256.194 213.801,255.527 215.5,255.5C 216.224,257.218 216.891,259.052 217.5,261C 227.053,261.408 236.387,260.075 245.5,257C 246.516,256.481 247.182,255.647 247.5,254.5C 246.183,250.565 245.183,246.565 244.5,242.5C 231.764,244.367 221.097,240.701 212.5,231.5C 211.878,229.665 210.544,228.498 208.5,228C 212.512,226.197 212.178,225.197 207.5,225C 210.167,224 210.167,223 207.5,222C 207.968,220.178 208.301,218.011 208.5,215.5C 207.448,215.649 206.448,215.483 205.5,215C 205.833,214.667 206.167,214.333 206.5,214C 205.426,213.261 204.759,212.261 204.5,211C 206.564,208.047 206.897,204.881 205.5,201.5C 204.808,202.025 204.308,202.692 204,203.5C 203.722,202.584 203.222,201.918 202.5,201.5C 205.372,185.799 214.039,174.632 228.5,168C 227.499,164.165 225.832,160.665 223.5,157.5C 224.217,156.539 225.383,155.539 227,154.5C 227.333,154.833 227.667,155.167 228,155.5C 229.067,154.809 230.234,154.309 231.5,154C 230.5,153.667 229.5,153.333 228.5,153C 228.5,152 228.5,151 228.5,150C 227.262,150.077 226.262,149.911 225.5,149.5C 226.727,148.41 227.56,147.076 228,145.5C 228.171,136.99 228.671,128.657 229.5,120.5 Z"/></g>
<g><path style="opacity:1" fill="#9b5a14" d="M 253.5,327.5 C 255.982,338.687 257.315,350.02 257.5,361.5C 252.599,363.052 247.432,363.719 242,363.5C 237.985,363.499 234.151,363.165 230.5,362.5C 228.594,352.087 227.594,341.421 227.5,330.5C 229.415,330.784 231.081,330.451 232.5,329.5C 239.62,329.825 246.62,329.159 253.5,327.5 Z"/></g>
<g><path style="opacity:1" fill="#76430d" d="M 257.5,361.5 C 257.315,350.02 255.982,338.687 253.5,327.5C 256.592,326.456 259.592,325.122 262.5,323.5C 265.037,334.388 267.037,345.388 268.5,356.5C 265.72,359.881 262.054,361.548 257.5,361.5 Z"/></g>
<g><path style="opacity:1" fill="#9a5913" d="M 247.5,292.5 C 250.296,300.61 251.796,308.944 252,317.5C 250.639,319.028 249.472,320.695 248.5,322.5C 249.243,323.182 249.909,323.849 250.5,324.5C 242.912,326.584 235.246,326.917 227.5,325.5C 227.406,315.526 226.406,305.693 224.5,296C 225.056,295.617 225.389,295.117 225.5,294.5C 232.935,294.779 240.269,294.112 247.5,292.5 Z"/></g>
<g><path style="opacity:1" fill="#76430d" d="M 250.5,324.5 C 249.909,323.849 249.243,323.182 248.5,322.5C 249.472,320.695 250.639,319.028 252,317.5C 251.796,308.944 250.296,300.61 247.5,292.5C 250.14,291.18 252.807,289.847 255.5,288.5C 258.14,298.397 260.474,308.397 262.5,318.5C 259.071,321.548 255.071,323.548 250.5,324.5 Z"/></g>
<g><path style="opacity:1" fill="#bb7925" d="M 225.5,294.5 C 225.389,295.117 225.056,295.617 224.5,296C 226.406,305.693 227.406,315.526 227.5,325.5C 226.178,325.67 225.011,325.337 224,324.5C 223.693,314.763 222.859,305.096 221.5,295.5C 222.689,294.571 224.022,294.238 225.5,294.5 Z"/></g>
<g><path style="opacity:1" fill="#9b5a14" d="M 236.5,262.5 C 237.5,262.5 238.5,262.5 239.5,262.5C 242.445,271.336 244.778,280.336 246.5,289.5C 238.603,291.327 230.603,291.827 222.5,291C 221.874,290.25 221.374,289.416 221,288.5C 220.299,280.591 219.132,272.758 217.5,265C 217.833,264.5 218.167,264 218.5,263.5C 219.772,264.046 221.106,264.379 222.5,264.5C 227.163,263.739 231.83,263.072 236.5,262.5 Z"/></g>
<g><path style="opacity:1" fill="#73410d" d="M 246.5,289.5 C 244.778,280.336 242.445,271.336 239.5,262.5C 238.5,262.5 237.5,262.5 236.5,262.5C 240.59,260.925 244.923,259.925 249.5,259.5C 251.259,267.704 253.259,275.871 255.5,284C 253.197,286.825 250.197,288.659 246.5,289.5 Z"/></g>
<g><path style="opacity:1" fill="#462607" d="M 232.5,182.5 C 234.199,182.34 235.866,182.506 237.5,183C 235.129,185.01 232.463,186.01 229.5,186C 230.71,184.961 231.71,183.794 232.5,182.5 Z"/></g>
<g><path style="opacity:1" fill="#b07122" d="M 232.5,329.5 C 231.081,330.451 229.415,330.784 227.5,330.5C 227.594,341.421 228.594,352.087 230.5,362.5C 228.139,362.326 225.806,361.993 223.5,361.5C 223.5,350.5 223.5,339.5 223.5,328.5C 226.482,328.963 229.482,329.296 232.5,329.5 Z"/></g>
<g><path style="opacity:1" fill="#9b5a13" d="M 227.5,365.5 C 237.038,367.826 246.705,368.159 256.5,366.5C 258.197,368.305 259.03,370.639 259,373.5C 259.738,383.566 260.571,393.566 261.5,403.5C 257.295,404.91 252.962,405.577 248.5,405.5C 242.491,405.666 236.491,405.499 230.5,405C 228.277,404.434 226.277,403.6 224.5,402.5C 226.162,390.232 227.162,377.899 227.5,365.5 Z"/></g>
<g><path style="opacity:1" fill="#76430d" d="M 261.5,403.5 C 260.571,393.566 259.738,383.566 259,373.5C 259.03,370.639 258.197,368.305 256.5,366.5C 260.55,365.252 264.55,363.586 268.5,361.5C 270.805,374.076 271.972,386.743 272,399.5C 268.527,400.935 265.027,402.268 261.5,403.5 Z"/></g>
<g><path style="opacity:1" fill="#bf7d28" d="M 227.5,365.5 C 227.162,377.899 226.162,390.232 224.5,402.5C 220.152,400.793 219.152,397.793 221.5,393.5C 222.004,383.782 223.004,374.115 224.5,364.5C 225.417,365.127 226.417,365.461 227.5,365.5 Z"/></g>
<g><path style="opacity:1" fill="#75420d" d="M 275.5,445.5 C 275.631,446.376 275.298,447.043 274.5,447.5C 270.362,449.767 266.028,451.433 261.5,452.5C 262.602,437.491 262.602,422.491 261.5,407.5C 265.399,406.218 269.233,404.551 273,402.5C 274.592,416.791 275.426,431.125 275.5,445.5 Z"/></g>
<g><path style="opacity:1" fill="#bb7a26" d="M 224.5,406.5 C 222.594,419.845 220.594,433.178 218.5,446.5C 214.748,444.286 213.581,440.953 215,436.5C 216.726,425.81 218.559,415.143 220.5,404.5C 221.86,405.18 223.193,405.847 224.5,406.5 Z"/></g>
<g><path style="opacity:1" fill="#9b5a13" d="M 224.5,406.5 C 233.464,409.437 242.464,410.104 251.5,408.5C 254.86,408.384 258.193,408.051 261.5,407.5C 262.602,422.491 262.602,437.491 261.5,452.5C 249.737,454.162 238.07,453.662 226.5,451C 223.367,450.14 220.7,448.64 218.5,446.5C 220.594,433.178 222.594,419.845 224.5,406.5 Z"/></g>
<g><path style="opacity:1" fill="#281e0a" d="M 216.5,379.5 C 216.5,382.833 216.5,386.167 216.5,389.5C 219.4,389.408 221.067,390.741 221.5,393.5C 219.152,397.793 220.152,400.793 224.5,402.5C 226.277,403.6 228.277,404.434 230.5,405C 236.491,405.499 242.491,405.666 248.5,405.5C 249.263,406.268 250.263,406.768 251.5,407C 250.262,407.69 250.262,408.19 251.5,408.5C 242.464,410.104 233.464,409.437 224.5,406.5C 223.193,405.847 221.86,405.18 220.5,404.5C 218.559,415.143 216.726,425.81 215,436.5C 213.581,440.953 214.748,444.286 218.5,446.5C 220.7,448.64 223.367,450.14 226.5,451C 238.07,453.662 249.737,454.162 261.5,452.5C 266.028,451.433 270.362,449.767 274.5,447.5C 275.298,447.043 275.631,446.376 275.5,445.5C 276.21,443.107 276.877,440.607 277.5,438C 276.398,435.599 276.231,433.099 277,430.5C 278.044,431.623 278.71,432.956 279,434.5C 279.333,433.833 279.667,433.167 280,432.5C 280.198,434.382 280.698,436.048 281.5,437.5C 282.03,446.654 282.363,455.82 282.5,465C 281.799,488.864 280.965,512.697 280,536.5C 286.343,523.156 295.843,512.656 308.5,505C 317,501.5 319.5,504 316,512.5C 309.454,523.089 303.287,533.923 297.5,545C 303.879,540.639 310.879,536.972 318.5,534C 322.5,533.333 326.5,533.333 330.5,534C 332.363,535.418 332.863,537.251 332,539.5C 323.204,545.962 315.371,553.462 308.5,562C 315.037,560.63 321.704,560.297 328.5,561C 331.2,561.949 332.033,563.783 331,566.5C 328.913,567.794 326.746,568.961 324.5,570C 346.381,572.032 367.381,577.366 387.5,586C 388.823,586.816 389.489,587.983 389.5,589.5C 389.189,590.478 388.522,591.145 387.5,591.5C 364.4,581.891 340.4,576.391 315.5,575C 313.004,576.331 311.004,578.164 309.5,580.5C 307.697,582.481 306.03,584.648 304.5,587C 302.934,587.765 301.601,587.598 300.5,586.5C 305.379,576.457 313.046,569.29 323.5,565C 311.685,564.659 302.518,569.492 296,579.5C 296.318,572.51 298.652,566.177 303,560.5C 309.538,552.294 317.038,545.128 325.5,539C 322.743,538.416 320.077,538.75 317.5,540C 301.974,546.192 291.141,557.026 285,572.5C 284.557,567.607 285.39,562.94 287.5,558.5C 294.034,541.599 302.034,525.433 311.5,510C 308.902,510.126 306.569,511.126 304.5,513C 294.479,522.224 286.812,533.058 281.5,545.5C 277.195,555.594 275.195,566.261 275.5,577.5C 279.062,577.965 282.395,579.132 285.5,581C 286.252,581.671 286.586,582.504 286.5,583.5C 286.134,584.695 285.301,585.361 284,585.5C 280.864,584.399 277.697,583.399 274.5,582.5C 260.127,592.809 243.96,597.809 226,597.5C 205.182,598.118 187.015,591.618 171.5,578C 170.207,577.51 168.873,577.343 167.5,577.5C 166.903,577.265 166.57,576.765 166.5,576C 171.295,565.899 175.128,555.399 178,544.5C 178.78,542.613 178.613,540.946 177.5,539.5C 175.236,527.809 169.903,517.642 161.5,509C 158.966,507.066 156.299,505.732 153.5,505C 161.896,518.353 167.229,532.853 169.5,548.5C 170.775,553.117 170.775,557.784 169.5,562.5C 164.976,545.642 154.31,534.642 137.5,529.5C 137.167,529.833 136.833,530.167 136.5,530.5C 143.568,538.065 150.068,546.065 156,554.5C 159.833,560.328 161.833,566.661 162,573.5C 154.652,562.074 144.152,556.241 130.5,556C 140.791,561.788 148.458,569.955 153.5,580.5C 152.998,582.085 151.998,582.585 150.5,582C 148.753,578.667 146.42,575.833 143.5,573.5C 140.36,574.089 137.36,574.756 134.5,575.5C 115.221,577.389 96.3878,581.389 78,587.5C 76.699,587.361 75.8656,586.695 75.5,585.5C 75.4142,584.504 75.7476,583.671 76.5,583C 80.7225,581.056 85.0558,579.389 89.5,578C 106.045,574.348 122.711,571.348 139.5,569C 134.897,564.396 129.73,560.562 124,557.5C 123.333,556.167 123.333,554.833 124,553.5C 126.077,552.042 128.41,551.376 131,551.5C 137.674,552.195 144.174,553.361 150.5,555C 144.419,546.248 137.586,538.082 130,530.5C 129.219,529.056 129.386,527.723 130.5,526.5C 143.307,524.271 153.807,528.271 162,538.5C 159.374,527.234 155.041,516.567 149,506.5C 148.231,503.901 148.398,501.401 149.5,499C 153.443,498.755 157.11,499.755 160.5,502C 170.353,510.2 177.52,520.367 182,532.5C 200.323,482.889 211.823,431.889 216.5,379.5 Z"/></g>
<g><path style="opacity:1" fill="#b77523" d="M 192.5,536.5 C 190.453,543.594 188.12,550.594 185.5,557.5C 184.108,562.835 182.608,568.168 181,573.5C 178.585,572.589 177.085,570.922 176.5,568.5C 180.561,556.486 184.727,544.486 189,532.5C 190.376,533.705 191.542,535.038 192.5,536.5 Z"/></g>
<g><path style="opacity:1" fill="#9b5a14" d="M 207.5,494.5 C 222.638,503.195 238.972,506.528 256.5,504.5C 256.042,518.506 253.709,532.506 249.5,546.5C 233.017,549.074 217.35,546.574 202.5,539C 199.58,537.054 196.913,534.887 194.5,532.5C 198.459,519.621 202.792,506.954 207.5,494.5 Z"/></g>
<g><path style="opacity:1" fill="#6a9b15" d="M 287.5,558.5 C 283.091,555.345 281.091,551.012 281.5,545.5C 286.812,533.058 294.479,522.224 304.5,513C 306.569,511.126 308.902,510.126 311.5,510C 302.034,525.433 294.034,541.599 287.5,558.5 Z"/></g>
<g><path style="opacity:1" fill="#619515" d="M 177.5,539.5 C 176.59,541.019 175.757,542.685 175,544.5C 172.492,545.036 170.659,546.369 169.5,548.5C 167.229,532.853 161.896,518.353 153.5,505C 156.299,505.732 158.966,507.066 161.5,509C 169.903,517.642 175.236,527.809 177.5,539.5 Z"/></g>
<g><path style="opacity:1" fill="#76420d" d="M 249.5,546.5 C 253.709,532.506 256.042,518.506 256.5,504.5C 262.585,503.136 268.585,501.136 274.5,498.5C 274.833,499.667 275.167,500.833 275.5,502C 274.667,512.83 273.833,523.664 273,534.5C 272.749,536.433 272.249,538.266 271.5,540C 264.432,543.1 257.098,545.267 249.5,546.5 Z"/></g>
<g><path style="opacity:1" fill="#be7c27" d="M 207.5,494.5 C 202.792,506.954 198.459,519.621 194.5,532.5C 192.648,531.48 191.315,529.98 190.5,528C 194.868,515.229 199.035,502.395 203,489.5C 204.707,491.037 206.207,492.704 207.5,494.5 Z"/></g>
<g><path style="opacity:1" fill="#76420d" d="M 260.5,499.5 C 259.418,498.406 258.752,497.073 258.5,495.5C 261.115,482.43 261.782,469.43 260.5,456.5C 265.193,455.266 269.86,453.6 274.5,451.5C 275.833,465.833 275.833,480.167 274.5,494.5C 270.082,496.972 265.415,498.639 260.5,499.5 Z"/></g>
<g><path style="opacity:1" fill="#9b5913" d="M 217.5,450.5 C 231.15,456.974 245.484,458.974 260.5,456.5C 261.782,469.43 261.115,482.43 258.5,495.5C 258.752,497.073 259.418,498.406 260.5,499.5C 245.871,502.381 231.538,501.214 217.5,496C 214.102,494.643 211.102,492.81 208.5,490.5C 211.756,477.222 214.756,463.889 217.5,450.5 Z"/></g>
<g><path style="opacity:1" fill="#bd7b26" d="M 217.5,450.5 C 214.756,463.889 211.756,477.222 208.5,490.5C 206.521,489.188 204.855,487.521 203.5,485.5C 207.012,472.778 210.512,460.111 214,447.5C 215.145,448.636 216.312,449.636 217.5,450.5 Z"/></g>
<g><path style="opacity:1" fill="#9a5913" d="M 192.5,536.5 C 209.122,548.656 227.789,553.322 248.5,550.5C 244.505,562.33 236.505,569.83 224.5,573C 215.856,574.176 207.19,574.51 198.5,574C 195.861,573.347 193.527,572.18 191.5,570.5C 192.726,566.32 194.06,562.154 195.5,558C 195.167,557.5 194.833,557 194.5,556.5C 192.055,560.166 190.389,564.166 189.5,568.5C 188.694,567.003 188.028,565.336 187.5,563.5C 188.52,561.568 188.687,559.568 188,557.5C 187.23,556.402 186.397,556.402 185.5,557.5C 188.12,550.594 190.453,543.594 192.5,536.5 Z"/></g>
<g><path style="opacity:1" fill="#488215" d="M 300.5,586.5 C 295.773,585.755 291.106,584.755 286.5,583.5C 286.586,582.504 286.252,581.671 285.5,581C 282.395,579.132 279.062,577.965 275.5,577.5C 275.195,566.261 277.195,555.594 281.5,545.5C 281.091,551.012 283.091,555.345 287.5,558.5C 285.39,562.94 284.557,567.607 285,572.5C 291.141,557.026 301.974,546.192 317.5,540C 320.077,538.75 322.743,538.416 325.5,539C 317.038,545.128 309.538,552.294 303,560.5C 298.652,566.177 296.318,572.51 296,579.5C 302.518,569.492 311.685,564.659 323.5,565C 313.046,569.29 305.379,576.457 300.5,586.5 Z"/></g>
<g><path style="opacity:1" fill="#7a460f" d="M 189.5,568.5 C 188.107,572.51 186.607,576.51 185,580.5C 181.39,578.556 178.057,576.223 175,573.5C 174.797,571.609 175.297,569.943 176.5,568.5C 177.085,570.922 178.585,572.589 181,573.5C 182.608,568.168 184.108,562.835 185.5,557.5C 186.397,556.402 187.23,556.402 188,557.5C 188.687,559.568 188.52,561.568 187.5,563.5C 188.028,565.336 188.694,567.003 189.5,568.5 Z"/></g>
<g><path style="opacity:1" fill="#447f15" d="M 169.5,548.5 C 170.659,546.369 172.492,545.036 175,544.5C 175.757,542.685 176.59,541.019 177.5,539.5C 178.613,540.946 178.78,542.613 178,544.5C 175.128,555.399 171.295,565.899 166.5,576C 166.57,576.765 166.903,577.265 167.5,577.5C 163.042,578.915 158.375,579.915 153.5,580.5C 148.458,569.955 140.791,561.788 130.5,556C 144.152,556.241 154.652,562.074 162,573.5C 161.833,566.661 159.833,560.328 156,554.5C 150.068,546.065 143.568,538.065 136.5,530.5C 136.833,530.167 137.167,529.833 137.5,529.5C 154.31,534.642 164.976,545.642 169.5,562.5C 170.775,557.784 170.775,553.117 169.5,548.5 Z"/></g>
<g><path style="opacity:1" fill="#71400e" d="M 191.5,570.5 C 193.527,572.18 195.861,573.347 198.5,574C 207.19,574.51 215.856,574.176 224.5,573C 236.505,569.83 244.505,562.33 248.5,550.5C 256.348,549.273 263.848,546.939 271,543.5C 271.216,555.459 270.049,567.292 267.5,579C 259.845,584.821 251.179,588.488 241.5,590C 222.051,593.508 203.717,590.508 186.5,581C 188.474,577.543 190.14,574.043 191.5,570.5 Z"/></g>
<g><path style="opacity:1" fill="#e8ac4b" d="M 389.5,589.5 C 394.702,590.289 399.702,591.789 404.5,594C 415.34,600.663 415.007,606.83 403.5,612.5C 404.043,610.657 403.376,608.99 401.5,607.5C 400.304,607.846 400.304,608.346 401.5,609C 396.068,609.176 390.735,609.343 385.5,609.5C 384.633,606.773 382.799,604.773 380,603.5C 379.544,604.744 380.044,605.577 381.5,606C 380.5,606.333 379.5,606.667 378.5,607C 377.167,607.667 377.167,608.333 378.5,609C 376.256,611.349 375.089,610.849 375,607.5C 374.667,608.167 374.333,608.833 374,609.5C 371.724,606.936 369.724,607.27 368,610.5C 366.294,609.692 365.461,608.359 365.5,606.5C 363.61,606.297 362.11,606.963 361,608.5C 358,607.167 355,605.833 352,604.5C 351.667,604.833 351.333,605.167 351,605.5C 350.689,604.258 351.189,603.258 352.5,602.5C 351.975,601.808 351.308,601.308 350.5,601C 350.833,600.667 351.167,600.333 351.5,600C 348.15,597.038 344.816,596.872 341.5,599.5C 342.167,600.167 342.833,600.833 343.5,601.5C 342.754,602.736 342.421,604.07 342.5,605.5C 344.124,605.64 345.29,604.973 346,603.5C 348.003,605.725 347.503,607.392 344.5,608.5C 342.78,607.066 340.78,606.233 338.5,606C 338.833,605.667 339.167,605.333 339.5,605C 337.939,604.682 336.772,603.849 336,602.5C 334.634,604.488 333.134,605.488 331.5,605.5C 332.376,606.251 333.376,606.751 334.5,607C 333.333,607.5 332.5,608.333 332,609.5C 331,607.833 330,606.167 329,604.5C 328.667,605.167 328.333,605.833 328,606.5C 327.316,605.216 327.483,604.049 328.5,603C 327.285,600.904 326.451,601.071 326,603.5C 325.174,601.595 324.007,601.261 322.5,602.5C 323.661,604.378 322.994,605.378 320.5,605.5C 318.617,605.124 317.117,604.124 316,602.5C 315.026,604.878 314.359,604.544 314,601.5C 313.458,603.635 312.458,605.968 311,608.5C 310.667,608.167 310.333,607.833 310,607.5C 309.275,609.158 308.108,609.658 306.5,609C 307.167,608.667 307.833,608.333 308.5,608C 306.065,607.147 303.731,606.147 301.5,605C 303.929,604.549 304.096,603.715 302,602.5C 299.612,605.408 296.612,605.741 293,603.5C 290.927,606.137 288.427,606.804 285.5,605.5C 285.833,604.833 286.167,604.167 286.5,603.5C 284.141,601.45 283.474,599.116 284.5,596.5C 295.658,594.01 306.991,592.51 318.5,592C 321.939,591.783 324.605,590.283 326.5,587.5C 325.96,586.252 325.293,585.085 324.5,584C 319.609,582.388 314.609,581.222 309.5,580.5C 311.004,578.164 313.004,576.331 315.5,575C 340.4,576.391 364.4,581.891 387.5,591.5C 388.522,591.145 389.189,590.478 389.5,589.5 Z"/></g>
<g><path style="opacity:1" fill="#e9ad4c" d="M 134.5,575.5 C 136.288,575.215 137.955,575.548 139.5,576.5C 136.544,579.856 136.877,582.689 140.5,585C 154.132,584.791 166.798,588.124 178.5,595C 184.519,596.837 190.519,598.67 196.5,600.5C 196.033,603.826 194.866,604.159 193,601.5C 192.692,602.308 192.192,602.975 191.5,603.5C 190.409,601.985 189.076,601.152 187.5,601C 188.815,602.395 188.481,603.395 186.5,604C 187.167,604.333 187.833,604.667 188.5,605C 186.865,605.54 185.532,605.04 184.5,603.5C 183.719,604.729 183.219,606.062 183,607.5C 179.36,606.526 177.026,604.193 176,600.5C 175.517,601.448 175.351,602.448 175.5,603.5C 172.921,603.917 170.754,603.25 169,601.5C 163.946,604.489 159.279,604.156 155,600.5C 153.829,601.34 152.662,602.173 151.5,603C 152.517,604.049 152.684,605.216 152,606.5C 150.75,605.427 149.416,605.427 148,606.5C 146.779,605.728 145.779,604.728 145,603.5C 144.667,603.833 144.333,604.167 144,604.5C 143.581,603.328 142.915,602.328 142,601.5C 141.333,603.5 140,604.833 138,605.5C 138.617,603.905 138.284,602.572 137,601.5C 136.692,602.308 136.192,602.975 135.5,603.5C 134.702,601.922 134.202,600.256 134,598.5C 133.667,599.833 133.333,601.167 133,602.5C 131.312,600.152 129.478,599.985 127.5,602C 128.809,603.751 128.475,605.251 126.5,606.5C 127.902,607.842 127.569,608.676 125.5,609C 126.167,609.333 126.833,609.667 127.5,610C 126.809,611.067 126.309,612.234 126,613.5C 125.667,612.5 125.333,611.5 125,610.5C 123.732,610.616 122.398,610.949 121,611.5C 120.333,610.167 119.333,609.167 118,608.5C 118.077,609.738 117.911,610.738 117.5,611.5C 116.167,610.5 114.833,609.5 113.5,608.5C 114.025,607.808 114.692,607.308 115.5,607C 110.883,607.079 109.716,605.246 112,601.5C 112.984,603.795 113.817,603.461 114.5,600.5C 113.502,597.972 112.669,597.972 112,600.5C 111.438,596.7 112.438,596.033 115,598.5C 115.305,600.557 115.305,602.557 115,604.5C 116.044,603.377 116.71,602.044 117,600.5C 117.741,601.641 118.575,601.641 119.5,600.5C 120.244,599.009 120.91,597.509 121.5,596C 123.833,595.667 126.167,595.333 128.5,595C 129.357,594.311 130.023,593.478 130.5,592.5C 127.156,591.243 123.823,591.243 120.5,592.5C 119.833,591.5 119.167,590.5 118.5,589.5C 118.272,591.582 117.105,593.582 115,595.5C 113.235,594.761 111.235,594.761 109,595.5C 110.021,597.655 110.521,599.821 110.5,602C 109.747,603.487 108.914,603.654 108,602.5C 108.979,604.279 108.646,605.945 107,607.5C 105.413,606.273 104.079,606.606 103,608.5C 100.974,608.285 98.9742,607.285 97,605.5C 94.616,606.719 92.2826,606.719 90,605.5C 88.7711,607.947 87.2711,608.113 85.5,606C 86.6721,605.581 87.6721,604.915 88.5,604C 87.3333,603.5 86.5,602.667 86,601.5C 85,602.833 84,602.833 83,601.5C 82.3333,602.167 81.6667,602.833 81,603.5C 80.2588,602.359 79.4255,602.359 78.5,603.5C 77.2117,601.525 75.5451,601.525 73.5,603.5C 72.2612,601.993 72.5946,600.826 74.5,600C 73.5838,599.626 72.7504,599.126 72,598.5C 71.7104,600.044 71.0437,601.377 70,602.5C 69.3828,601.551 69.5494,600.718 70.5,600C 69.2559,599.544 68.4226,600.044 68,601.5C 67.2904,600.027 66.1238,599.36 64.5,599.5C 64.5,600.5 64.5,601.5 64.5,602.5C 62.549,602.227 61.049,602.893 60,604.5C 58.0065,603.086 55.8398,602.086 53.5,601.5C 52.5269,599.932 52.3603,598.265 53,596.5C 59.227,590.303 66.727,586.637 75.5,585.5C 75.8656,586.695 76.699,587.361 78,587.5C 96.3878,581.389 115.221,577.389 134.5,575.5 Z"/></g>
<g><path style="opacity:1" fill="#c1832f" d="M 153.5,580.5 C 158.375,579.915 163.042,578.915 167.5,577.5C 168.873,577.343 170.207,577.51 171.5,578C 187.015,591.618 205.182,598.118 226,597.5C 243.96,597.809 260.127,592.809 274.5,582.5C 277.697,583.399 280.864,584.399 284,585.5C 285.301,585.361 286.134,584.695 286.5,583.5C 291.106,584.755 295.773,585.755 300.5,586.5C 301.601,587.598 302.934,587.765 304.5,587C 306.03,584.648 307.697,582.481 309.5,580.5C 314.609,581.222 319.609,582.388 324.5,584C 325.293,585.085 325.96,586.252 326.5,587.5C 324.605,590.283 321.939,591.783 318.5,592C 306.991,592.51 295.658,594.01 284.5,596.5C 267.324,601.168 249.824,603.835 232,604.5C 220.026,604.275 208.192,602.942 196.5,600.5C 190.519,598.67 184.519,596.837 178.5,595C 166.798,588.124 154.132,584.791 140.5,585C 136.877,582.689 136.544,579.856 139.5,576.5C 137.955,575.548 136.288,575.215 134.5,575.5C 137.36,574.756 140.36,574.089 143.5,573.5C 146.42,575.833 148.753,578.667 150.5,582C 151.998,582.585 152.998,582.085 153.5,580.5 Z"/></g>
<g><path style="opacity:1" fill="#dfa549" d="M 196.5,600.5 C 208.192,602.942 220.026,604.275 232,604.5C 249.824,603.835 267.324,601.168 284.5,596.5C 283.474,599.116 284.141,601.45 286.5,603.5C 286.167,604.167 285.833,604.833 285.5,605.5C 288.427,606.804 290.927,606.137 293,603.5C 296.612,605.741 299.612,605.408 302,602.5C 304.096,603.715 303.929,604.549 301.5,605C 303.731,606.147 306.065,607.147 308.5,608C 307.833,608.333 307.167,608.667 306.5,609C 308.108,609.658 309.275,609.158 310,607.5C 310.333,607.833 310.667,608.167 311,608.5C 312.458,605.968 313.458,603.635 314,601.5C 314.359,604.544 315.026,604.878 316,602.5C 317.117,604.124 318.617,605.124 320.5,605.5C 322.994,605.378 323.661,604.378 322.5,602.5C 324.007,601.261 325.174,601.595 326,603.5C 326.451,601.071 327.285,600.904 328.5,603C 327.483,604.049 327.316,605.216 328,606.5C 328.333,605.833 328.667,605.167 329,604.5C 330,606.167 331,607.833 332,609.5C 332.5,608.333 333.333,607.5 334.5,607C 333.376,606.751 332.376,606.251 331.5,605.5C 333.134,605.488 334.634,604.488 336,602.5C 336.772,603.849 337.939,604.682 339.5,605C 339.167,605.333 338.833,605.667 338.5,606C 340.78,606.233 342.78,607.066 344.5,608.5C 347.503,607.392 348.003,605.725 346,603.5C 345.29,604.973 344.124,605.64 342.5,605.5C 342.421,604.07 342.754,602.736 343.5,601.5C 342.833,600.833 342.167,600.167 341.5,599.5C 344.816,596.872 348.15,597.038 351.5,600C 351.167,600.333 350.833,600.667 350.5,601C 351.308,601.308 351.975,601.808 352.5,602.5C 351.189,603.258 350.689,604.258 351,605.5C 351.333,605.167 351.667,604.833 352,604.5C 355,605.833 358,607.167 361,608.5C 362.11,606.963 363.61,606.297 365.5,606.5C 365.461,608.359 366.294,609.692 368,610.5C 369.724,607.27 371.724,606.936 374,609.5C 374.333,608.833 374.667,608.167 375,607.5C 375.089,610.849 376.256,611.349 378.5,609C 377.167,608.333 377.167,607.667 378.5,607C 379.5,606.667 380.5,606.333 381.5,606C 380.044,605.577 379.544,604.744 380,603.5C 382.799,604.773 384.633,606.773 385.5,609.5C 390.735,609.343 396.068,609.176 401.5,609C 400.304,608.346 400.304,607.846 401.5,607.5C 403.376,608.99 404.043,610.657 403.5,612.5C 403.167,612.5 402.833,612.5 402.5,612.5C 393.116,615.581 383.449,617.414 373.5,618C 359.488,618.167 345.488,618.667 331.5,619.5C 332.246,620.736 332.579,622.07 332.5,623.5C 267.833,623.5 203.167,623.5 138.5,623.5C 138.859,621.629 139.859,620.129 141.5,619C 117.162,618.633 93.1618,615.633 69.5,610C 64.8795,608.685 60.5462,606.852 56.5,604.5C 55.1667,603.833 54.1667,602.833 53.5,601.5C 55.8398,602.086 58.0065,603.086 60,604.5C 61.049,602.893 62.549,602.227 64.5,602.5C 64.5,601.5 64.5,600.5 64.5,599.5C 66.1238,599.36 67.2904,600.027 68,601.5C 68.4226,600.044 69.2559,599.544 70.5,600C 69.5494,600.718 69.3828,601.551 70,602.5C 71.0437,601.377 71.7104,600.044 72,598.5C 72.7504,599.126 73.5838,599.626 74.5,600C 72.5946,600.826 72.2612,601.993 73.5,603.5C 75.5451,601.525 77.2117,601.525 78.5,603.5C 79.4255,602.359 80.2588,602.359 81,603.5C 81.6667,602.833 82.3333,602.167 83,601.5C 84,602.833 85,602.833 86,601.5C 86.5,602.667 87.3333,603.5 88.5,604C 87.6721,604.915 86.6721,605.581 85.5,606C 87.2711,608.113 88.7711,607.947 90,605.5C 92.2826,606.719 94.616,606.719 97,605.5C 98.9742,607.285 100.974,608.285 103,608.5C 104.079,606.606 105.413,606.273 107,607.5C 108.646,605.945 108.979,604.279 108,602.5C 108.914,603.654 109.747,603.487 110.5,602C 110.521,599.821 110.021,597.655 109,595.5C 111.235,594.761 113.235,594.761 115,595.5C 117.105,593.582 118.272,591.582 118.5,589.5C 119.167,590.5 119.833,591.5 120.5,592.5C 123.823,591.243 127.156,591.243 130.5,592.5C 130.023,593.478 129.357,594.311 128.5,595C 126.167,595.333 123.833,595.667 121.5,596C 120.91,597.509 120.244,599.009 119.5,600.5C 118.575,601.641 117.741,601.641 117,600.5C 116.71,602.044 116.044,603.377 115,604.5C 115.305,602.557 115.305,600.557 115,598.5C 112.438,596.033 111.438,596.7 112,600.5C 112.669,597.972 113.502,597.972 114.5,600.5C 113.817,603.461 112.984,603.795 112,601.5C 109.716,605.246 110.883,607.079 115.5,607C 114.692,607.308 114.025,607.808 113.5,608.5C 114.833,609.5 116.167,610.5 117.5,611.5C 117.911,610.738 118.077,609.738 118,608.5C 119.333,609.167 120.333,610.167 121,611.5C 122.398,610.949 123.732,610.616 125,610.5C 125.333,611.5 125.667,612.5 126,613.5C 126.309,612.234 126.809,611.067 127.5,610C 126.833,609.667 126.167,609.333 125.5,609C 127.569,608.676 127.902,607.842 126.5,606.5C 128.475,605.251 128.809,603.751 127.5,602C 129.478,599.985 131.312,600.152 133,602.5C 133.333,601.167 133.667,599.833 134,598.5C 134.202,600.256 134.702,601.922 135.5,603.5C 136.192,602.975 136.692,602.308 137,601.5C 138.284,602.572 138.617,603.905 138,605.5C 140,604.833 141.333,603.5 142,601.5C 142.915,602.328 143.581,603.328 144,604.5C 144.333,604.167 144.667,603.833 145,603.5C 145.779,604.728 146.779,605.728 148,606.5C 149.416,605.427 150.75,605.427 152,606.5C 152.684,605.216 152.517,604.049 151.5,603C 152.662,602.173 153.829,601.34 155,600.5C 159.279,604.156 163.946,604.489 169,601.5C 170.754,603.25 172.921,603.917 175.5,603.5C 175.351,602.448 175.517,601.448 176,600.5C 177.026,604.193 179.36,606.526 183,607.5C 183.219,606.062 183.719,604.729 184.5,603.5C 185.532,605.04 186.865,605.54 188.5,605C 187.833,604.667 187.167,604.333 186.5,604C 188.481,603.395 188.815,602.395 187.5,601C 189.076,601.152 190.409,601.985 191.5,603.5C 192.192,602.975 192.692,602.308 193,601.5C 194.866,604.159 196.033,603.826 196.5,600.5 Z"/></g>
<g><path style="opacity:1" fill="#efdec5" d="M 56.5,604.5 C 60.5462,606.852 64.8795,608.685 69.5,610C 93.1618,615.633 117.162,618.633 141.5,619C 139.859,620.129 138.859,621.629 138.5,623.5C 92.1667,623.5 45.8333,623.5 -0.5,623.5C -0.5,616.833 -0.5,610.167 -0.5,603.5C 2.19398,604.59 5.02731,604.59 8,603.5C 9.09213,604.296 10.2588,604.963 11.5,605.5C 13.5411,604.009 15.0411,604.342 16,606.5C 17.2242,603.527 19.2242,602.86 22,604.5C 23.1931,603.022 23.6931,601.688 23.5,600.5C 24.5836,601.665 25.4169,602.998 26,604.5C 26.4226,603.044 27.2559,602.544 28.5,603C 27.2888,603.893 27.2888,604.726 28.5,605.5C 29.6244,600.279 30.4577,600.279 31,605.5C 31.5194,604.484 32.3527,603.818 33.5,603.5C 36.0832,603.981 38.5832,604.648 41,605.5C 41.6667,604.833 42.3333,604.167 43,603.5C 45.0033,605.801 46.8367,605.801 48.5,603.5C 48.7365,604.247 49.0698,605.08 49.5,606C 52.1394,606.588 54.4727,606.088 56.5,604.5 Z"/></g>
<g><path style="opacity:1" fill="#eddbc2" d="M 466.5,611.5 C 466.5,615.5 466.5,619.5 466.5,623.5C 421.833,623.5 377.167,623.5 332.5,623.5C 332.579,622.07 332.246,620.736 331.5,619.5C 345.488,618.667 359.488,618.167 373.5,618C 383.449,617.414 393.116,615.581 402.5,612.5C 403.622,613.947 405.122,614.947 407,615.5C 407.333,614.833 407.667,614.167 408,613.5C 409.113,614.711 410.28,614.711 411.5,613.5C 413.432,614.145 414.599,615.479 415,617.5C 415.483,616.552 415.649,615.552 415.5,614.5C 418.212,614.263 420.712,614.263 423,614.5C 424,613.833 425,613.167 426,612.5C 427.449,613.614 428.783,614.614 430,615.5C 431.085,614.707 432.252,614.04 433.5,613.5C 434.315,615.276 435.482,615.943 437,615.5C 437.333,614.833 437.667,614.167 438,613.5C 440.405,615.821 442.072,615.155 443,611.5C 443.399,615.321 444.732,615.988 447,613.5C 448.011,613.892 448.511,614.559 448.5,615.5C 449.478,615.023 450.311,614.357 451,613.5C 452.245,613.461 453.578,613.795 455,614.5C 458.822,613.735 462.655,612.735 466.5,611.5 Z"/></g>
</svg>
