<?xml version="1.0" encoding="UTF-8"?>
<!DOCTYPE svg PUBLIC "-//W3C//DTD SVG 1.1//EN" "http://www.w3.org/Graphics/SVG/1.1/DTD/svg11.dtd">
<svg xmlns="http://www.w3.org/2000/svg" version="1.1" width="224px" height="218px" style="shape-rendering:geometricPrecision; text-rendering:geometricPrecision; image-rendering:optimizeQuality; fill-rule:evenodd; clip-rule:evenodd" xmlns:xlink="http://www.w3.org/1999/xlink">
<g><path style="opacity:1" fill="#359a77" d="M 170.5,153.5 C 171.449,151.263 172.116,148.929 172.5,146.5C 173.5,146.5 174.5,146.5 175.5,146.5C 176.199,142.764 177.199,139.097 178.5,135.5C 175.792,132.009 174.625,128.009 175,123.5C 175.333,122.833 175.667,122.167 176,121.5C 176.667,123.5 177.333,125.5 178,127.5C 178.741,128.641 179.575,128.641 180.5,127.5C 182.923,124.285 184.423,120.618 185,116.5C 185.515,106.157 185.349,95.8233 184.5,85.5C 183.178,85.67 182.011,85.3366 181,84.5C 180.014,88.375 178.847,88.375 177.5,84.5C 178.325,83.6143 179.325,83.281 180.5,83.5C 180.677,81.0194 179.677,79.1861 177.5,78C 179.947,76.7711 180.113,75.2711 178,73.5C 176.701,73.9662 175.201,73.9662 173.5,73.5C 173.5,72.5 173.5,71.5 173.5,70.5C 170.637,69.6465 168.304,67.9799 166.5,65.5C 165.534,67.396 165.201,69.396 165.5,71.5C 163.549,71.2267 162.049,71.8934 161,73.5C 160.385,71.8839 159.385,70.5505 158,69.5C 154.183,77.6342 152.516,76.9676 153,67.5C 152,66.1667 151,66.1667 150,67.5C 149.101,72.576 150.268,77.076 153.5,81C 152.398,83.4009 152.231,85.9009 153,88.5C 155.542,90.747 156.042,93.4137 154.5,96.5C 153.833,96.1667 153.167,95.8333 152.5,95.5C 151.915,93.1352 150.748,91.1352 149,89.5C 147.89,91.3969 147.724,93.2302 148.5,95C 147.552,95.4828 146.552,95.6495 145.5,95.5C 145.318,93.4086 145.652,91.4086 146.5,89.5C 146,89.1667 145.5,88.8333 145,88.5C 137.878,87.5523 130.712,87.219 123.5,87.5C 123.5,90.1667 123.5,92.8333 123.5,95.5C 122.691,93.7078 122.191,91.7078 122,89.5C 121.768,90.7375 121.268,91.7375 120.5,92.5C 120.232,89.8806 120.565,87.3806 121.5,85C 129.493,84.5003 137.493,84.3336 145.5,84.5C 146.194,79.1951 146.528,73.8617 146.5,68.5C 147.125,61.889 146.792,55.2224 145.5,48.5C 143.979,48.1203 142.313,47.9536 140.5,48C 139.62,46.6439 139.286,45.1439 139.5,43.5C 141.492,43.3285 143.158,43.9951 144.5,45.5C 145.795,44.9017 147.128,44.4017 148.5,44C 145.426,43.0419 142.426,41.8752 139.5,40.5C 135.694,42.4966 131.694,43.33 127.5,43C 128.759,42.0766 130.092,41.2432 131.5,40.5C 131.333,40.1667 131.167,39.8333 131,39.5C 126.674,36.9611 122.174,34.7945 117.5,33C 107.601,31.889 97.9341,32.889 88.5,36C 84.6131,39.1109 80.2798,41.4443 75.5,43C 77.7506,44.8708 80.4172,46.0374 83.5,46.5C 82.6798,48.1112 81.3464,48.7778 79.5,48.5C 79.5,49.5 79.5,50.5 79.5,51.5C 76.8915,51.3944 74.8915,50.2277 73.5,48C 72.5,47.3333 71.5,47.3333 70.5,48C 71.6405,48.7412 71.6405,49.5745 70.5,50.5C 71.914,51.624 73.414,52.624 75,53.5C 76.0095,56.8474 77.8428,59.6807 80.5,62C 79.3508,63.7441 78.0175,63.9108 76.5,62.5C 75.269,63.6507 75.269,64.8173 76.5,66C 99.6703,66.1679 122.67,66.6679 145.5,67.5C 122.833,67.5 100.167,67.5 77.5,67.5C 77.5,71.1667 77.5,74.8333 77.5,78.5C 76.8826,78.3893 76.3826,78.056 76,77.5C 75.6667,74.8333 75.3333,72.1667 75,69.5C 71.6124,67.149 71.1124,64.4824 73.5,61.5C 72.6798,59.8888 71.3464,59.2222 69.5,59.5C 70,55.563 68.3334,53.2297 64.5,52.5C 61.4177,54.915 58.0844,56.915 54.5,58.5C 71.7014,37.3645 94.0348,28.1978 121.5,31C 162.729,39.1261 185.062,64.1261 188.5,106C 188.075,124.129 182.075,139.962 170.5,153.5 Z"/></g>
<g><path style="opacity:1" fill="#2b9f78" d="M 146.5,68.5 C 145.833,68.5 145.5,68.1667 145.5,67.5C 122.67,66.6679 99.6703,66.1679 76.5,66C 75.269,64.8173 75.269,63.6507 76.5,62.5C 78.0175,63.9108 79.3508,63.7441 80.5,62C 77.8428,59.6807 76.0095,56.8474 75,53.5C 73.414,52.624 71.914,51.624 70.5,50.5C 71.6405,49.5745 71.6405,48.7412 70.5,48C 71.5,47.3333 72.5,47.3333 73.5,48C 74.8915,50.2277 76.8915,51.3944 79.5,51.5C 79.5,50.5 79.5,49.5 79.5,48.5C 81.3464,48.7778 82.6798,48.1112 83.5,46.5C 80.4172,46.0374 77.7506,44.8708 75.5,43C 80.2798,41.4443 84.6131,39.1109 88.5,36C 97.9341,32.889 107.601,31.889 117.5,33C 122.174,34.7945 126.674,36.9611 131,39.5C 131.167,39.8333 131.333,40.1667 131.5,40.5C 130.092,41.2432 128.759,42.0766 127.5,43C 131.694,43.33 135.694,42.4966 139.5,40.5C 142.426,41.8752 145.426,43.0419 148.5,44C 147.128,44.4017 145.795,44.9017 144.5,45.5C 143.158,43.9951 141.492,43.3285 139.5,43.5C 139.286,45.1439 139.62,46.6439 140.5,48C 142.313,47.9536 143.979,48.1203 145.5,48.5C 146.792,55.2224 147.125,61.889 146.5,68.5 Z"/></g>
<g><path style="opacity:1" fill="#2c9e78" d="M 77.5,78.5 C 77.3713,80.2161 77.038,81.8828 76.5,83.5C 84.0968,85.4668 92.0968,86.1335 100.5,85.5C 100.766,89.5705 100.433,93.5705 99.5,97.5C 91.8967,97.5776 84.23,97.7443 76.5,98C 71.9809,98.5189 68.4809,100.686 66,104.5C 65.9558,106.76 66.7892,108.76 68.5,110.5C 71.0465,111.048 73.7132,111.048 76.5,110.5C 76.8333,111.833 77.1667,111.833 77.5,110.5C 78.3635,111.463 79.0302,111.463 79.5,110.5C 78.0095,109.756 76.5095,109.09 75,108.5C 74.8091,106.292 74.3091,104.292 73.5,102.5C 74.2905,101.599 75.2905,100.932 76.5,100.5C 76.5,101.167 76.8333,101.5 77.5,101.5C 77.56,102.043 77.8933,102.376 78.5,102.5C 80.5336,101.441 82.5336,100.441 84.5,99.5C 85.8333,99.5 87.1667,99.5 88.5,99.5C 91.8689,99.3809 95.2023,99.3809 98.5,99.5C 100.024,102.82 101.024,106.32 101.5,110C 107.681,110.172 113.681,110.672 119.5,111.5C 106.496,111.333 93.4957,111.5 80.5,112C 79.6634,113.011 79.33,114.178 79.5,115.5C 83.5138,115.666 87.5138,115.499 91.5,115C 89.0684,113.913 89.4017,113.413 92.5,113.5C 92.5,113.833 92.5,114.167 92.5,114.5C 94.6674,115.269 96.834,116.269 99,117.5C 100.059,120.883 98.8921,123.05 95.5,124C 96.7659,124.309 97.9326,124.809 99,125.5C 99.3333,133.5 99.6667,141.5 100,149.5C 101.461,150.883 102.294,150.549 102.5,148.5C 103.167,148.5 103.5,148.833 103.5,149.5C 109.257,151.313 115.257,151.813 121.5,151C 122,150.5 122.5,150 123,149.5C 123.333,139.167 123.667,128.833 124,118.5C 128.08,117.7 132.247,117.2 136.5,117C 138.441,115.097 140.774,114.264 143.5,114.5C 143.281,113.325 143.614,112.325 144.5,111.5C 145.995,112.705 147.328,112.705 148.5,111.5C 148.5,111.167 148.5,110.833 148.5,110.5C 151.167,110.5 153.833,110.5 156.5,110.5C 156.519,108.94 156.852,107.44 157.5,106C 154.589,99.6689 150.089,97.8356 144,100.5C 143.242,98.0904 141.575,97.0904 139,97.5C 134.337,96.7385 129.503,96.7385 124.5,97.5C 123.702,97.0431 123.369,96.3764 123.5,95.5C 123.5,92.8333 123.5,90.1667 123.5,87.5C 130.712,87.219 137.878,87.5523 145,88.5C 145.5,88.8333 146,89.1667 146.5,89.5C 145.652,91.4086 145.318,93.4086 145.5,95.5C 146.552,95.6495 147.552,95.4828 148.5,95C 147.724,93.2302 147.89,91.3969 149,89.5C 150.748,91.1352 151.915,93.1352 152.5,95.5C 153.167,95.8333 153.833,96.1667 154.5,96.5C 156.042,93.4137 155.542,90.747 153,88.5C 152.231,85.9009 152.398,83.4009 153.5,81C 150.268,77.076 149.101,72.576 150,67.5C 151,66.1667 152,66.1667 153,67.5C 152.516,76.9676 154.183,77.6342 158,69.5C 159.385,70.5505 160.385,71.8839 161,73.5C 162.049,71.8934 163.549,71.2267 165.5,71.5C 165.201,69.396 165.534,67.396 166.5,65.5C 168.304,67.9799 170.637,69.6465 173.5,70.5C 173.5,71.5 173.5,72.5 173.5,73.5C 175.201,73.9662 176.701,73.9662 178,73.5C 180.113,75.2711 179.947,76.7711 177.5,78C 179.677,79.1861 180.677,81.0194 180.5,83.5C 179.325,83.281 178.325,83.6143 177.5,84.5C 178.847,88.375 180.014,88.375 181,84.5C 182.011,85.3366 183.178,85.67 184.5,85.5C 185.349,95.8233 185.515,106.157 185,116.5C 184.423,120.618 182.923,124.285 180.5,127.5C 179.575,128.641 178.741,128.641 178,127.5C 177.333,125.5 176.667,123.5 176,121.5C 175.667,122.167 175.333,122.833 175,123.5C 174.625,128.009 175.792,132.009 178.5,135.5C 177.199,139.097 176.199,142.764 175.5,146.5C 174.5,146.5 173.5,146.5 172.5,146.5C 172.116,148.929 171.449,151.263 170.5,153.5C 158.326,169.094 142.326,178.261 122.5,181C 115.654,181.821 108.987,181.654 102.5,180.5C 93.4831,177.601 84.4831,174.267 75.5,170.5C 73.4698,168.393 71.3031,166.393 69,164.5C 68.6667,163.5 68.3333,162.5 68,161.5C 67.6667,161.833 67.3333,162.167 67,162.5C 65.1949,160.68 63.0282,159.514 60.5,159C 58.9963,157.509 58.1629,155.676 58,153.5C 56.3035,152.636 55.1368,151.303 54.5,149.5C 53.675,148.614 52.675,148.281 51.5,148.5C 51.6423,144.128 49.809,140.795 46,138.5C 46.122,133.968 44.7887,129.968 42,126.5C 41.6901,118.761 40.8568,111.094 39.5,103.5C 39.8016,97.4837 40.3016,91.4837 41,85.5C 43.7246,80.8262 45.5579,75.8262 46.5,70.5C 48.1775,65.8033 50.8442,61.8033 54.5,58.5C 58.0844,56.915 61.4177,54.915 64.5,52.5C 68.3334,53.2297 70,55.563 69.5,59.5C 71.3464,59.2222 72.6798,59.8888 73.5,61.5C 71.1124,64.4824 71.6124,67.149 75,69.5C 75.3333,72.1667 75.6667,74.8333 76,77.5C 76.3826,78.056 76.8826,78.3893 77.5,78.5 Z M 145.5,67.5 C 145.5,68.1667 145.833,68.5 146.5,68.5C 146.528,73.8617 146.194,79.1951 145.5,84.5C 137.493,84.3336 129.493,84.5003 121.5,85C 120.565,87.3806 120.232,89.8806 120.5,92.5C 120.297,94.3904 120.963,95.8904 122.5,97C 122,97.5 121.5,98 121,98.5C 120.501,102.152 120.335,105.818 120.5,109.5C 114.5,109.5 108.5,109.5 102.5,109.5C 101.167,101.167 101.167,92.8333 102.5,84.5C 93.7489,84.8032 85.0823,84.4699 76.5,83.5C 77.038,81.8828 77.3713,80.2161 77.5,78.5C 77.5,74.8333 77.5,71.1667 77.5,67.5C 100.167,67.5 122.833,67.5 145.5,67.5 Z M 153.5,103.5 C 157.5,105.167 157.5,106.833 153.5,108.5C 153.5,107.167 153.5,105.833 153.5,104.5C 153.5,104.167 153.5,103.833 153.5,103.5 Z M 70.5,104.5 C 70.8333,105.833 71.1667,107.167 71.5,108.5C 68.5311,107.332 68.1978,105.999 70.5,104.5 Z M 102.5,114.5 C 109.508,114.334 116.508,114.5 123.5,115C 122.584,115.374 121.75,115.874 121,116.5C 120.667,127.167 120.333,137.833 120,148.5C 114.593,149.473 109.093,149.807 103.5,149.5C 103.5,148.833 103.167,148.5 102.5,148.5C 103.131,137.078 102.464,125.912 100.5,115C 101.094,114.536 101.761,114.369 102.5,114.5 Z"/></g>
<g><path style="opacity:0.788" fill="#3c8e75" d="M 76.5,83.5 C 85.0823,84.4699 93.7489,84.8032 102.5,84.5C 101.167,92.8333 101.167,101.167 102.5,109.5C 108.5,109.5 114.5,109.5 120.5,109.5C 120.335,105.818 120.501,102.152 121,98.5C 121.5,98 122,97.5 122.5,97C 120.963,95.8904 120.297,94.3904 120.5,92.5C 121.268,91.7375 121.768,90.7375 122,89.5C 122.191,91.7078 122.691,93.7078 123.5,95.5C 123.369,96.3764 123.702,97.0431 124.5,97.5C 129.503,96.7385 134.337,96.7385 139,97.5C 141.575,97.0904 143.242,98.0904 144,100.5C 150.089,97.8356 154.589,99.6689 157.5,106C 156.852,107.44 156.519,108.94 156.5,110.5C 153.833,110.5 151.167,110.5 148.5,110.5C 145.833,110.833 145.833,111.167 148.5,111.5C 147.328,112.705 145.995,112.705 144.5,111.5C 143.614,112.325 143.281,113.325 143.5,114.5C 140.774,114.264 138.441,115.097 136.5,117C 132.247,117.2 128.08,117.7 124,118.5C 123.667,128.833 123.333,139.167 123,149.5C 122.5,150 122,150.5 121.5,151C 115.257,151.813 109.257,151.313 103.5,149.5C 109.093,149.807 114.593,149.473 120,148.5C 120.333,137.833 120.667,127.167 121,116.5C 121.75,115.874 122.584,115.374 123.5,115C 116.508,114.5 109.508,114.334 102.5,114.5C 119.424,114.633 136.091,112.3 152.5,107.5C 152.263,106.209 152.596,105.209 153.5,104.5C 153.5,105.833 153.5,107.167 153.5,108.5C 157.5,106.833 157.5,105.167 153.5,103.5C 152.833,102.167 152.167,102.167 151.5,103.5C 150.778,103.082 150.278,102.416 150,101.5C 149.023,102.774 148.189,102.774 147.5,101.5C 144.964,102.106 142.63,101.44 140.5,99.5C 139.167,98.1667 137.833,98.1667 136.5,99.5C 133.183,98.7791 129.849,98.6124 126.5,99C 124.337,102.123 123.004,105.623 122.5,109.5C 121.482,110.193 120.482,110.859 119.5,111.5C 113.681,110.672 107.681,110.172 101.5,110C 101.024,106.32 100.024,102.82 98.5,99.5C 95.2023,99.3809 91.8689,99.3809 88.5,99.5C 87.1667,98.1667 85.8333,98.1667 84.5,99.5C 82.5336,100.441 80.5336,101.441 78.5,102.5C 77.8933,102.376 77.56,102.043 77.5,101.5C 78.5573,100.794 78.2239,100.461 76.5,100.5C 75.2905,100.932 74.2905,101.599 73.5,102.5C 74.3091,104.292 74.8091,106.292 75,108.5C 76.5095,109.09 78.0095,109.756 79.5,110.5C 79.0302,111.463 78.3635,111.463 77.5,110.5C 77.1667,110.5 76.8333,110.5 76.5,110.5C 73.7132,111.048 71.0465,111.048 68.5,110.5C 66.7892,108.76 65.9558,106.76 66,104.5C 68.4809,100.686 71.9809,98.5189 76.5,98C 84.23,97.7443 91.8967,97.5776 99.5,97.5C 100.433,93.5705 100.766,89.5705 100.5,85.5C 92.0968,86.1335 84.0968,85.4668 76.5,83.5 Z M 153.5,103.5 C 157.5,105.167 157.5,106.833 153.5,108.5C 153.5,107.167 153.5,105.833 153.5,104.5C 153.5,104.167 153.5,103.833 153.5,103.5 Z M 70.5,104.5 C 70.8333,105.833 71.1667,107.167 71.5,108.5C 68.5311,107.332 68.1978,105.999 70.5,104.5 Z"/></g>
<g><path style="opacity:0.651" fill="#359677" d="M 136.5,99.5 C 137.833,99.5 139.167,99.5 140.5,99.5C 142.63,101.44 144.964,102.106 147.5,101.5C 148.189,102.774 149.023,102.774 150,101.5C 150.278,102.416 150.778,103.082 151.5,103.5C 152.167,103.5 152.833,103.5 153.5,103.5C 153.5,103.833 153.5,104.167 153.5,104.5C 152.596,105.209 152.263,106.209 152.5,107.5C 136.091,112.3 119.424,114.633 102.5,114.5C 101.761,114.369 101.094,114.536 100.5,115C 102.464,125.912 103.131,137.078 102.5,148.5C 102.294,150.549 101.461,150.883 100,149.5C 99.6667,141.5 99.3333,133.5 99,125.5C 97.9326,124.809 96.7659,124.309 95.5,124C 98.8921,123.05 100.059,120.883 99,117.5C 96.834,116.269 94.6674,115.269 92.5,114.5C 96.5,114.167 96.5,113.833 92.5,113.5C 89.4017,113.413 89.0684,113.913 91.5,115C 87.5138,115.499 83.5138,115.666 79.5,115.5C 79.33,114.178 79.6634,113.011 80.5,112C 93.4957,111.5 106.496,111.333 119.5,111.5C 120.482,110.859 121.482,110.193 122.5,109.5C 123.004,105.623 124.337,102.123 126.5,99C 129.849,98.6124 133.183,98.7791 136.5,99.5 Z"/></g>
<g><path style="opacity:1" fill="#3d8e73" d="M 46.5,70.5 C 45.5579,75.8262 43.7246,80.8262 41,85.5C 40.3016,91.4837 39.8016,97.4837 39.5,103.5C 40.8568,111.094 41.6901,118.761 42,126.5C 44.7887,129.968 46.122,133.968 46,138.5C 49.809,140.795 51.6423,144.128 51.5,148.5C 52.675,148.281 53.675,148.614 54.5,149.5C 55.1368,151.303 56.3035,152.636 58,153.5C 58.1629,155.676 58.9963,157.509 60.5,159C 63.0282,159.514 65.1949,160.68 67,162.5C 67.3333,162.167 67.6667,161.833 68,161.5C 68.3333,162.5 68.6667,163.5 69,164.5C 71.3031,166.393 73.4698,168.393 75.5,170.5C 84.4831,174.267 93.4831,177.601 102.5,180.5C 67.635,174.472 46.135,154.139 38,119.5C 35.0557,102.166 37.8891,85.8325 46.5,70.5 Z"/></g>
</svg>
