<?xml version="1.0" encoding="UTF-8"?>
<!DOCTYPE svg PUBLIC "-//W3C//DTD SVG 1.1//EN" "http://www.w3.org/Graphics/SVG/1.1/DTD/svg11.dtd">
<svg xmlns="http://www.w3.org/2000/svg" version="1.1" width="138px" height="154px" style="shape-rendering:geometricPrecision; text-rendering:geometricPrecision; image-rendering:optimizeQuality; fill-rule:evenodd; clip-rule:evenodd" xmlns:xlink="http://www.w3.org/1999/xlink">
<g><path style="opacity:1" fill="#fefefe" d="M -0.5,-0.5 C 45.5,-0.5 91.5,-0.5 137.5,-0.5C 137.5,50.8333 137.5,102.167 137.5,153.5C 91.5,153.5 45.5,153.5 -0.5,153.5C -0.5,102.167 -0.5,50.8333 -0.5,-0.5 Z"/></g>
<g><path style="opacity:1" fill="#73bef0" d="M 64.5,15.5 C 69.7315,14.531 73.2315,16.531 75,21.5C 87.4341,42.9321 99.4341,64.5988 111,86.5C 115.12,108.157 108.287,125.324 90.5,138C 65.9193,149.314 45.7526,144.148 30,122.5C 22.7174,109.259 21.7174,95.5919 27,81.5C 39.7279,59.6113 52.2279,37.6113 64.5,15.5 Z"/></g>
<g><path style="opacity:1" fill="#fcfdfe" d="M 65.5,32.5 C 67.288,32.2148 68.9547,32.5481 70.5,33.5C 80.9199,51.3379 91.0865,69.3379 101,87.5C 102.961,94.5257 102.961,101.526 101,108.5C 98.1944,101.733 94.0278,95.8995 88.5,91C 81.4455,86.8061 74.1122,83.1394 66.5,80C 57.043,73.2319 53.543,64.0652 56,52.5C 58.8999,45.7005 62.0665,39.0339 65.5,32.5 Z"/></g>
<g><path style="opacity:1" fill="#fdfefe" d="M 45.5,67.5 C 48.6932,76.537 54.3599,83.7037 62.5,89C 72.1838,92.2568 80.6838,97.4235 88,104.5C 97.0259,121.612 91.8592,131.445 72.5,134C 52.594,134.793 39.7606,125.626 34,106.5C 33.3333,101.5 33.3333,96.5 34,91.5C 37.203,83.1504 41.0363,75.1504 45.5,67.5 Z"/></g>
</svg>
