<?xml version="1.0" encoding="UTF-8"?>
<!DOCTYPE svg PUBLIC "-//W3C//DTD SVG 1.1//EN" "http://www.w3.org/Graphics/SVG/1.1/DTD/svg11.dtd">
<svg xmlns="http://www.w3.org/2000/svg" version="1.1" width="224px" height="218px" style="shape-rendering:geometricPrecision; text-rendering:geometricPrecision; image-rendering:optimizeQuality; fill-rule:evenodd; clip-rule:evenodd" xmlns:xlink="http://www.w3.org/1999/xlink">
<g><path style="opacity:1" fill="#fefefe" d="M -0.5,-0.5 C 74.1667,-0.5 148.833,-0.5 223.5,-0.5C 223.5,72.1667 223.5,144.833 223.5,217.5C 148.833,217.5 74.1667,217.5 -0.5,217.5C -0.5,144.833 -0.5,72.1667 -0.5,-0.5 Z"/></g>
<g><path style="opacity:1" fill="#90ccb7" d="M 122.5,32.5 C 113.134,32.2792 103.801,32.6126 94.5,33.5C 95.2625,32.7321 96.2625,32.2321 97.5,32C 106.01,31.1768 114.344,31.3434 122.5,32.5 Z"/></g>
<g><path style="opacity:1" fill="#2c9f78" d="M 122.5,32.5 C 128.372,33.0735 134.038,34.4068 139.5,36.5C 141.509,38.0652 143.843,39.0652 146.5,39.5C 148.635,41.0709 150.968,42.4043 153.5,43.5C 153.973,44.9063 154.973,45.573 156.5,45.5C 165.6,52.7678 173.1,61.4345 179,71.5C 180.009,73.0249 180.509,74.6916 180.5,76.5C 181.519,81.5524 182.853,86.5524 184.5,91.5C 185.498,99.8068 185.831,108.14 185.5,116.5C 184.999,123.004 183.666,129.337 181.5,135.5C 175.792,147.882 167.459,158.216 156.5,166.5C 154.973,166.427 153.973,167.094 153.5,168.5C 151.973,168.427 150.973,169.094 150.5,170.5C 133.882,179.235 116.215,182.401 97.5,180C 90.9483,177.767 84.6149,175.267 78.5,172.5C 78.0269,171.094 77.0269,170.427 75.5,170.5C 58.405,160.321 47.0717,145.655 41.5,126.5C 40.3081,119.407 39.6414,112.24 39.5,105C 39.8333,101.5 40.1667,98 40.5,94.5C 41.3957,95.5063 42.0623,95.5063 42.5,94.5C 41.9366,93.0615 41.6032,91.5615 41.5,90C 42.8894,86.2795 43.5561,82.4461 43.5,78.5C 51.6789,57.4314 66.3455,43.0981 87.5,35.5C 89.7857,35.405 91.7857,34.7384 93.5,33.5C 93.8333,33.5 94.1667,33.5 94.5,33.5C 103.801,32.6126 113.134,32.2792 122.5,32.5 Z"/></g>
<g><path style="opacity:1" fill="#b4e0d1" d="M 93.5,33.5 C 91.7857,34.7384 89.7857,35.405 87.5,35.5C 89.1016,33.9261 91.1016,33.2594 93.5,33.5 Z"/></g>
<g><path style="opacity:1" fill="#b7e1d3" d="M 139.5,36.5 C 142.491,36.1663 144.824,37.1663 146.5,39.5C 143.843,39.0652 141.509,38.0652 139.5,36.5 Z"/></g>
<g><path style="opacity:1" fill="#b2e0d0" d="M 153.5,43.5 C 155.027,43.427 156.027,44.0937 156.5,45.5C 154.973,45.573 153.973,44.9063 153.5,43.5 Z"/></g>
<g><path style="opacity:1" fill="#ebfcfa" d="M 76.5,67.5 C 99.8333,67.5 123.167,67.5 146.5,67.5C 146.5,73.1667 146.5,78.8333 146.5,84.5C 138.5,84.5 130.5,84.5 122.5,84.5C 129.982,83.508 137.648,83.1746 145.5,83.5C 145.5,78.5 145.5,73.5 145.5,68.5C 122.833,68.5 100.167,68.5 77.5,68.5C 77.5,73.5 77.5,78.5 77.5,83.5C 85.1739,83.3336 92.8406,83.5003 100.5,84C 101.056,84.3826 101.389,84.8826 101.5,85.5C 93.1667,85.5 84.8333,85.5 76.5,85.5C 76.5,79.5 76.5,73.5 76.5,67.5 Z"/></g>
<g><path style="opacity:1" fill="#fdfefe" d="M 122.5,84.5 C 121.833,84.5 121.5,84.8333 121.5,85.5C 121.185,89.3714 121.518,93.0381 122.5,96.5C 121.89,97.391 121.557,98.391 121.5,99.5C 121.5,102.833 121.5,106.167 121.5,109.5C 115.167,109.5 108.833,109.5 102.5,109.5C 102.665,105.818 102.499,102.152 102,98.5C 101.005,97.9341 100.172,97.2674 99.5,96.5C 101.414,93.3157 102.08,89.649 101.5,85.5C 101.389,84.8826 101.056,84.3826 100.5,84C 92.8406,83.5003 85.1739,83.3336 77.5,83.5C 77.5,78.5 77.5,73.5 77.5,68.5C 100.167,68.5 122.833,68.5 145.5,68.5C 145.5,73.5 145.5,78.5 145.5,83.5C 137.648,83.1746 129.982,83.508 122.5,84.5 Z"/></g>
<g><path style="opacity:1" fill="#a8ddcb" d="M 76.5,67.5 C 99.9941,66.5024 123.661,66.1691 147.5,66.5C 147.823,73.0221 147.49,79.3554 146.5,85.5C 138.167,85.5 129.833,85.5 121.5,85.5C 121.5,84.8333 121.833,84.5 122.5,84.5C 130.5,84.5 138.5,84.5 146.5,84.5C 146.5,78.8333 146.5,73.1667 146.5,67.5C 123.167,67.5 99.8333,67.5 76.5,67.5 Z"/></g>
<g><path style="opacity:1" fill="#61ad93" d="M 121.5,85.5 C 129.833,85.5 138.167,85.5 146.5,85.5C 138.684,86.4924 130.684,86.8257 122.5,86.5C 122.5,89.5 122.5,92.5 122.5,95.5C 125.385,95.1936 128.052,95.5269 130.5,96.5C 127.833,96.5 125.167,96.5 122.5,96.5C 121.518,93.0381 121.185,89.3714 121.5,85.5 Z"/></g>
<g><path style="opacity:1" fill="#52a387" d="M 76.5,85.5 C 84.8333,85.5 93.1667,85.5 101.5,85.5C 102.08,89.649 101.414,93.3157 99.5,96.5C 97.8333,96.5 96.1667,96.5 94.5,96.5C 96.2646,95.5386 98.2646,95.2053 100.5,95.5C 100.5,92.5 100.5,89.5 100.5,86.5C 92.3159,86.8257 84.3159,86.4924 76.5,85.5 Z"/></g>
<g><path style="opacity:1" fill="#419a7b" d="M 180.5,76.5 C 184.192,82.9207 186.192,89.9207 186.5,97.5C 186.823,104.022 186.49,110.355 185.5,116.5C 185.831,108.14 185.498,99.8068 184.5,91.5C 182.853,86.5524 181.519,81.5524 180.5,76.5 Z"/></g>
<g><path style="opacity:1" fill="#cdf0e6" d="M 94.5,96.5 C 96.1667,96.5 97.8333,96.5 99.5,96.5C 100.172,97.2674 101.005,97.9341 102,98.5C 102.499,102.152 102.665,105.818 102.5,109.5C 108.833,109.5 115.167,109.5 121.5,109.5C 121.5,109.833 121.5,110.167 121.5,110.5C 114.833,110.5 108.167,110.5 101.5,110.5C 101.5,106.833 101.5,103.167 101.5,99.5C 91.4522,98.8158 81.7856,100.316 72.5,104C 71.1667,105.333 71.1667,106.667 72.5,108C 76.8956,110.299 81.5623,111.466 86.5,111.5C 94.1065,113.027 101.94,113.693 110,113.5C 115.677,113.499 121.177,113.166 126.5,112.5C 129.385,112.806 132.052,112.473 134.5,111.5C 140.399,111.406 146.066,110.239 151.5,108C 152.86,106.062 152.527,104.396 150.5,103C 145.311,101.202 139.978,100.369 134.5,100.5C 130.366,99.5151 126.032,99.1818 121.5,99.5C 121.557,98.391 121.89,97.391 122.5,96.5C 125.167,96.5 127.833,96.5 130.5,96.5C 138.37,97.4784 146.036,99.3117 153.5,102C 157.592,105.819 156.925,108.819 151.5,111C 144.66,113.294 137.66,114.794 130.5,115.5C 127.833,115.5 125.167,115.5 122.5,115.5C 115.167,114.167 107.833,114.167 100.5,115.5C 97.5,115.5 94.5,115.5 91.5,115.5C 84.206,114.76 77.206,112.927 70.5,110C 66.5,107.333 66.5,104.667 70.5,102C 78.0008,98.2754 86.0008,96.442 94.5,96.5 Z"/></g>
<g><path style="opacity:1" fill="#69bda0" d="M 86.5,111.5 C 99.8154,112.333 113.149,112.666 126.5,112.5C 121.177,113.166 115.677,113.499 110,113.5C 101.94,113.693 94.1065,113.027 86.5,111.5 Z"/></g>
<g><path style="opacity:1" fill="#5ba48b" d="M 121.5,99.5 C 126.032,99.1818 130.366,99.5151 134.5,100.5C 130.5,100.5 126.5,100.5 122.5,100.5C 122.81,103.713 122.477,106.713 121.5,109.5C 121.5,106.167 121.5,102.833 121.5,99.5 Z"/></g>
<g><path style="opacity:1" fill="#36a07b" d="M 121.5,110.5 C 125.634,111.485 129.968,111.818 134.5,111.5C 132.052,112.473 129.385,112.806 126.5,112.5C 113.149,112.666 99.8154,112.333 86.5,111.5C 81.5623,111.466 76.8956,110.299 72.5,108C 71.1667,106.667 71.1667,105.333 72.5,104C 81.7856,100.316 91.4522,98.8158 101.5,99.5C 101.5,103.167 101.5,106.833 101.5,110.5C 108.167,110.5 114.833,110.5 121.5,110.5 Z"/></g>
<g><path style="opacity:1" fill="#2e9e78" d="M 134.5,100.5 C 139.978,100.369 145.311,101.202 150.5,103C 152.527,104.396 152.86,106.062 151.5,108C 146.066,110.239 140.399,111.406 134.5,111.5C 129.968,111.818 125.634,111.485 121.5,110.5C 121.5,110.167 121.5,109.833 121.5,109.5C 122.477,106.713 122.81,103.713 122.5,100.5C 126.5,100.5 130.5,100.5 134.5,100.5 Z"/></g>
<g><path style="opacity:1" fill="#fcfefe" d="M 100.5,115.5 C 107.833,114.167 115.167,114.167 122.5,115.5C 122.167,115.5 121.833,115.5 121.5,115.5C 120.813,126.735 120.147,138.068 119.5,149.5C 113.833,149.5 108.167,149.5 102.5,149.5C 102.828,137.988 102.495,126.654 101.5,115.5C 101.167,115.5 100.833,115.5 100.5,115.5 Z"/></g>
<g><path style="opacity:1" fill="#e4fffe" d="M 121.5,115.5 C 121.5,126.833 121.5,138.167 121.5,149.5C 120.833,149.5 120.167,149.5 119.5,149.5C 120.147,138.068 120.813,126.735 121.5,115.5 Z"/></g>
<g><path style="opacity:1" fill="#cbede4" d="M 186.5,97.5 C 187.657,105.656 187.823,113.99 187,122.5C 186,127.376 184.167,131.709 181.5,135.5C 183.666,129.337 184.999,123.004 185.5,116.5C 186.49,110.355 186.823,104.022 186.5,97.5 Z"/></g>
<g><path style="opacity:1" fill="#50a587" d="M 43.5,78.5 C 43.5561,82.4461 42.8894,86.2795 41.5,90C 41.6032,91.5615 41.9366,93.0615 42.5,94.5C 42.0623,95.5063 41.3957,95.5063 40.5,94.5C 40.1667,98 39.8333,101.5 39.5,105C 39.6414,112.24 40.3081,119.407 41.5,126.5C 36.869,113.809 36.369,100.809 40,87.5C 40.5053,84.135 41.672,81.135 43.5,78.5 Z"/></g>
<g><path style="opacity:1" fill="#45997b" d="M 91.5,115.5 C 94.5,115.5 97.5,115.5 100.5,115.5C 100.833,115.5 101.167,115.5 101.5,115.5C 101.5,126.833 101.5,138.167 101.5,149.5C 100.505,138.679 100.172,127.679 100.5,116.5C 97.2869,116.81 94.2869,116.477 91.5,115.5 Z"/></g>
<g><path style="opacity:1" fill="#65aa93" d="M 121.5,115.5 C 121.833,115.5 122.167,115.5 122.5,115.5C 125.167,115.5 127.833,115.5 130.5,115.5C 128.052,116.473 125.385,116.806 122.5,116.5C 122.828,127.679 122.495,138.679 121.5,149.5C 121.5,138.167 121.5,126.833 121.5,115.5 Z"/></g>
<g><path style="opacity:1" fill="#a3dfcb" d="M 101.5,115.5 C 102.495,126.654 102.828,137.988 102.5,149.5C 108.167,149.5 113.833,149.5 119.5,149.5C 120.167,149.5 120.833,149.5 121.5,149.5C 114.833,150.833 108.167,150.833 101.5,149.5C 101.5,138.167 101.5,126.833 101.5,115.5 Z"/></g>
<g><path style="opacity:1" fill="#b5e5d4" d="M 156.5,166.5 C 156.027,167.906 155.027,168.573 153.5,168.5C 153.973,167.094 154.973,166.427 156.5,166.5 Z"/></g>
<g><path style="opacity:1" fill="#b3e5d4" d="M 153.5,168.5 C 153.027,169.906 152.027,170.573 150.5,170.5C 150.973,169.094 151.973,168.427 153.5,168.5 Z"/></g>
<g><path style="opacity:1" fill="#8bccb5" d="M 75.5,170.5 C 77.0269,170.427 78.0269,171.094 78.5,172.5C 76.9731,172.573 75.9731,171.906 75.5,170.5 Z"/></g>
</svg>
