<?xml version="1.0" encoding="UTF-8"?>
<!DOCTYPE svg PUBLIC "-//W3C//DTD SVG 1.1//EN" "http://www.w3.org/Graphics/SVG/1.1/DTD/svg11.dtd">
<svg xmlns="http://www.w3.org/2000/svg" version="1.1" width="630px" height="653px" style="shape-rendering:geometricPrecision; text-rendering:geometricPrecision; image-rendering:optimizeQuality; fill-rule:evenodd; clip-rule:evenodd" xmlns:xlink="http://www.w3.org/1999/xlink">
<g><path style="opacity:0.73" fill="#1c1b1e" d="M 325.5,90.5 C 332.055,90.2862 338.388,91.1195 344.5,93C 357.12,96.9283 369.786,100.762 382.5,104.5C 383.41,106.501 382.577,107.835 380,108.5C 375.12,108.916 370.286,108.249 365.5,106.5C 365.853,104.365 365.02,103.032 363,102.5C 356.973,104.714 351.973,103.38 348,98.5C 340.16,101.389 334.327,99.2219 330.5,92C 328.284,91.6066 326.284,92.1066 324.5,93.5C 324.557,92.391 324.89,91.391 325.5,90.5 Z"/></g>
<g><path style="opacity:1" fill="#111013" d="M 325.5,90.5 C 324.89,91.391 324.557,92.391 324.5,93.5C 319.396,93.3367 314.396,94.0034 309.5,95.5C 295.134,95.3855 280.801,95.0522 266.5,94.5C 263.105,94.653 260.272,95.9864 258,98.5C 257.586,98.0426 257.086,97.7093 256.5,97.5C 255.197,100.379 253.197,101.045 250.5,99.5C 249.094,100.951 247.594,102.284 246,103.5C 246.263,102.049 246.096,100.716 245.5,99.5C 241.914,100.936 238.414,102.603 235,104.5C 231.983,103.034 229.15,103.367 226.5,105.5C 224.423,104.063 222.09,103.396 219.5,103.5C 219.675,105.621 219.341,107.621 218.5,109.5C 217.542,109.047 216.708,108.381 216,107.5C 213.272,109.892 210.272,111.892 207,113.5C 206.767,115.78 205.934,117.78 204.5,119.5C 202.328,120.205 200.328,121.205 198.5,122.5C 196.689,120.838 195.022,120.672 193.5,122C 194.167,122.333 194.833,122.667 195.5,123C 193.392,123.36 191.392,124.027 189.5,125C 188.538,127.594 186.871,129.594 184.5,131C 182.507,130.768 180.674,130.935 179,131.5C 175.172,127.269 172.339,127.936 170.5,133.5C 169.127,133.343 167.793,133.51 166.5,134C 160.143,137.111 154.81,141.444 150.5,147C 146.873,147.628 145.04,149.795 145,153.5C 142.986,155.845 140.653,157.845 138,159.5C 137.517,160.448 137.351,161.448 137.5,162.5C 134.635,162.035 131.968,161.035 129.5,159.5C 135.302,154.53 140.635,149.03 145.5,143C 156.126,135.042 166.459,126.709 176.5,118C 180.327,116.254 183.993,114.254 187.5,112C 198.691,109.24 209.358,105.073 219.5,99.5C 253.952,87.5138 289.285,84.5138 325.5,90.5 Z"/></g>
<g><path style="opacity:0.407" fill="#1e1e1f" d="M 386.5,106.5 C 392.296,109.062 398.296,111.062 404.5,112.5C 401.847,114.146 399.514,116.146 397.5,118.5C 394.625,117.097 391.625,116.097 388.5,115.5C 387.614,114.675 387.281,113.675 387.5,112.5C 385.042,112.773 383.375,111.773 382.5,109.5C 383.624,108.141 384.958,107.141 386.5,106.5 Z"/></g>
<g><path style="opacity:1" fill="#300c18" d="M 336.5,109.5 C 342.871,109.488 349.204,109.988 355.5,111C 357.487,113.47 357.987,116.303 357,119.5C 356.25,120.126 355.416,120.626 354.5,121C 346.089,121.197 337.755,121.697 329.5,122.5C 328.167,122.5 326.833,122.5 325.5,122.5C 326.263,121.732 327.263,121.232 328.5,121C 336.183,120.1 343.85,119.267 351.5,118.5C 352.76,116.647 352.76,114.814 351.5,113C 346.917,111.855 342.251,111.189 337.5,111C 336.944,110.617 336.611,110.117 336.5,109.5 Z"/></g>
<g><path style="opacity:1" fill="#25020d" d="M 247.5,110.5 C 242.349,111.327 237.016,111.827 231.5,112C 222.719,114.862 214.052,118.028 205.5,121.5C 207.42,118.591 210.087,116.424 213.5,115C 218.84,114.749 223.84,113.416 228.5,111C 234.825,110.5 241.158,110.334 247.5,110.5 Z"/></g>
<g><path style="opacity:1" fill="#120007" d="M 315.5,105.5 C 295.444,103.756 275.444,104.256 255.5,107C 252.691,108.093 250.024,109.26 247.5,110.5C 241.158,110.334 234.825,110.5 228.5,111C 223.84,113.416 218.84,114.749 213.5,115C 210.087,116.424 207.42,118.591 205.5,121.5C 196.775,126.371 188.108,131.538 179.5,137C 171.804,145.14 163.47,152.307 154.5,158.5C 147.607,160.589 142.607,164.922 139.5,171.5C 131.741,179.581 125.907,188.915 122,199.5C 114.7,206.768 110.033,215.435 108,225.5C 107.303,227.584 106.136,229.251 104.5,230.5C 104.85,227.278 105.517,224.112 106.5,221C 106.355,219.774 106.022,218.607 105.5,217.5C 109.546,210.55 114.046,203.883 119,197.5C 119.356,193.854 120.189,190.354 121.5,187C 120.833,186.667 120.167,186.333 119.5,186C 123.054,185.485 125.554,183.651 127,180.5C 130.221,177.145 133.721,174.145 137.5,171.5C 140.515,163.314 146.182,158.147 154.5,156C 156,153.167 158.167,151 161,149.5C 160.416,147.3 160.582,145.133 161.5,143C 163.271,142.963 165.104,143.13 167,143.5C 170.82,143.013 172.987,140.847 173.5,137C 172.837,135.482 171.837,134.315 170.5,133.5C 172.339,127.936 175.172,127.269 179,131.5C 180.674,130.935 182.507,130.768 184.5,131C 186.871,129.594 188.538,127.594 189.5,125C 191.392,124.027 193.392,123.36 195.5,123C 194.833,122.667 194.167,122.333 193.5,122C 195.022,120.672 196.689,120.838 198.5,122.5C 200.328,121.205 202.328,120.205 204.5,119.5C 205.934,117.78 206.767,115.78 207,113.5C 210.272,111.892 213.272,109.892 216,107.5C 216.708,108.381 217.542,109.047 218.5,109.5C 219.695,109.678 220.862,110.011 222,110.5C 235.394,109.266 248.56,107.099 261.5,104C 279.715,101.935 297.715,102.435 315.5,105.5 Z"/></g>
<g><path style="opacity:1" fill="#160109" d="M 325.5,122.5 C 326.833,122.5 328.167,122.5 329.5,122.5C 319.156,125.385 308.49,127.552 297.5,129C 294.23,130.745 291.23,132.911 288.5,135.5C 283.759,136.211 279.093,137.211 274.5,138.5C 270.456,141.133 266.123,143.3 261.5,145C 259.208,146.29 257.208,147.957 255.5,150C 252.167,151 248.833,152 245.5,153C 244.743,154.512 243.743,155.846 242.5,157C 236.984,158.494 231.818,160.661 227,163.5C 223.113,167.057 218.946,170.223 214.5,173C 213.214,175.022 212.214,177.189 211.5,179.5C 205.243,184.252 199.41,189.585 194,195.5C 192.687,199.205 193.854,201.538 197.5,202.5C 195.186,204.644 193.853,207.31 193.5,210.5C 191.336,210.721 189.67,211.721 188.5,213.5C 186.319,213.716 184.653,212.883 183.5,211C 182.167,210.333 180.833,210.333 179.5,211C 177.297,215.046 175.297,219.213 173.5,223.5C 173.043,224.298 172.376,224.631 171.5,224.5C 173.633,219.985 175.466,215.319 177,210.5C 192.072,193.806 207.905,177.973 224.5,163C 232.03,159.459 239.03,155.126 245.5,150C 252.393,148.221 258.393,144.888 263.5,140C 283.228,131.038 303.894,125.204 325.5,122.5 Z"/></g>
<g><path style="opacity:0.973" fill="#040305" d="M 382.5,104.5 C 383.833,105.167 385.167,105.833 386.5,106.5C 384.958,107.141 383.624,108.141 382.5,109.5C 383.375,111.773 385.042,112.773 387.5,112.5C 387.281,113.675 387.614,114.675 388.5,115.5C 391.625,116.097 394.625,117.097 397.5,118.5C 399.514,116.146 401.847,114.146 404.5,112.5C 417.208,117.859 429.208,124.526 440.5,132.5C 454.666,140.749 468.333,149.749 481.5,159.5C 497.866,174.199 513.199,189.866 527.5,206.5C 530.057,212.817 533.057,218.817 536.5,224.5C 534.855,225.479 533.521,226.812 532.5,228.5C 534.935,235.39 537.602,242.223 540.5,249C 540.833,249.5 541.167,250 541.5,250.5C 542.609,249.41 543.609,249.41 544.5,250.5C 543.515,252.098 543.349,253.765 544,255.5C 545.507,254.465 547.007,254.632 548.5,256C 546.187,256.641 544.52,257.974 543.5,260C 543.667,260.5 543.833,261 544,261.5C 544.508,259.096 545.675,258.429 547.5,259.5C 548.228,262.802 548.395,266.135 548,269.5C 548.414,269.043 548.914,268.709 549.5,268.5C 550.737,274.892 552.904,280.892 556,286.5C 557.709,295.42 558.709,304.42 559,313.5C 560.583,313.493 562.249,313.826 564,314.5C 564.648,309.796 564.481,305.129 563.5,300.5C 564.222,300.918 564.722,301.584 565,302.5C 565.185,313.235 566.019,323.901 567.5,334.5C 566.088,343.085 565.254,351.752 565,360.5C 563.193,368.351 561.693,376.351 560.5,384.5C 556.032,399.136 550.532,413.469 544,427.5C 536.959,436.646 531.459,446.646 527.5,457.5C 523.524,462.977 519.358,468.31 515,473.5C 502.989,484.677 490.823,495.677 478.5,506.5C 462.997,518.085 445.997,526.751 427.5,532.5C 427.611,531.883 427.944,531.383 428.5,531C 426.493,529.783 424.326,528.949 422,528.5C 418.857,529.107 415.69,529.441 412.5,529.5C 411.522,535.81 408.355,537.144 403,533.5C 399.119,534.677 395.119,535.677 391,536.5C 386.81,535.421 382.644,535.421 378.5,536.5C 379.025,537.192 379.692,537.692 380.5,538C 378.101,538.711 375.768,538.544 373.5,537.5C 370.397,537.923 367.564,538.923 365,540.5C 364.667,540.167 364.333,539.833 364,539.5C 358.486,540.403 352.986,541.57 347.5,543C 345.923,545.217 344.256,547.383 342.5,549.5C 336.195,550.793 329.862,551.96 323.5,553C 312.675,553.023 302.008,553.69 291.5,555C 275.167,555.667 258.833,555.667 242.5,555C 208.477,554.18 174.81,549.847 141.5,542C 124.877,536.124 108.543,529.457 92.5,522C 83.1915,513.402 81.1915,503.236 86.5,491.5C 92.8238,484.188 100.49,479.188 109.5,476.5C 108.465,478.569 109.132,480.235 111.5,481.5C 119.445,478.981 127.445,476.648 135.5,474.5C 139.761,473.949 143.928,473.949 148,474.5C 154.472,469.323 154.972,463.656 149.5,457.5C 151.011,455.162 150.677,454.496 148.5,455.5C 146.246,454.286 145.913,452.619 147.5,450.5C 150.237,449.787 152.904,449.787 155.5,450.5C 157.105,456.248 160.771,459.748 166.5,461C 168.379,465.956 171.712,469.456 176.5,471.5C 179.833,472.833 183.167,472.833 186.5,471.5C 187.531,470.3 188.365,468.966 189,467.5C 189.333,468.5 189.667,469.5 190,470.5C 189.952,468.074 190.119,465.741 190.5,463.5C 185.853,459.025 182.686,453.692 181,447.5C 178.96,444.719 177.293,441.719 176,438.5C 165.581,430.985 160.248,420.652 160,407.5C 159.333,406.833 158.667,406.167 158,405.5C 156.833,401.833 155.666,398.166 154.5,394.5C 151.445,392.74 149.612,390.073 149,386.5C 144.629,384.731 140.462,382.564 136.5,380C 134.19,379.503 131.857,379.337 129.5,379.5C 127.807,377.398 125.641,375.732 123,374.5C 121.402,366.244 123.568,365.411 129.5,372C 133.89,372.772 138.223,372.606 142.5,371.5C 141.578,357.483 141.578,343.317 142.5,329C 141.898,323.176 141.398,317.342 141,311.5C 138.278,308.862 135.111,306.862 131.5,305.5C 130.038,302.87 128.371,300.37 126.5,298C 127.5,297.333 128.5,297.333 129.5,298C 132.762,299.429 135.929,300.929 139,302.5C 144.815,297.932 147.315,291.932 146.5,284.5C 147.74,279.588 148.573,274.588 149,269.5C 155.298,253.688 162.798,238.688 171.5,224.5C 172.376,224.631 173.043,224.298 173.5,223.5C 175.297,219.213 177.297,215.046 179.5,211C 180.833,210.333 182.167,210.333 183.5,211C 184.653,212.883 186.319,213.716 188.5,213.5C 188.649,214.552 188.483,215.552 188,216.5C 185.667,218.167 183.667,220.167 182,222.5C 178.71,229.019 175.043,235.352 171,241.5C 171.229,245.879 169.896,249.546 167,252.5C 167.133,257.354 165.467,261.354 162,264.5C 160.483,271.52 158.983,278.52 157.5,285.5C 159.718,285.386 161.718,284.72 163.5,283.5C 162.524,288.145 161.191,292.478 159.5,296.5C 158.389,295.34 157.389,294.007 156.5,292.5C 155.614,293.325 155.281,294.325 155.5,295.5C 154.5,295.5 153.5,295.5 152.5,295.5C 152.426,308.619 151.426,321.619 149.5,334.5C 150.856,349.908 153.19,365.075 156.5,380C 156.306,381.86 155.972,383.693 155.5,385.5C 158.904,389.236 161.404,393.569 163,398.5C 163.317,396.699 163.984,396.366 165,397.5C 166.067,396.809 167.234,396.309 168.5,396C 167.944,395.617 167.611,395.117 167.5,394.5C 170.018,399.693 172.518,405.027 175,410.5C 175.49,411.793 175.657,413.127 175.5,414.5C 173.191,415.388 171.524,417.054 170.5,419.5C 171.189,421.444 171.689,423.444 172,425.5C 174.897,430.411 177.73,435.411 180.5,440.5C 182.045,441.452 183.712,441.785 185.5,441.5C 186.527,446.052 189.027,449.718 193,452.5C 194.128,454.345 194.628,456.345 194.5,458.5C 195.5,458.5 196.5,458.5 197.5,458.5C 199.361,460.745 200.361,463.412 200.5,466.5C 201.5,466.5 202.5,466.5 203.5,466.5C 203.5,467.5 203.5,468.5 203.5,469.5C 205.911,469.137 207.411,470.137 208,472.5C 210.381,471.565 212.881,471.232 215.5,471.5C 236.413,488.448 258.746,503.115 282.5,515.5C 280.742,518.374 281.408,520.541 284.5,522C 290.207,522.629 295.541,524.296 300.5,527C 308.833,527.333 317.167,527.667 325.5,528C 326.745,528.791 328.078,529.291 329.5,529.5C 354.547,529.392 379.547,528.392 404.5,526.5C 404.5,525.5 404.5,524.5 404.5,523.5C 408.534,523.328 412.534,522.828 416.5,522C 425.821,517.391 435.154,512.891 444.5,508.5C 449.537,504.476 454.87,500.809 460.5,497.5C 457.879,495.128 458.212,494.462 461.5,495.5C 466.887,492.631 472.221,489.465 477.5,486C 478.38,484.644 478.714,483.144 478.5,481.5C 480.827,481.753 482.827,481.086 484.5,479.5C 490.997,473.258 496.997,466.592 502.5,459.5C 504.5,458.5 506.5,457.5 508.5,456.5C 510.407,451.125 512.907,446.125 516,441.5C 526.452,433.028 531.452,422.028 531,408.5C 535.276,411.387 536.11,410.72 533.5,406.5C 534.528,404.639 536.028,403.305 538,402.5C 540.714,395.463 542.881,388.296 544.5,381C 543.978,380.439 543.645,379.772 543.5,379C 547.371,370.864 549.038,362.198 548.5,353C 548.167,349.833 547.833,346.667 547.5,343.5C 546.713,342.758 546.047,341.925 545.5,341C 546.131,339.094 546.464,337.094 546.5,335C 546.453,332.705 545.787,330.871 544.5,329.5C 544.5,329.167 544.5,328.833 544.5,328.5C 545.117,328.389 545.617,328.056 546,327.5C 546.333,322.833 546.667,318.167 547,313.5C 548.927,311.407 548.76,309.407 546.5,307.5C 547.167,306.833 547.833,306.167 548.5,305.5C 547.732,301.555 547.232,297.555 547,293.5C 545.5,291.167 544,288.833 542.5,286.5C 543.585,283.227 543.752,279.894 543,276.5C 542,275.833 541,275.167 540,274.5C 539.78,269.64 538.947,264.973 537.5,260.5C 537.59,258.772 537.923,257.106 538.5,255.5C 535.067,250.204 532.4,244.537 530.5,238.5C 531.471,237.038 531.138,235.705 529.5,234.5C 528.137,235.879 527.137,235.713 526.5,234C 525.305,232.467 525.305,230.967 526.5,229.5C 525.147,228.476 524.48,227.143 524.5,225.5C 518.541,226.138 517.541,224.638 521.5,221C 518.921,217.395 515.588,215.062 511.5,214C 508.71,209.214 505.543,204.714 502,200.5C 499.23,199.385 496.73,197.885 494.5,196C 492.372,194.333 491.039,192.166 490.5,189.5C 489.476,188.147 488.143,187.48 486.5,187.5C 486.682,185.409 486.348,183.409 485.5,181.5C 482.129,179.768 478.796,178.101 475.5,176.5C 474.198,173.421 472.698,170.421 471,167.5C 469.386,164.398 467.553,164.064 465.5,166.5C 464.548,168.045 464.215,169.712 464.5,171.5C 465.93,171.579 467.264,171.246 468.5,170.5C 469.731,171.651 469.731,172.817 468.5,174C 469.448,174.483 470.448,174.649 471.5,174.5C 471.567,175.959 471.234,177.292 470.5,178.5C 440.078,157.48 406.745,144.146 370.5,138.5C 370.389,137.883 370.056,137.383 369.5,137C 371.134,136.506 372.801,136.34 374.5,136.5C 374.439,133.95 373.106,132.45 370.5,132C 355.833,131.333 341.167,131.333 326.5,132C 325.058,132.377 324.058,133.21 323.5,134.5C 315.777,134.024 308.61,135.691 302,139.5C 300.274,138.424 298.441,138.257 296.5,139C 292.557,140.223 288.89,141.89 285.5,144C 283.167,144.333 280.833,144.667 278.5,145C 273.68,147.243 269.013,149.743 264.5,152.5C 262.577,153.308 260.577,153.808 258.5,154C 257.663,155.011 257.33,156.178 257.5,157.5C 252.142,157.621 247.142,158.955 242.5,161.5C 239.341,164.218 236.007,166.718 232.5,169C 231.663,170.011 231.33,171.178 231.5,172.5C 226.922,174.74 222.589,177.407 218.5,180.5C 214.277,187.561 208.777,193.561 202,198.5C 201.51,199.793 201.343,201.127 201.5,202.5C 200.167,202.5 198.833,202.5 197.5,202.5C 193.854,201.538 192.687,199.205 194,195.5C 199.41,189.585 205.243,184.252 211.5,179.5C 212.214,177.189 213.214,175.022 214.5,173C 218.946,170.223 223.113,167.057 227,163.5C 231.818,160.661 236.984,158.494 242.5,157C 243.743,155.846 244.743,154.512 245.5,153C 248.833,152 252.167,151 255.5,150C 257.208,147.957 259.208,146.29 261.5,145C 266.123,143.3 270.456,141.133 274.5,138.5C 279.093,137.211 283.759,136.211 288.5,135.5C 291.23,132.911 294.23,130.745 297.5,129C 308.49,127.552 319.156,125.385 329.5,122.5C 337.755,121.697 346.089,121.197 354.5,121C 355.416,120.626 356.25,120.126 357,119.5C 357.987,116.303 357.487,113.47 355.5,111C 349.204,109.988 342.871,109.488 336.5,109.5C 329.261,109.128 322.261,107.795 315.5,105.5C 297.715,102.435 279.715,101.935 261.5,104C 248.56,107.099 235.394,109.266 222,110.5C 220.862,110.011 219.695,109.678 218.5,109.5C 219.341,107.621 219.675,105.621 219.5,103.5C 222.09,103.396 224.423,104.063 226.5,105.5C 229.15,103.367 231.983,103.034 235,104.5C 238.414,102.603 241.914,100.936 245.5,99.5C 246.096,100.716 246.263,102.049 246,103.5C 247.594,102.284 249.094,100.951 250.5,99.5C 253.197,101.045 255.197,100.379 256.5,97.5C 257.086,97.7093 257.586,98.0426 258,98.5C 260.272,95.9864 263.105,94.653 266.5,94.5C 280.801,95.0522 295.134,95.3855 309.5,95.5C 314.396,94.0034 319.396,93.3367 324.5,93.5C 326.284,92.1066 328.284,91.6066 330.5,92C 334.327,99.2219 340.16,101.389 348,98.5C 351.973,103.38 356.973,104.714 363,102.5C 365.02,103.032 365.853,104.365 365.5,106.5C 370.286,108.249 375.12,108.916 380,108.5C 382.577,107.835 383.41,106.501 382.5,104.5 Z"/></g>
<g><path style="opacity:0.404" fill="#252128" d="M 370.5,138.5 C 356.5,138.5 342.5,138.5 328.5,138.5C 326.539,137.54 324.873,136.207 323.5,134.5C 324.058,133.21 325.058,132.377 326.5,132C 341.167,131.333 355.833,131.333 370.5,132C 373.106,132.45 374.439,133.95 374.5,136.5C 372.801,136.34 371.134,136.506 369.5,137C 370.056,137.383 370.389,137.883 370.5,138.5 Z"/></g>
<g><path style="opacity:1" fill="#280112" d="M 154.5,158.5 C 149.727,163.06 144.727,167.393 139.5,171.5C 142.607,164.922 147.607,160.589 154.5,158.5 Z"/></g>
<g><path style="opacity:0.676" fill="#111113" d="M 544.5,328.5 C 544.784,315.586 543.118,302.919 539.5,290.5C 533.566,274.363 528.066,258.029 523,241.5C 515.321,229.469 507.154,217.802 498.5,206.5C 489.822,199.654 482.322,191.654 476,182.5C 473.833,181.512 472,180.179 470.5,178.5C 471.234,177.292 471.567,175.959 471.5,174.5C 470.448,174.649 469.448,174.483 468.5,174C 469.731,172.817 469.731,171.651 468.5,170.5C 467.264,171.246 465.93,171.579 464.5,171.5C 464.215,169.712 464.548,168.045 465.5,166.5C 467.553,164.064 469.386,164.398 471,167.5C 472.698,170.421 474.198,173.421 475.5,176.5C 478.796,178.101 482.129,179.768 485.5,181.5C 486.348,183.409 486.682,185.409 486.5,187.5C 488.143,187.48 489.476,188.147 490.5,189.5C 491.039,192.166 492.372,194.333 494.5,196C 496.73,197.885 499.23,199.385 502,200.5C 505.543,204.714 508.71,209.214 511.5,214C 515.588,215.062 518.921,217.395 521.5,221C 517.541,224.638 518.541,226.138 524.5,225.5C 524.48,227.143 525.147,228.476 526.5,229.5C 525.305,230.967 525.305,232.467 526.5,234C 527.137,235.713 528.137,235.879 529.5,234.5C 531.138,235.705 531.471,237.038 530.5,238.5C 532.4,244.537 535.067,250.204 538.5,255.5C 537.923,257.106 537.59,258.772 537.5,260.5C 538.947,264.973 539.78,269.64 540,274.5C 541,275.167 542,275.833 543,276.5C 543.752,279.894 543.585,283.227 542.5,286.5C 544,288.833 545.5,291.167 547,293.5C 547.232,297.555 547.732,301.555 548.5,305.5C 547.833,306.167 547.167,306.833 546.5,307.5C 548.76,309.407 548.927,311.407 547,313.5C 546.667,318.167 546.333,322.833 546,327.5C 545.617,328.056 545.117,328.389 544.5,328.5 Z"/></g>
<g><path style="opacity:1" fill="#40051c" d="M 315.5,105.5 C 322.261,107.795 329.261,109.128 336.5,109.5C 336.611,110.117 336.944,110.617 337.5,111C 342.251,111.189 346.917,111.855 351.5,113C 352.76,114.814 352.76,116.647 351.5,118.5C 343.85,119.267 336.183,120.1 328.5,121C 327.263,121.232 326.263,121.732 325.5,122.5C 303.894,125.204 283.228,131.038 263.5,140C 258.393,144.888 252.393,148.221 245.5,150C 239.03,155.126 232.03,159.459 224.5,163C 207.905,177.973 192.072,193.806 177,210.5C 175.466,215.319 173.633,219.985 171.5,224.5C 162.798,238.688 155.298,253.688 149,269.5C 148.573,274.588 147.74,279.588 146.5,284.5C 145.633,288.907 143.966,293.074 141.5,297C 138.167,297.667 134.833,297.667 131.5,297C 118.679,290.759 106.346,283.759 94.5,276C 93.8778,274.431 93.5445,272.764 93.5,271C 93.336,268.456 94.0027,266.29 95.5,264.5C 96.8859,252.686 99.8859,241.352 104.5,230.5C 106.136,229.251 107.303,227.584 108,225.5C 110.033,215.435 114.7,206.768 122,199.5C 125.907,188.915 131.741,179.581 139.5,171.5C 144.727,167.393 149.727,163.06 154.5,158.5C 163.47,152.307 171.804,145.14 179.5,137C 188.108,131.538 196.775,126.371 205.5,121.5C 214.052,118.028 222.719,114.862 231.5,112C 237.016,111.827 242.349,111.327 247.5,110.5C 250.024,109.26 252.691,108.093 255.5,107C 275.444,104.256 295.444,103.756 315.5,105.5 Z"/></g>
<g><path style="opacity:1" fill="#a32356" d="M 202.5,175.5 C 197.55,180.787 192.55,186.12 187.5,191.5C 183.836,197.153 179.836,202.487 175.5,207.5C 173.794,209.612 172.461,211.945 171.5,214.5C 171.338,212.473 171.505,210.473 172,208.5C 180.082,199.312 187.915,189.979 195.5,180.5C 197.648,178.485 199.981,176.818 202.5,175.5 Z"/></g>
<g><path style="opacity:1" fill="#cf2c6d" d="M 274.5,129.5 C 268.937,132.98 262.937,135.814 256.5,138C 253.482,140.889 250.148,143.056 246.5,144.5C 245.508,144.328 244.842,144.662 244.5,145.5C 243.127,145.343 241.793,145.51 240.5,146C 233.451,150.856 226.118,155.189 218.5,159C 214.197,163.182 210.53,167.682 207.5,172.5C 205.589,173.075 203.922,174.075 202.5,175.5C 199.981,176.818 197.648,178.485 195.5,180.5C 187.915,189.979 180.082,199.312 172,208.5C 171.505,210.473 171.338,212.473 171.5,214.5C 169.204,216.401 167.371,218.734 166,221.5C 162.418,229.967 158.251,237.967 153.5,245.5C 153.19,239.125 155.357,233.791 160,229.5C 159.691,223.736 161.691,219.069 166,215.5C 166.06,210.61 167.06,205.943 169,201.5C 170.494,202.747 171.994,202.747 173.5,201.5C 177.552,196.954 181.386,192.287 185,187.5C 187.181,184.786 189.847,182.786 193,181.5C 194.439,179.725 195.439,177.725 196,175.5C 199.028,174.383 201.695,172.716 204,170.5C 204.598,167.692 205.765,165.192 207.5,163C 212.039,159.331 217.039,156.165 222.5,153.5C 221.975,152.808 221.308,152.308 220.5,152C 224.186,151.441 227.853,150.774 231.5,150C 240.886,143.816 250.886,138.816 261.5,135C 265.115,131.571 269.449,129.738 274.5,129.5 Z"/></g>
<g><path style="opacity:1" fill="#6b0d33" d="M 252.5,143.5 C 242.556,150.146 232.222,156.313 221.5,162C 211.635,171.033 201.969,180.2 192.5,189.5C 197.708,184.134 202.708,178.467 207.5,172.5C 209.762,169.599 212.596,167.266 216,165.5C 216.346,163.152 217.513,161.319 219.5,160C 223.984,158.586 228.317,156.919 232.5,155C 236.421,151.561 240.421,148.394 244.5,145.5C 244.842,144.662 245.508,144.328 246.5,144.5C 248.435,143.85 250.435,143.517 252.5,143.5 Z"/></g>
<g><path style="opacity:1" fill="#861844" d="M 207.5,172.5 C 202.708,178.467 197.708,184.134 192.5,189.5C 187.621,196.051 181.954,202.051 175.5,207.5C 179.836,202.487 183.836,197.153 187.5,191.5C 192.55,186.12 197.55,180.787 202.5,175.5C 203.922,174.075 205.589,173.075 207.5,172.5 Z"/></g>
<g><path style="opacity:1" fill="#e72673" d="M 283.5,125.5 C 280.432,126.729 277.432,128.062 274.5,129.5C 269.449,129.738 265.115,131.571 261.5,135C 250.886,138.816 240.886,143.816 231.5,150C 227.853,150.774 224.186,151.441 220.5,152C 221.308,152.308 221.975,152.808 222.5,153.5C 217.039,156.165 212.039,159.331 207.5,163C 205.765,165.192 204.598,167.692 204,170.5C 201.695,172.716 199.028,174.383 196,175.5C 195.439,177.725 194.439,179.725 193,181.5C 189.847,182.786 187.181,184.786 185,187.5C 181.386,192.287 177.552,196.954 173.5,201.5C 171.994,202.747 170.494,202.747 169,201.5C 167.06,205.943 166.06,210.61 166,215.5C 161.691,219.069 159.691,223.736 160,229.5C 155.357,233.791 153.19,239.125 153.5,245.5C 153.167,245.5 152.833,245.5 152.5,245.5C 149.542,248.06 147.042,251.06 145,254.5C 143.581,260.427 141.581,266.093 139,271.5C 138.002,277.487 137.168,283.487 136.5,289.5C 132.855,290.32 130.522,288.987 129.5,285.5C 127.577,284.692 125.577,284.192 123.5,284C 120.921,282.315 118.588,280.481 116.5,278.5C 116.137,276.089 117.137,274.589 119.5,274C 115.915,273.267 112.249,272.767 108.5,272.5C 104.76,269.324 103.594,265.324 105,260.5C 107.805,255.181 111.305,250.514 115.5,246.5C 115.163,243.172 114.83,239.839 114.5,236.5C 116.623,229.919 118.456,223.252 120,216.5C 122.938,213.758 125.438,210.758 127.5,207.5C 128.189,205.556 128.689,203.556 129,201.5C 134.283,197.405 137.116,192.072 137.5,185.5C 140.428,184.516 143.428,184.183 146.5,184.5C 146.905,180.43 148.905,177.43 152.5,175.5C 154.118,179.434 156.118,179.934 158.5,177C 155.987,173.623 154.987,169.79 155.5,165.5C 166.224,158.582 176.224,150.415 185.5,141C 192.344,137.748 199.344,134.748 206.5,132C 211.609,127.541 217.609,124.875 224.5,124C 225.381,123.292 226.047,122.458 226.5,121.5C 227.59,120.143 228.924,119.143 230.5,118.5C 236.369,118.28 242.203,118.614 248,119.5C 254.328,116.96 260.828,115.127 267.5,114C 281.512,113.167 295.512,113.334 309.5,114.5C 309.291,115.086 308.957,115.586 308.5,116C 300.787,118.178 293.12,120.512 285.5,123C 284.619,123.708 283.953,124.542 283.5,125.5 Z"/></g>
<g><path style="opacity:1" fill="#bb2c63" d="M 226.5,121.5 C 226.047,122.458 225.381,123.292 224.5,124C 217.609,124.875 211.609,127.541 206.5,132C 199.344,134.748 192.344,137.748 185.5,141C 176.224,150.415 166.224,158.582 155.5,165.5C 153.66,167.168 151.66,168.668 149.5,170C 146.403,175.266 142.403,179.766 137.5,183.5C 139.745,177.734 143.411,172.9 148.5,169C 160.567,160.284 171.9,150.617 182.5,140C 191.271,135.022 200.271,130.522 209.5,126.5C 215.026,124.295 220.693,122.629 226.5,121.5 Z"/></g>
<g><path style="opacity:1" fill="#a11f52" d="M 244.5,145.5 C 240.421,148.394 236.421,151.561 232.5,155C 228.317,156.919 223.984,158.586 219.5,160C 217.513,161.319 216.346,163.152 216,165.5C 212.596,167.266 209.762,169.599 207.5,172.5C 210.53,167.682 214.197,163.182 218.5,159C 226.118,155.189 233.451,150.856 240.5,146C 241.793,145.51 243.127,145.343 244.5,145.5 Z"/></g>
<g><path style="opacity:1" fill="#69092e" d="M 277.5,131.5 C 269.211,135.421 260.877,139.421 252.5,143.5C 253.716,141.549 255.382,140.049 257.5,139C 261.971,137.843 265.971,135.843 269.5,133C 272.063,131.921 274.729,131.421 277.5,131.5 Z"/></g>
<g><path style="opacity:1" fill="#79163c" d="M 246.5,112.5 C 239.746,113.953 232.746,115.453 225.5,117C 224.833,118 224.167,119 223.5,120C 218.604,121.899 213.937,124.065 209.5,126.5C 200.271,130.522 191.271,135.022 182.5,140C 171.9,150.617 160.567,160.284 148.5,169C 143.411,172.9 139.745,177.734 137.5,183.5C 135.5,184.833 133.833,186.5 132.5,188.5C 130.926,188.937 129.759,189.937 129,191.5C 127.784,198.946 124.284,204.946 118.5,209.5C 119.373,207.114 120.873,205.114 123,203.5C 125.276,197.345 127.942,191.345 131,185.5C 139.191,176.31 147.691,167.477 156.5,159C 159.963,158.212 162.963,156.546 165.5,154C 173.844,145.99 182.511,138.324 191.5,131C 194.405,129.714 197.405,128.714 200.5,128C 210.687,122.045 221.354,117.045 232.5,113C 237.155,112.501 241.821,112.334 246.5,112.5 Z"/></g>
<g><path style="opacity:1" fill="#a02351" d="M 315.5,109.5 C 320.865,110.872 326.365,112.205 332,113.5C 333.726,114.648 333.559,115.815 331.5,117C 323.976,118.811 316.309,119.811 308.5,120C 303.165,122.166 297.832,123.999 292.5,125.5C 288.047,127.288 283.38,128.788 278.5,130C 277.944,130.383 277.611,130.883 277.5,131.5C 274.729,131.421 272.063,131.921 269.5,133C 265.971,135.843 261.971,137.843 257.5,139C 255.382,140.049 253.716,141.549 252.5,143.5C 250.435,143.517 248.435,143.85 246.5,144.5C 250.148,143.056 253.482,140.889 256.5,138C 262.937,135.814 268.937,132.98 274.5,129.5C 277.432,128.062 280.432,126.729 283.5,125.5C 295.119,121.428 307.119,118.594 319.5,117C 320.337,115.989 320.67,114.822 320.5,113.5C 314.049,111.84 307.382,111.007 300.5,111C 290.5,110.333 280.5,110.333 270.5,111C 257.161,114.302 243.828,116.802 230.5,118.5C 228.924,119.143 227.59,120.143 226.5,121.5C 220.693,122.629 215.026,124.295 209.5,126.5C 213.937,124.065 218.604,121.899 223.5,120C 224.167,119 224.833,118 225.5,117C 232.746,115.453 239.746,113.953 246.5,112.5C 252.787,112.365 258.787,111.365 264.5,109.5C 281.504,108.225 298.504,108.225 315.5,109.5 Z"/></g>
<g><path style="opacity:1" fill="#ce2b69" d="M 283.5,125.5 C 283.953,124.542 284.619,123.708 285.5,123C 293.12,120.512 300.787,118.178 308.5,116C 308.957,115.586 309.291,115.086 309.5,114.5C 295.512,113.334 281.512,113.167 267.5,114C 260.828,115.127 254.328,116.96 248,119.5C 242.203,118.614 236.369,118.28 230.5,118.5C 243.828,116.802 257.161,114.302 270.5,111C 280.5,110.333 290.5,110.333 300.5,111C 307.382,111.007 314.049,111.84 320.5,113.5C 320.67,114.822 320.337,115.989 319.5,117C 307.119,118.594 295.119,121.428 283.5,125.5 Z"/></g>
<g><path style="opacity:1" fill="#75183a" d="M 315.5,109.5 C 322.588,109.594 329.588,110.428 336.5,112C 337.406,113.699 337.739,115.533 337.5,117.5C 322.315,119.212 307.315,121.879 292.5,125.5C 297.832,123.999 303.165,122.166 308.5,120C 316.309,119.811 323.976,118.811 331.5,117C 333.559,115.815 333.726,114.648 332,113.5C 326.365,112.205 320.865,110.872 315.5,109.5 Z"/></g>
<g><path style="opacity:1" fill="#6d0f33" d="M 315.5,109.5 C 298.504,108.225 281.504,108.225 264.5,109.5C 266.834,108.876 269.167,108.043 271.5,107C 283.5,106.333 295.5,106.333 307.5,107C 310.675,106.947 313.342,107.78 315.5,109.5 Z"/></g>
<g><path style="opacity:0.525" fill="#161519" d="M 84.5,268.5 C 84.8129,263.64 83.6462,259.306 81,255.5C 80.8019,257.382 80.3019,259.048 79.5,260.5C 79.1758,256.445 79.5091,252.445 80.5,248.5C 84.0561,236.269 88.2228,224.269 93,212.5C 100.644,201.535 107.644,190.202 114,178.5C 116.749,175.595 119.249,172.595 121.5,169.5C 123.379,168.659 125.379,168.325 127.5,168.5C 125.549,171.466 124.216,174.8 123.5,178.5C 122.5,178.5 121.5,178.5 120.5,178.5C 118.536,181.93 117.036,185.597 116,189.5C 114.252,191.135 113.085,193.135 112.5,195.5C 110.833,196.833 109.167,198.167 107.5,199.5C 105.536,205.353 102.703,210.687 99,215.5C 98.6667,218.167 98.3333,220.833 98,223.5C 95.8674,225.091 94.2007,227.091 93,229.5C 90.3574,236.996 88.3574,244.662 87,252.5C 86.044,253.579 85.2106,254.745 84.5,256C 85.822,260.267 85.822,264.434 84.5,268.5 Z"/></g>
<g><path style="opacity:1" fill="#7b183e" d="M 118.5,210.5 C 113.554,223.408 108.22,236.075 102.5,248.5C 103.685,242.773 105.185,237.106 107,231.5C 110.122,225.302 112.956,218.969 115.5,212.5C 116.357,211.575 117.357,210.908 118.5,210.5 Z"/></g>
<g><path style="opacity:0.384" fill="#131315" d="M 536.5,224.5 C 548.59,244.701 557.423,266.368 563,289.5C 563.499,293.152 563.665,296.818 563.5,300.5C 564.481,305.129 564.648,309.796 564,314.5C 562.249,313.826 560.583,313.493 559,313.5C 558.709,304.42 557.709,295.42 556,286.5C 552.904,280.892 550.737,274.892 549.5,268.5C 548.914,268.709 548.414,269.043 548,269.5C 548.395,266.135 548.228,262.802 547.5,259.5C 545.675,258.429 544.508,259.096 544,261.5C 543.833,261 543.667,260.5 543.5,260C 544.52,257.974 546.187,256.641 548.5,256C 547.007,254.632 545.507,254.465 544,255.5C 543.349,253.765 543.515,252.098 544.5,250.5C 543.609,249.41 542.609,249.41 541.5,250.5C 541.167,250 540.833,249.5 540.5,249C 537.602,242.223 534.935,235.39 532.5,228.5C 533.521,226.812 534.855,225.479 536.5,224.5 Z"/></g>
<g><path style="opacity:0.656" fill="#1b181c" d="M 323.5,134.5 C 324.873,136.207 326.539,137.54 328.5,138.5C 318.935,140.248 309.268,142.414 299.5,145C 284.033,151.469 268.367,157.803 252.5,164C 243.758,170.105 235.091,176.272 226.5,182.5C 216.879,194.123 206.545,205.123 195.5,215.5C 187.522,225.64 181.022,236.64 176,248.5C 175.667,250.5 175.333,252.5 175,254.5C 170.606,263.953 166.773,273.619 163.5,283.5C 161.718,284.72 159.718,285.386 157.5,285.5C 158.983,278.52 160.483,271.52 162,264.5C 165.467,261.354 167.133,257.354 167,252.5C 169.896,249.546 171.229,245.879 171,241.5C 175.043,235.352 178.71,229.019 182,222.5C 183.667,220.167 185.667,218.167 188,216.5C 188.483,215.552 188.649,214.552 188.5,213.5C 189.67,211.721 191.336,210.721 193.5,210.5C 193.853,207.31 195.186,204.644 197.5,202.5C 198.833,202.5 200.167,202.5 201.5,202.5C 201.343,201.127 201.51,199.793 202,198.5C 208.777,193.561 214.277,187.561 218.5,180.5C 222.589,177.407 226.922,174.74 231.5,172.5C 231.33,171.178 231.663,170.011 232.5,169C 236.007,166.718 239.341,164.218 242.5,161.5C 247.142,158.955 252.142,157.621 257.5,157.5C 257.33,156.178 257.663,155.011 258.5,154C 260.577,153.808 262.577,153.308 264.5,152.5C 269.013,149.743 273.68,147.243 278.5,145C 280.833,144.667 283.167,144.333 285.5,144C 288.89,141.89 292.557,140.223 296.5,139C 298.441,138.257 300.274,138.424 302,139.5C 308.61,135.691 315.777,134.024 323.5,134.5 Z"/></g>
<g><path style="opacity:1" fill="#a22454" d="M 132.5,188.5 C 131.507,192.641 130.007,196.641 128,200.5C 124.637,205.188 121.304,209.855 118,214.5C 116.098,221.553 113.431,228.22 110,234.5C 108.85,238.112 108.017,241.778 107.5,245.5C 103.81,249.879 101.477,254.879 100.5,260.5C 100.5,258.167 100.5,255.833 100.5,253.5C 101.537,252.07 102.204,250.403 102.5,248.5C 108.22,236.075 113.554,223.408 118.5,210.5C 118.5,210.167 118.5,209.833 118.5,209.5C 124.284,204.946 127.784,198.946 129,191.5C 129.759,189.937 130.926,188.937 132.5,188.5 Z"/></g>
<g><path style="opacity:1" fill="#da2b6e" d="M 155.5,165.5 C 154.987,169.79 155.987,173.623 158.5,177C 156.118,179.934 154.118,179.434 152.5,175.5C 148.905,177.43 146.905,180.43 146.5,184.5C 143.428,184.183 140.428,184.516 137.5,185.5C 137.116,192.072 134.283,197.405 129,201.5C 128.689,203.556 128.189,205.556 127.5,207.5C 125.438,210.758 122.938,213.758 120,216.5C 118.456,223.252 116.623,229.919 114.5,236.5C 114.83,239.839 115.163,243.172 115.5,246.5C 111.305,250.514 107.805,255.181 105,260.5C 103.594,265.324 104.76,269.324 108.5,272.5C 112.249,272.767 115.915,273.267 119.5,274C 117.137,274.589 116.137,276.089 116.5,278.5C 111.456,277.728 106.956,275.728 103,272.5C 102.333,268.167 102.333,263.833 103,259.5C 105.147,255.132 106.647,250.465 107.5,245.5C 108.017,241.778 108.85,238.112 110,234.5C 113.431,228.22 116.098,221.553 118,214.5C 121.304,209.855 124.637,205.188 128,200.5C 130.007,196.641 131.507,192.641 132.5,188.5C 133.833,186.5 135.5,184.833 137.5,183.5C 142.403,179.766 146.403,175.266 149.5,170C 151.66,168.668 153.66,167.168 155.5,165.5 Z"/></g>
<g><path style="opacity:1" fill="#8a1945" d="M 171.5,214.5 C 169.672,218.431 167.838,222.431 166,226.5C 165.208,232.203 162.875,237.203 159,241.5C 157.125,244.588 155.792,247.921 155,251.5C 153.667,252.833 152.333,254.167 151,255.5C 149.109,259.933 147.276,264.266 145.5,268.5C 146.329,263.846 147.163,259.18 148,254.5C 149.808,251.562 151.308,248.562 152.5,245.5C 152.833,245.5 153.167,245.5 153.5,245.5C 158.251,237.967 162.418,229.967 166,221.5C 167.371,218.734 169.204,216.401 171.5,214.5 Z"/></g>
<g><path style="opacity:1" fill="#641235" d="M 100.5,253.5 C 100.5,255.833 100.5,258.167 100.5,260.5C 98.9972,262.863 97.9972,265.53 97.5,268.5C 97.5832,271.558 98.5832,274.225 100.5,276.5C 98.629,276.141 97.129,275.141 96,273.5C 95.502,270.518 95.3354,267.518 95.5,264.5C 97.6166,261.025 99.2833,257.358 100.5,253.5 Z"/></g>
<g><path style="opacity:1" fill="#bf2a62" d="M 107.5,245.5 C 106.647,250.465 105.147,255.132 103,259.5C 102.333,263.833 102.333,268.167 103,272.5C 106.956,275.728 111.456,277.728 116.5,278.5C 118.588,280.481 120.921,282.315 123.5,284C 125.577,284.192 127.577,284.692 129.5,285.5C 130.522,288.987 132.855,290.32 136.5,289.5C 137.168,283.487 138.002,277.487 139,271.5C 141.581,266.093 143.581,260.427 145,254.5C 147.042,251.06 149.542,248.06 152.5,245.5C 151.308,248.562 149.808,251.562 148,254.5C 147.163,259.18 146.329,263.846 145.5,268.5C 145.5,268.833 145.5,269.167 145.5,269.5C 142.524,275.736 140.69,282.403 140,289.5C 139.521,291.646 138.188,292.646 136,292.5C 132.527,292.469 130.027,290.969 128.5,288C 121.819,286.539 115.986,283.372 111,278.5C 108.005,277.724 105.172,276.557 102.5,275C 100.817,270.348 100.15,265.515 100.5,260.5C 101.477,254.879 103.81,249.879 107.5,245.5 Z"/></g>
<g><path style="opacity:0.84" fill="#323134" d="M 366.5,289.5 C 365.426,291.216 363.759,292.216 361.5,292.5C 360.614,291.675 360.281,290.675 360.5,289.5C 343.163,289.333 325.83,289.5 308.5,290C 306.359,290.573 304.359,291.406 302.5,292.5C 302.16,289.856 302.827,287.523 304.5,285.5C 312.173,284.708 319.839,283.875 327.5,283C 336.655,282.599 345.655,282.433 354.5,282.5C 357.755,283.641 361.089,284.474 364.5,285C 365.267,286.47 365.933,287.97 366.5,289.5 Z"/></g>
<g><path style="opacity:0.749" fill="#2e2d32" d="M 442.5,299.5 C 441.292,300.234 439.959,300.567 438.5,300.5C 438.374,298.8 437.707,297.3 436.5,296C 437.692,293.945 437.692,291.945 436.5,290C 416.833,289.333 397.167,289.333 377.5,290C 375.66,292.826 374.994,295.993 375.5,299.5C 373.801,299.527 372.467,300.194 371.5,301.5C 370.518,298.622 369.851,295.622 369.5,292.5C 368.755,287.082 371.088,284.248 376.5,284C 397.902,281.805 419.236,282.138 440.5,285C 445.015,289.264 445.682,294.097 442.5,299.5 Z"/></g>
<g><path style="opacity:1" fill="#821a41" d="M 100.5,260.5 C 100.15,265.515 100.817,270.348 102.5,275C 105.172,276.557 108.005,277.724 111,278.5C 115.986,283.372 121.819,286.539 128.5,288C 130.027,290.969 132.527,292.469 136,292.5C 138.188,292.646 139.521,291.646 140,289.5C 140.69,282.403 142.524,275.736 145.5,269.5C 144.323,276.891 142.823,284.225 141,291.5C 139.745,293.594 137.912,294.594 135.5,294.5C 132.367,293.139 129.033,292.306 125.5,292C 122.938,289.587 119.938,287.92 116.5,287C 114.132,283.435 110.798,281.602 106.5,281.5C 104.059,280.291 102.059,278.624 100.5,276.5C 98.5832,274.225 97.5832,271.558 97.5,268.5C 97.9972,265.53 98.9972,262.863 100.5,260.5 Z"/></g>
<g><path style="opacity:0.998" fill="#050506" d="M 275.5,364.5 C 275.662,366.527 275.495,368.527 275,370.5C 274.617,371.056 274.117,371.389 273.5,371.5C 273.414,370.504 273.748,369.671 274.5,369C 272.485,368.576 270.651,367.742 269,366.5C 268.055,366.905 267.388,367.572 267,368.5C 266.821,371.553 266.321,374.553 265.5,377.5C 261.906,376.574 258.24,376.241 254.5,376.5C 253.79,373.14 255.124,371.307 258.5,371C 257.289,369.887 257.289,368.72 258.5,367.5C 255.272,364.21 252.938,360.376 251.5,356C 252.733,354.302 253.4,352.302 253.5,350C 252.66,345.166 252.66,340.833 253.5,337C 254.449,336.383 255.282,336.549 256,337.5C 256.758,339.769 256.591,341.936 255.5,344C 257.532,346.013 259.866,347.513 262.5,348.5C 263.713,348.253 264.38,347.586 264.5,346.5C 265.11,345.609 265.443,344.609 265.5,343.5C 266.166,340.972 266.832,338.306 267.5,335.5C 270.076,334.117 269.742,333.283 266.5,333C 269.041,331.152 270.041,328.652 269.5,325.5C 268.178,325.67 267.011,325.337 266,324.5C 265.066,325.858 264.232,327.192 263.5,328.5C 264.322,322.478 265.655,316.812 267.5,311.5C 267.196,312.15 266.863,312.817 266.5,313.5C 268.396,314.466 270.396,314.799 272.5,314.5C 274.594,306.925 276.427,299.258 278,291.5C 281.394,290.544 284.894,290.211 288.5,290.5C 287.846,293.494 287.179,296.494 286.5,299.5C 286.552,302.322 287.219,304.989 288.5,307.5C 287.64,309.931 285.973,311.264 283.5,311.5C 282.234,316.257 281.234,321.091 280.5,326C 280.585,327.107 280.919,328.107 281.5,329C 280.584,329.374 279.75,329.874 279,330.5C 278.446,332.61 277.612,334.61 276.5,336.5C 275.083,341.387 274.083,346.387 273.5,351.5C 270.956,353.611 270.956,355.778 273.5,358C 271.478,359.132 271.145,360.799 272.5,363C 272.682,365.578 273.682,366.078 275.5,364.5 Z"/></g>
<g><path style="opacity:0.992" fill="#050506" d="M 500.5,317.5 C 501.493,309.016 501.826,300.349 501.5,291.5C 505.167,291.5 508.833,291.5 512.5,291.5C 512.5,319.833 512.5,348.167 512.5,376.5C 508.563,376.793 504.73,376.46 501,375.5C 500.487,364.005 500.153,352.672 500,341.5C 499.26,343.319 498.093,344.652 496.5,345.5C 494.943,344.534 493.61,343.2 492.5,341.5C 484.989,339.989 477.656,340.323 470.5,342.5C 470.611,341.883 470.944,341.383 471.5,341C 469.061,339.39 466.394,338.556 463.5,338.5C 463.274,350.445 463.274,362.445 463.5,374.5C 465.39,374.297 466.89,374.963 468,376.5C 468.383,375.944 468.883,375.611 469.5,375.5C 469.771,377.821 469.104,379.821 467.5,381.5C 462.544,382.494 457.544,382.827 452.5,382.5C 454.025,380.964 456.025,379.964 458.5,379.5C 456.185,378.766 454.352,377.432 453,375.5C 452.5,347.502 452.333,319.502 452.5,291.5C 454.646,291.122 456.813,290.788 459,290.5C 460.973,290.309 462.473,290.976 463.5,292.5C 462.359,302.453 462.192,312.453 463,322.5C 464.167,323.667 465.333,324.833 466.5,326C 475.833,326.667 485.167,326.667 494.5,326C 499.084,324.925 501.084,322.092 500.5,317.5 Z"/></g>
<g><path style="opacity:0.141" fill="#08080e" d="M 79.5,271.5 C 79.4269,293.011 79.4269,314.678 79.5,336.5C 78.8826,336.389 78.3826,336.056 78,335.5C 77.5346,325.02 76.7013,314.687 75.5,304.5C 76.7386,293.982 77.572,283.315 78,272.5C 78.3826,271.944 78.8826,271.611 79.5,271.5 Z"/></g>
<g><path style="opacity:1" fill="#180109" d="M 104.5,230.5 C 99.8859,241.352 96.8859,252.686 95.5,264.5C 94.0027,266.29 93.336,268.456 93.5,271C 93.5445,272.764 93.8778,274.431 94.5,276C 106.346,283.759 118.679,290.759 131.5,297C 134.833,297.667 138.167,297.667 141.5,297C 143.966,293.074 145.633,288.907 146.5,284.5C 147.315,291.932 144.815,297.932 139,302.5C 135.929,300.929 132.762,299.429 129.5,298C 128.5,297.333 127.5,297.333 126.5,298C 128.371,300.37 130.038,302.87 131.5,305.5C 135.111,306.862 138.278,308.862 141,311.5C 141.398,317.342 141.898,323.176 142.5,329C 141.578,343.317 141.578,357.483 142.5,371.5C 138.223,372.606 133.89,372.772 129.5,372C 123.568,365.411 121.402,366.244 123,374.5C 125.641,375.732 127.807,377.398 129.5,379.5C 125.641,379.154 122.641,377.32 120.5,374C 108.476,370.089 104.643,373.923 109,385.5C 112.667,391.5 116.333,397.5 120,403.5C 121.768,407.086 123.268,410.753 124.5,414.5C 118.678,411.179 115.512,406.179 115,399.5C 112.33,395.458 109.663,391.458 107,387.5C 106.501,382.511 106.334,377.511 106.5,372.5C 111.222,371.654 115.889,370.488 120.5,369C 119.227,366.059 117.227,363.726 114.5,362C 107.944,360.055 101.611,357.555 95.5,354.5C 92.5902,349.543 90.5902,344.209 89.5,338.5C 89.1837,323.374 89.6837,308.041 91,292.5C 91.8333,291.667 92.6667,290.833 93.5,290C 98.5587,289.065 103.392,289.565 108,291.5C 109.662,291.612 110.829,290.946 111.5,289.5C 106.395,286.686 101.395,283.686 96.5,280.5C 90.7892,274.546 89.9558,267.88 94,260.5C 94.3333,256.833 94.6667,253.167 95,249.5C 95.6667,248.833 96.3333,248.167 97,247.5C 97.1886,242.654 98.1886,237.988 100,233.5C 101.129,231.859 102.629,230.859 104.5,230.5 Z"/></g>
<g><path style="opacity:0.082" fill="#272629" d="M 518.5,354.5 C 518.666,359.844 518.499,365.177 518,370.5C 517.586,370.043 517.086,369.709 516.5,369.5C 515.67,363.862 515.17,358.196 515,352.5C 514.667,358.5 514.333,364.5 514,370.5C 513.454,356.662 513.621,342.828 514.5,329C 513.987,316.167 513.487,303.334 513,290.5C 509.338,289.611 505.504,289.611 501.5,290.5C 500.502,299.475 500.168,308.475 500.5,317.5C 501.084,322.092 499.084,324.925 494.5,326C 485.167,326.667 475.833,326.667 466.5,326C 465.333,324.833 464.167,323.667 463,322.5C 462.192,312.453 462.359,302.453 463.5,292.5C 462.473,290.976 460.973,290.309 459,290.5C 456.813,290.788 454.646,291.122 452.5,291.5C 452.333,319.502 452.5,347.502 453,375.5C 454.352,377.432 456.185,378.766 458.5,379.5C 456.025,379.964 454.025,380.964 452.5,382.5C 450.508,382.672 448.842,382.005 447.5,380.5C 446.167,349.167 446.167,317.833 447.5,286.5C 449.226,284.97 451.226,283.97 453.5,283.5C 455.617,284.532 457.783,284.532 460,283.5C 466.459,283.137 469.959,286.137 470.5,292.5C 469.364,300.785 469.197,309.118 470,317.5C 470.5,318 471,318.5 471.5,319C 479.159,319.5 486.826,319.666 494.5,319.5C 494.168,308.48 494.501,297.48 495.5,286.5C 498.638,285.256 501.972,284.589 505.5,284.5C 516.16,283.289 520.827,288.123 519.5,299C 517.282,317.464 516.949,335.964 518.5,354.5 Z"/></g>
<g><path style="opacity:1" fill="#3d041a" d="M 139.5,356.5 C 138.683,354.031 138.183,351.365 138,348.5C 137.667,336.833 137.333,325.167 137,313.5C 136.184,312.177 135.017,311.511 133.5,311.5C 133.047,310.542 132.381,309.708 131.5,309C 128.144,308.128 125.144,306.628 122.5,304.5C 121.71,303.206 120.71,302.039 119.5,301C 116.215,300.241 113.215,298.908 110.5,297C 105.605,295.35 100.605,294.683 95.5,295C 93.0216,298.001 92.0216,301.501 92.5,305.5C 92.8639,313.013 93.5305,320.347 94.5,327.5C 95.5098,334.206 97.1765,340.873 99.5,347.5C 99.5106,349.017 100.177,350.184 101.5,351C 105.366,353.393 109.032,355.893 112.5,358.5C 107.01,357.056 102.176,354.389 98,350.5C 95.8397,343.139 93.8397,335.806 92,328.5C 91.3333,317.833 91.3333,307.167 92,296.5C 92.6015,292.726 94.7681,291.06 98.5,291.5C 105.633,293.536 112.633,296.036 119.5,299C 125.792,303.583 132.125,308.083 138.5,312.5C 139.499,327.152 139.833,341.818 139.5,356.5 Z"/></g>
<g><path style="opacity:1" fill="#6a1133" d="M 122.5,304.5 C 117.611,302.815 112.944,300.648 108.5,298C 104.848,297.111 101.182,296.778 97.5,297C 96.6667,297.833 95.8333,298.667 95,299.5C 94.5002,308.827 94.3335,318.161 94.5,327.5C 93.5305,320.347 92.8639,313.013 92.5,305.5C 92.0216,301.501 93.0216,298.001 95.5,295C 100.605,294.683 105.605,295.35 110.5,297C 113.215,298.908 116.215,300.241 119.5,301C 120.71,302.039 121.71,303.206 122.5,304.5 Z"/></g>
<g><path style="opacity:1" fill="#121214" d="M 263.5,328.5 C 264.232,327.192 265.066,325.858 266,324.5C 267.011,325.337 268.178,325.67 269.5,325.5C 270.041,328.652 269.041,331.152 266.5,333C 269.742,333.283 270.076,334.117 267.5,335.5C 266.832,338.306 266.166,340.972 265.5,343.5C 265.5,342.5 265.5,341.5 265.5,340.5C 263.167,340.5 260.833,340.5 258.5,340.5C 258.167,344.833 260.167,346.833 264.5,346.5C 264.38,347.586 263.713,348.253 262.5,348.5C 259.866,347.513 257.532,346.013 255.5,344C 256.591,341.936 256.758,339.769 256,337.5C 255.282,336.549 254.449,336.383 253.5,337C 252.66,340.833 252.66,345.166 253.5,350C 253.4,352.302 252.733,354.302 251.5,356C 252.938,360.376 255.272,364.21 258.5,367.5C 257.289,368.72 257.289,369.887 258.5,371C 255.124,371.307 253.79,373.14 254.5,376.5C 258.24,376.241 261.906,376.574 265.5,377.5C 266.321,374.553 266.821,371.553 267,368.5C 267.388,367.572 268.055,366.905 269,366.5C 270.651,367.742 272.485,368.576 274.5,369C 273.748,369.671 273.414,370.504 273.5,371.5C 273.578,379.386 269.745,383.053 262,382.5C 256.7,383.367 253.2,381.367 251.5,376.5C 249.689,362.375 246.856,348.709 243,335.5C 242.502,332.518 242.335,329.518 242.5,326.5C 241.345,322.369 240.178,322.036 239,325.5C 238.586,325.043 238.086,324.709 237.5,324.5C 236.505,318.872 236.171,313.206 236.5,307.5C 240.817,307.887 244.483,306.554 247.5,303.5C 248.614,302.277 248.781,300.944 248,299.5C 247.465,301.271 246.631,301.604 245.5,300.5C 245.279,297.522 245.612,294.522 246.5,291.5C 243.533,290.637 240.533,290.97 237.5,292.5C 235.575,295.117 233.742,297.784 232,300.5C 230.591,307.435 229.591,314.435 229,321.5C 227.108,322.617 226.275,324.284 226.5,326.5C 224.64,327.071 222.973,327.071 221.5,326.5C 222.779,313.592 225.112,300.925 228.5,288.5C 229.5,287.5 230.5,286.5 231.5,285.5C 234.833,285.167 238.167,284.833 241.5,284.5C 245.358,284.579 249.024,285.246 252.5,286.5C 253.333,288.5 254.167,290.5 255,292.5C 256.616,306.473 258.949,320.139 262,333.5C 263.269,332.095 263.769,330.429 263.5,328.5 Z"/></g>
<g><path style="opacity:1" fill="#98204e" d="M 122.5,304.5 C 125.144,306.628 128.144,308.128 131.5,309C 132.381,309.708 133.047,310.542 133.5,311.5C 133.461,312.756 133.961,313.756 135,314.5C 135.334,331.543 136.001,348.543 137,365.5C 135.612,366.554 134.112,366.72 132.5,366C 129.338,364.635 126.671,362.802 124.5,360.5C 118.511,356.993 112.178,354.16 105.5,352C 103.649,350.248 101.649,348.748 99.5,347.5C 97.1765,340.873 95.5098,334.206 94.5,327.5C 94.3335,318.161 94.5002,308.827 95,299.5C 95.8333,298.667 96.6667,297.833 97.5,297C 101.182,296.778 104.848,297.111 108.5,298C 112.944,300.648 117.611,302.815 122.5,304.5 Z"/></g>
<g><path style="opacity:0.397" fill="#1b1b1d" d="M 275.5,364.5 C 273.682,366.078 272.682,365.578 272.5,363C 271.145,360.799 271.478,359.132 273.5,358C 270.956,355.778 270.956,353.611 273.5,351.5C 274.083,346.387 275.083,341.387 276.5,336.5C 277.612,334.61 278.446,332.61 279,330.5C 279.75,329.874 280.584,329.374 281.5,329C 280.919,328.107 280.585,327.107 280.5,326C 281.234,321.091 282.234,316.257 283.5,311.5C 285.973,311.264 287.64,309.931 288.5,307.5C 287.219,304.989 286.552,302.322 286.5,299.5C 287.179,296.494 287.846,293.494 288.5,290.5C 284.894,290.211 281.394,290.544 278,291.5C 276.427,299.258 274.594,306.925 272.5,314.5C 270.396,314.799 268.396,314.466 266.5,313.5C 266.863,312.817 267.196,312.15 267.5,311.5C 267.665,303.009 269.332,294.842 272.5,287C 278.944,284.596 285.611,283.929 292.5,285C 293.743,286.87 294.41,289.036 294.5,291.5C 294.333,293.5 294.167,295.5 294,297.5C 287.383,319.629 281.216,341.962 275.5,364.5 Z"/></g>
<g><path style="opacity:0.606" fill="#1a191d" d="M 219.5,339.5 C 220.434,338.432 220.768,337.099 220.5,335.5C 221.833,335.5 223.167,335.5 224.5,335.5C 224.211,339.106 224.544,342.606 225.5,346C 224.273,353.1 220.606,354.934 214.5,351.5C 210.795,339.456 209.628,327.122 211,314.5C 209.54,310.506 207.707,306.672 205.5,303C 207.476,292.616 203.143,288.449 192.5,290.5C 193.122,294.19 194.622,297.523 197,300.5C 198.066,309.828 199.899,318.994 202.5,328C 201.419,329.371 200.585,330.871 200,332.5C 199.584,330.45 198.417,329.116 196.5,328.5C 193.473,315.742 189.807,303.075 185.5,290.5C 186.095,288.107 187.428,286.273 189.5,285C 195.528,284.17 201.528,284.336 207.5,285.5C 208.5,286.5 209.5,287.5 210.5,288.5C 212.06,293.22 213.56,297.886 215,302.5C 217.074,314.301 218.074,326.301 218,338.5C 218.383,339.056 218.883,339.389 219.5,339.5 Z"/></g>
<g><path style="opacity:1" fill="#cb2c69" d="M 129.5,313.5 C 131.044,313.703 132.378,314.37 133.5,315.5C 134.23,330.846 134.897,346.179 135.5,361.5C 132.654,361.97 130.321,361.137 128.5,359C 124.458,358.658 121.125,356.992 118.5,354C 113.091,352.139 107.758,349.972 102.5,347.5C 101.757,346.092 100.923,344.759 100,343.5C 96.411,328.809 95.5777,313.975 97.5,299C 101.71,297.98 105.377,298.98 108.5,302C 117.009,303.251 124.009,307.084 129.5,313.5 Z"/></g>
<g><path style="opacity:1" fill="#e72672" d="M 129.5,313.5 C 129.908,314.643 130.575,315.643 131.5,316.5C 132.278,330.503 132.944,344.503 133.5,358.5C 124.531,354.556 115.531,350.556 106.5,346.5C 105.833,345.833 105.167,345.167 104.5,344.5C 103.692,339.246 102.192,334.246 100,329.5C 99.1837,320.588 99.3503,311.755 100.5,303C 106.082,305.529 112.082,307.196 118.5,308C 121.183,311.758 124.849,313.591 129.5,313.5 Z"/></g>
<g><path style="opacity:0.478" fill="#242328" d="M 323.5,319.5 C 332.506,319.334 341.506,319.5 350.5,320C 353.916,320.856 357.249,322.023 360.5,323.5C 360.833,326.333 361.167,329.167 361.5,332C 361.405,335.364 360.738,338.531 359.5,341.5C 351.215,342.778 342.882,343.445 334.5,343.5C 330.365,344.11 326.699,343.277 323.5,341C 325.663,340.755 327.33,339.755 328.5,338C 338.04,337.125 347.374,337.458 356.5,339C 357.467,334.599 357.8,330.099 357.5,325.5C 344.785,326.958 332.118,326.792 319.5,325C 318.167,323 318.167,321 319.5,319C 317.125,314.825 317.791,310.992 321.5,307.5C 322.167,311.647 322.834,315.647 323.5,319.5 Z"/></g>
<g><path style="opacity:1" fill="#0f0f12" d="M 442.5,299.5 C 442.279,300.735 441.612,301.735 440.5,302.5C 432.989,302.91 425.656,303.91 418.5,305.5C 417.501,318.483 417.168,331.483 417.5,344.5C 416.808,335.629 416.141,326.629 415.5,317.5C 416.095,315.56 416.428,313.56 416.5,311.5C 415.954,308.434 415.288,305.434 414.5,302.5C 413.5,302.5 412.5,302.5 411.5,302.5C 411.16,305.144 411.827,307.477 413.5,309.5C 412.918,329.409 412.584,349.409 412.5,369.5C 413.822,369.67 414.989,369.337 416,368.5C 416.174,363.316 416.674,358.316 417.5,353.5C 417.943,363.293 417.276,372.959 415.5,382.5C 408.578,382.812 401.744,382.479 395,381.5C 392.532,368.297 391.865,354.964 393,341.5C 393.278,340.584 393.778,339.918 394.5,339.5C 394.2,345.998 393.867,352.498 393.5,359C 393.069,364.602 394.569,369.435 398,373.5C 398.833,353.158 398.666,332.825 397.5,312.5C 396.692,310.577 396.192,308.577 396,306.5C 395.617,307.056 395.117,307.389 394.5,307.5C 393.859,306.518 393.193,305.518 392.5,304.5C 385.119,304.144 378.119,303.144 371.5,301.5C 372.467,300.194 373.801,299.527 375.5,299.5C 374.994,295.993 375.66,292.826 377.5,290C 397.167,289.333 416.833,289.333 436.5,290C 437.692,291.945 437.692,293.945 436.5,296C 437.707,297.3 438.374,298.8 438.5,300.5C 439.959,300.567 441.292,300.234 442.5,299.5 Z"/></g>
<g><path style="opacity:0.991" fill="#020203" d="M 377.5,291.5 C 391.687,292.036 405.854,292.702 420,293.5C 424.159,292.59 428.325,292.757 432.5,294C 433.651,296.119 435.151,297.953 437,299.5C 437.688,300.332 437.521,300.998 436.5,301.5C 432.681,302.411 428.681,302.411 424.5,301.5C 424.33,300.178 424.663,299.011 425.5,298C 421.901,297.043 418.568,297.543 415.5,299.5C 412.362,298.738 410.195,300.071 409,303.5C 408.434,326.752 408.434,350.085 409,373.5C 409.5,374 410,374.5 410.5,375C 406.833,375.667 403.167,375.667 399.5,375C 400,374.5 400.5,374 401,373.5C 401.567,349.752 401.567,326.085 401,302.5C 394.127,298.229 386.627,296.729 378.5,298C 378,298.5 377.5,299 377,299.5C 376.278,296.739 376.445,294.073 377.5,291.5 Z"/></g>
<g><path style="opacity:0.737" fill="#211e25" d="M 84.5,268.5 C 81.9089,291.49 81.9089,314.49 84.5,337.5C 84.2986,339.973 83.632,342.306 82.5,344.5C 81.8076,343.975 81.3076,343.308 81,342.5C 80.7216,343.416 80.2216,344.082 79.5,344.5C 79.5,341.833 79.5,339.167 79.5,336.5C 79.4269,314.678 79.4269,293.011 79.5,271.5C 79.5,267.833 79.5,264.167 79.5,260.5C 80.3019,259.048 80.8019,257.382 81,255.5C 83.6462,259.306 84.8129,263.64 84.5,268.5 Z"/></g>
<g><path style="opacity:1" fill="#080609" d="M 170.5,133.5 C 171.837,134.315 172.837,135.482 173.5,137C 172.987,140.847 170.82,143.013 167,143.5C 165.104,143.13 163.271,142.963 161.5,143C 160.582,145.133 160.416,147.3 161,149.5C 158.167,151 156,153.167 154.5,156C 146.182,158.147 140.515,163.314 137.5,171.5C 133.721,174.145 130.221,177.145 127,180.5C 125.554,183.651 123.054,185.485 119.5,186C 120.167,186.333 120.833,186.667 121.5,187C 120.189,190.354 119.356,193.854 119,197.5C 114.046,203.883 109.546,210.55 105.5,217.5C 106.022,218.607 106.355,219.774 106.5,221C 105.517,224.112 104.85,227.278 104.5,230.5C 102.629,230.859 101.129,231.859 100,233.5C 98.1886,237.988 97.1886,242.654 97,247.5C 96.3333,248.167 95.6667,248.833 95,249.5C 94.6667,253.167 94.3333,256.833 94,260.5C 89.9558,267.88 90.7892,274.546 96.5,280.5C 101.395,283.686 106.395,286.686 111.5,289.5C 110.829,290.946 109.662,291.612 108,291.5C 103.392,289.565 98.5587,289.065 93.5,290C 92.6667,290.833 91.8333,291.667 91,292.5C 89.6837,308.041 89.1837,323.374 89.5,338.5C 90.5902,344.209 92.5902,349.543 95.5,354.5C 101.611,357.555 107.944,360.055 114.5,362C 117.227,363.726 119.227,366.059 120.5,369C 115.889,370.488 111.222,371.654 106.5,372.5C 106.334,377.511 106.501,382.511 107,387.5C 109.663,391.458 112.33,395.458 115,399.5C 115.512,406.179 118.678,411.179 124.5,414.5C 125.143,416.076 126.143,417.41 127.5,418.5C 127.833,419.833 128.167,421.167 128.5,422.5C 128.639,427.726 130.305,432.392 133.5,436.5C 140.546,438.88 145.213,443.546 147.5,450.5C 145.913,452.619 146.246,454.286 148.5,455.5C 150.677,454.496 151.011,455.162 149.5,457.5C 154.972,463.656 154.472,469.323 148,474.5C 143.928,473.949 139.761,473.949 135.5,474.5C 135.611,473.883 135.944,473.383 136.5,473C 141.032,472.545 145.365,471.378 149.5,469.5C 151.256,467.809 151.756,465.809 151,463.5C 149.384,462.199 147.884,462.199 146.5,463.5C 139.853,457.853 133.519,451.853 127.5,445.5C 125.107,439.087 121.107,433.754 115.5,429.5C 104.946,413.107 95.4464,396.107 87,378.5C 83.5503,367.349 81.0503,356.015 79.5,344.5C 80.2216,344.082 80.7216,343.416 81,342.5C 81.3076,343.308 81.8076,343.975 82.5,344.5C 83.632,342.306 84.2986,339.973 84.5,337.5C 81.9089,314.49 81.9089,291.49 84.5,268.5C 85.822,264.434 85.822,260.267 84.5,256C 85.2106,254.745 86.044,253.579 87,252.5C 88.3574,244.662 90.3574,236.996 93,229.5C 94.2007,227.091 95.8674,225.091 98,223.5C 98.3333,220.833 98.6667,218.167 99,215.5C 102.703,210.687 105.536,205.353 107.5,199.5C 109.167,198.167 110.833,196.833 112.5,195.5C 113.085,193.135 114.252,191.135 116,189.5C 117.036,185.597 118.536,181.93 120.5,178.5C 121.5,178.5 122.5,178.5 123.5,178.5C 124.216,174.8 125.549,171.466 127.5,168.5C 125.379,168.325 123.379,168.659 121.5,169.5C 123.509,167.134 125.176,164.468 126.5,161.5C 127.265,160.388 128.265,159.721 129.5,159.5C 131.968,161.035 134.635,162.035 137.5,162.5C 137.351,161.448 137.517,160.448 138,159.5C 140.653,157.845 142.986,155.845 145,153.5C 145.04,149.795 146.873,147.628 150.5,147C 154.81,141.444 160.143,137.111 166.5,134C 167.793,133.51 169.127,133.343 170.5,133.5 Z"/></g>
<g><path style="opacity:0.542" fill="#1e1d21" d="M 417.5,344.5 C 417.5,347.5 417.5,350.5 417.5,353.5C 416.674,358.316 416.174,363.316 416,368.5C 414.989,369.337 413.822,369.67 412.5,369.5C 412.584,349.409 412.918,329.409 413.5,309.5C 411.827,307.477 411.16,305.144 411.5,302.5C 412.5,302.5 413.5,302.5 414.5,302.5C 415.288,305.434 415.954,308.434 416.5,311.5C 416.428,313.56 416.095,315.56 415.5,317.5C 416.141,326.629 416.808,335.629 417.5,344.5 Z"/></g>
<g><path style="opacity:0.839" fill="#333333" d="M 265.5,343.5 C 265.443,344.609 265.11,345.609 264.5,346.5C 260.167,346.833 258.167,344.833 258.5,340.5C 260.833,340.5 263.167,340.5 265.5,340.5C 265.5,341.5 265.5,342.5 265.5,343.5 Z"/></g>
<g><path style="opacity:0.512" fill="#24252a" d="M 394.5,339.5 C 394.5,328.833 394.5,318.167 394.5,307.5C 395.117,307.389 395.617,307.056 396,306.5C 396.192,308.577 396.692,310.577 397.5,312.5C 398.666,332.825 398.833,353.158 398,373.5C 394.569,369.435 393.069,364.602 393.5,359C 393.867,352.498 394.2,345.998 394.5,339.5 Z"/></g>
<g><path style="opacity:0.334" fill="#232325" d="M 470.5,342.5 C 469.505,353.321 469.172,364.321 469.5,375.5C 468.883,375.611 468.383,375.944 468,376.5C 466.89,374.963 465.39,374.297 463.5,374.5C 463.274,362.445 463.274,350.445 463.5,338.5C 466.394,338.556 469.061,339.39 471.5,341C 470.944,341.383 470.611,341.883 470.5,342.5 Z"/></g>
<g><path style="opacity:1" fill="#510825" d="M 99.5,347.5 C 101.649,348.748 103.649,350.248 105.5,352C 112.178,354.16 118.511,356.993 124.5,360.5C 127.365,366.996 132.365,369.33 139.5,367.5C 139.5,363.833 139.5,360.167 139.5,356.5C 140.485,360.634 140.818,364.968 140.5,369.5C 133.417,372.304 128.084,370.47 124.5,364C 120.567,361.864 116.567,360.031 112.5,358.5C 109.032,355.893 105.366,353.393 101.5,351C 100.177,350.184 99.5106,349.017 99.5,347.5 Z"/></g>
<g><path style="opacity:0.555" fill="#08070a" d="M 219.5,339.5 C 219.433,334.964 220.099,330.631 221.5,326.5C 222.973,327.071 224.64,327.071 226.5,326.5C 226.275,324.284 227.108,322.617 229,321.5C 229.591,314.435 230.591,307.435 232,300.5C 233.742,297.784 235.575,295.117 237.5,292.5C 240.533,290.97 243.533,290.637 246.5,291.5C 245.612,294.522 245.279,297.522 245.5,300.5C 246.631,301.604 247.465,301.271 248,299.5C 248.781,300.944 248.614,302.277 247.5,303.5C 244.483,306.554 240.817,307.887 236.5,307.5C 236.171,313.206 236.505,318.872 237.5,324.5C 238.086,324.709 238.586,325.043 239,325.5C 240.178,322.036 241.345,322.369 242.5,326.5C 240.528,325.483 239.195,326.15 238.5,328.5C 237.069,329.78 236.402,331.447 236.5,333.5C 234.856,333.286 233.356,333.62 232,334.5C 231.83,336.715 231.163,338.715 230,340.5C 228.134,351.266 226.3,361.933 224.5,372.5C 225.978,372.238 227.311,372.571 228.5,373.5C 227.675,374.386 226.675,374.719 225.5,374.5C 225.5,375.5 225.5,376.5 225.5,377.5C 222.545,376.841 219.545,376.508 216.5,376.5C 218.506,369.771 215.839,366.771 208.5,367.5C 208.5,369.5 208.5,371.5 208.5,373.5C 206.872,365.633 205.206,357.633 203.5,349.5C 200.754,342.597 198.421,335.597 196.5,328.5C 198.417,329.116 199.584,330.45 200,332.5C 200.585,330.871 201.419,329.371 202.5,328C 199.899,318.994 198.066,309.828 197,300.5C 194.622,297.523 193.122,294.19 192.5,290.5C 203.143,288.449 207.476,292.616 205.5,303C 207.707,306.672 209.54,310.506 211,314.5C 209.628,327.122 210.795,339.456 214.5,351.5C 220.606,354.934 224.273,353.1 225.5,346C 224.544,342.606 224.211,339.106 224.5,335.5C 223.167,335.5 221.833,335.5 220.5,335.5C 220.768,337.099 220.434,338.432 219.5,339.5 Z"/></g>
<g><path style="opacity:0.52" fill="#39393b" d="M 331.5,359.5 C 343.017,358.929 354.35,359.595 365.5,361.5C 363.924,362.283 362.591,363.45 361.5,365C 349.5,365.667 337.5,365.667 325.5,365C 328.185,363.839 330.185,362.006 331.5,359.5 Z"/></g>
<g><path style="opacity:0.505" fill="#1d1d1f" d="M 518.5,354.5 C 519.655,361.655 519.822,368.988 519,376.5C 518.138,378.087 517.471,379.754 517,381.5C 513.146,382.256 509.312,383.256 505.5,384.5C 502.5,383.5 499.5,382.5 496.5,381.5C 495.238,377.687 494.571,373.687 494.5,369.5C 495.095,362.952 495.095,356.452 494.5,350C 495.414,348.594 496.08,347.094 496.5,345.5C 498.093,344.652 499.26,343.319 500,341.5C 500.153,352.672 500.487,364.005 501,375.5C 504.73,376.46 508.563,376.793 512.5,376.5C 512.5,348.167 512.5,319.833 512.5,291.5C 508.833,291.5 505.167,291.5 501.5,291.5C 501.826,300.349 501.493,309.016 500.5,317.5C 500.168,308.475 500.502,299.475 501.5,290.5C 505.504,289.611 509.338,289.611 513,290.5C 513.487,303.334 513.987,316.167 514.5,329C 513.621,342.828 513.454,356.662 514,370.5C 514.333,364.5 514.667,358.5 515,352.5C 515.17,358.196 515.67,363.862 516.5,369.5C 517.086,369.709 517.586,370.043 518,370.5C 518.499,365.177 518.666,359.844 518.5,354.5 Z"/></g>
<g><path style="opacity:1" fill="#74163a" d="M 133.5,311.5 C 135.017,311.511 136.184,312.177 137,313.5C 137.333,325.167 137.667,336.833 138,348.5C 138.183,351.365 138.683,354.031 139.5,356.5C 139.5,360.167 139.5,363.833 139.5,367.5C 132.365,369.33 127.365,366.996 124.5,360.5C 126.671,362.802 129.338,364.635 132.5,366C 134.112,366.72 135.612,366.554 137,365.5C 136.001,348.543 135.334,331.543 135,314.5C 133.961,313.756 133.461,312.756 133.5,311.5 Z"/></g>
<g><path style="opacity:0.944" fill="#27262b" d="M 323.5,357.5 C 323.611,358.117 323.944,358.617 324.5,359C 326.81,359.497 329.143,359.663 331.5,359.5C 330.185,362.006 328.185,363.839 325.5,365C 337.5,365.667 349.5,365.667 361.5,365C 362.591,363.45 363.924,362.283 365.5,361.5C 367.245,363.033 368.245,365.033 368.5,367.5C 368.664,370.187 368.497,372.854 368,375.5C 367.563,372.228 365.73,370.561 362.5,370.5C 362.5,369.5 362.5,368.5 362.5,367.5C 348.833,367.5 335.167,367.5 321.5,367.5C 319.3,365.738 318.133,363.404 318,360.5C 317.333,356.5 317.333,352.5 318,348.5C 318.667,349.167 319.333,349.833 320,350.5C 320.202,348.744 320.702,347.078 321.5,345.5C 322.167,349.647 322.834,353.647 323.5,357.5 Z"/></g>
<g><path style="opacity:0.903" fill="#151517" d="M 366.5,289.5 C 367.097,289.735 367.43,290.235 367.5,291C 366.249,295.06 364.915,299.06 363.5,303C 350.833,303.333 338.167,303.667 325.5,304C 325,304.5 324.5,305 324,305.5C 323.501,310.155 323.334,314.821 323.5,319.5C 322.834,315.647 322.167,311.647 321.5,307.5C 317.791,310.992 317.125,314.825 319.5,319C 318.167,321 318.167,323 319.5,325C 332.118,326.792 344.785,326.958 357.5,325.5C 357.8,330.099 357.467,334.599 356.5,339C 347.374,337.458 338.04,337.125 328.5,338C 327.33,339.755 325.663,340.755 323.5,341C 326.699,343.277 330.365,344.11 334.5,343.5C 331.038,344.482 327.371,344.815 323.5,344.5C 323.5,348.833 323.5,353.167 323.5,357.5C 322.834,353.647 322.167,349.647 321.5,345.5C 320.702,347.078 320.202,348.744 320,350.5C 319.333,349.833 318.667,349.167 318,348.5C 317.333,352.5 317.333,356.5 318,360.5C 318.133,363.404 319.3,365.738 321.5,367.5C 319.5,367.167 317.5,366.833 315.5,366.5C 315.814,358.913 315.481,351.413 314.5,344C 314.856,339.088 317.522,336.421 322.5,336C 333.167,335.333 343.833,335.333 354.5,336C 355,336.5 355.5,337 356,337.5C 356.498,334.183 356.665,330.85 356.5,327.5C 343.759,327.941 331.092,327.441 318.5,326C 317.874,325.25 317.374,324.416 317,323.5C 316.186,315.587 316.353,307.754 317.5,300C 330.296,297.957 343.629,297.124 357.5,297.5C 357.833,295.5 358.167,293.5 358.5,291.5C 341.68,291.616 325.014,291.616 308.5,291.5C 308.409,316.895 308.409,342.229 308.5,367.5C 308.085,370.343 307.585,373.01 307,375.5C 311.749,376.305 316.582,376.805 321.5,377C 322.685,378.353 324.019,379.52 325.5,380.5C 326.262,379.372 326.929,378.205 327.5,377C 339.162,376.5 350.829,376.333 362.5,376.5C 362.5,374.5 362.5,372.5 362.5,370.5C 365.73,370.561 367.563,372.228 368,375.5C 368.497,372.854 368.664,370.187 368.5,367.5C 369.958,372.221 369.458,376.887 367,381.5C 364.72,382.086 362.553,382.92 360.5,384C 341.832,383.836 323.165,383.336 304.5,382.5C 304.688,380.897 304.188,379.563 303,378.5C 302.5,349.835 302.333,321.169 302.5,292.5C 304.359,291.406 306.359,290.573 308.5,290C 325.83,289.5 343.163,289.333 360.5,289.5C 360.281,290.675 360.614,291.675 361.5,292.5C 363.759,292.216 365.426,291.216 366.5,289.5 Z"/></g>
<g><path style="opacity:1" fill="#040405" d="M 321.5,367.5 C 335.167,367.5 348.833,367.5 362.5,367.5C 362.5,368.5 362.5,369.5 362.5,370.5C 362.5,372.5 362.5,374.5 362.5,376.5C 350.829,376.333 339.162,376.5 327.5,377C 326.929,378.205 326.262,379.372 325.5,380.5C 324.019,379.52 322.685,378.353 321.5,377C 316.582,376.805 311.749,376.305 307,375.5C 307.585,373.01 308.085,370.343 308.5,367.5C 308.409,342.229 308.409,316.895 308.5,291.5C 325.014,291.616 341.68,291.616 358.5,291.5C 358.167,293.5 357.833,295.5 357.5,297.5C 343.629,297.124 330.296,297.957 317.5,300C 316.353,307.754 316.186,315.587 317,323.5C 317.374,324.416 317.874,325.25 318.5,326C 331.092,327.441 343.759,327.941 356.5,327.5C 356.665,330.85 356.498,334.183 356,337.5C 355.5,337 355,336.5 354.5,336C 343.833,335.333 333.167,335.333 322.5,336C 317.522,336.421 314.856,339.088 314.5,344C 315.481,351.413 315.814,358.913 315.5,366.5C 317.5,366.833 319.5,367.167 321.5,367.5 Z"/></g>
<g><path style="opacity:0.132" fill="#151517" d="M 238.5,328.5 C 238.665,332.182 238.499,335.848 238,339.5C 234.577,352.69 231.577,366.023 229,379.5C 228.308,380.025 227.808,380.692 227.5,381.5C 222.869,382.662 218.202,382.828 213.5,382C 210.437,379.97 208.771,377.136 208.5,373.5C 208.5,371.5 208.5,369.5 208.5,367.5C 215.839,366.771 218.506,369.771 216.5,376.5C 219.545,376.508 222.545,376.841 225.5,377.5C 225.5,376.5 225.5,375.5 225.5,374.5C 226.675,374.719 227.675,374.386 228.5,373.5C 227.311,372.571 225.978,372.238 224.5,372.5C 226.3,361.933 228.134,351.266 230,340.5C 231.163,338.715 231.83,336.715 232,334.5C 233.356,333.62 234.856,333.286 236.5,333.5C 236.402,331.447 237.069,329.78 238.5,328.5 Z"/></g>
<g><path style="opacity:1" fill="#100f14" d="M 159.5,296.5 C 155.018,324.084 155.852,351.418 162,378.5C 164.711,383.576 166.544,388.909 167.5,394.5C 167.611,395.117 167.944,395.617 168.5,396C 167.234,396.309 166.067,396.809 165,397.5C 163.984,396.366 163.317,396.699 163,398.5C 161.404,393.569 158.904,389.236 155.5,385.5C 155.972,383.693 156.306,381.86 156.5,380C 153.19,365.075 150.856,349.908 149.5,334.5C 151.426,321.619 152.426,308.619 152.5,295.5C 153.5,295.5 154.5,295.5 155.5,295.5C 155.281,294.325 155.614,293.325 156.5,292.5C 157.389,294.007 158.389,295.34 159.5,296.5 Z"/></g>
<g><path style="opacity:0.114" fill="#141417" d="M 175.5,414.5 C 177.125,421.856 180.625,428.189 186,433.5C 189.251,439.004 192.751,444.338 196.5,449.5C 202.449,457.119 208.783,464.453 215.5,471.5C 212.881,471.232 210.381,471.565 208,472.5C 207.411,470.137 205.911,469.137 203.5,469.5C 203.5,468.5 203.5,467.5 203.5,466.5C 202.5,466.5 201.5,466.5 200.5,466.5C 200.361,463.412 199.361,460.745 197.5,458.5C 196.5,458.5 195.5,458.5 194.5,458.5C 194.628,456.345 194.128,454.345 193,452.5C 189.027,449.718 186.527,446.052 185.5,441.5C 183.712,441.785 182.045,441.452 180.5,440.5C 177.73,435.411 174.897,430.411 172,425.5C 171.689,423.444 171.189,421.444 170.5,419.5C 171.524,417.054 173.191,415.388 175.5,414.5 Z"/></g>
<g><path style="opacity:1" fill="#450a20" d="M 129.5,379.5 C 134.586,382.206 139.919,384.706 145.5,387C 146.333,387.833 147.167,388.667 148,389.5C 153.336,402.845 158.67,416.178 164,429.5C 165.624,431.158 167.291,432.825 169,434.5C 173.23,441.627 176.897,448.96 180,456.5C 184.31,459.787 186.477,464.12 186.5,469.5C 183.531,470.329 180.531,470.495 177.5,470C 163.15,455.652 148.15,441.985 132.5,429C 131.24,426.699 129.907,424.532 128.5,422.5C 128.167,421.167 127.833,419.833 127.5,418.5C 126.143,417.41 125.143,416.076 124.5,414.5C 123.268,410.753 121.768,407.086 120,403.5C 116.333,397.5 112.667,391.5 109,385.5C 104.643,373.923 108.476,370.089 120.5,374C 122.641,377.32 125.641,379.154 129.5,379.5 Z"/></g>
<g><path style="opacity:1" fill="#8d2047" d="M 149.5,406.5 C 152.504,410.606 154.338,415.273 155,420.5C 157.441,423.386 159.607,426.386 161.5,429.5C 162.965,432.156 165.132,434.156 168,435.5C 170.911,443.647 174.078,451.647 177.5,459.5C 176.5,459.833 175.5,460.167 174.5,460.5C 170.993,457.837 167.327,455.337 163.5,453C 156.301,444.635 148.634,436.802 140.5,429.5C 142.948,431.284 145.615,432.618 148.5,433.5C 149.833,435.167 151.167,436.833 152.5,438.5C 156.663,442.831 160.663,447.331 164.5,452C 166.473,452.495 168.473,452.662 170.5,452.5C 170.662,450.473 170.495,448.473 170,446.5C 164.814,437.445 159.147,428.779 153,420.5C 152.11,415.734 150.943,411.067 149.5,406.5 Z"/></g>
<g><path style="opacity:1" fill="#c72e67" d="M 120.5,379.5 C 122.352,382.505 125.019,384.672 128.5,386C 133.876,387.062 139.209,388.228 144.5,389.5C 144.199,395.859 145.866,401.525 149.5,406.5C 150.943,411.067 152.11,415.734 153,420.5C 159.147,428.779 164.814,437.445 170,446.5C 170.495,448.473 170.662,450.473 170.5,452.5C 168.473,452.662 166.473,452.495 164.5,452C 160.663,447.331 156.663,442.831 152.5,438.5C 155.563,440.051 158.229,442.218 160.5,445C 161.793,445.49 163.127,445.657 164.5,445.5C 164.799,443.396 164.466,441.396 163.5,439.5C 161.528,438.695 160.028,437.361 159,435.5C 158.46,432.639 157.46,429.972 156,427.5C 153.597,425.695 151.93,423.362 151,420.5C 149.603,410.65 145.77,401.984 139.5,394.5C 132.674,391.85 126.174,388.517 120,384.5C 119.13,385.108 118.63,385.941 118.5,387C 121.464,389.883 123.298,393.383 124,397.5C 126.018,399.35 127.851,401.35 129.5,403.5C 130.575,408.057 132.241,412.391 134.5,416.5C 139.501,420.668 144.001,425.335 148,430.5C 148.483,431.448 148.649,432.448 148.5,433.5C 145.615,432.618 142.948,431.284 140.5,429.5C 136.499,423.824 132.499,418.157 128.5,412.5C 126.466,408.761 125.299,404.761 125,400.5C 120.693,397.538 118.026,393.538 117,388.5C 116.329,387.748 115.496,387.414 114.5,387.5C 113.992,385.135 113.325,382.801 112.5,380.5C 115.086,379.52 117.753,379.187 120.5,379.5 Z"/></g>
<g><path style="opacity:1" fill="#75153a" d="M 114.5,387.5 C 115.496,387.414 116.329,387.748 117,388.5C 118.026,393.538 120.693,397.538 125,400.5C 125.299,404.761 126.466,408.761 128.5,412.5C 132.499,418.157 136.499,423.824 140.5,429.5C 139.127,429.657 137.793,429.49 136.5,429C 133.963,426.094 131.796,422.927 130,419.5C 129.329,418.748 128.496,418.414 127.5,418.5C 125.69,409.237 121.857,400.903 116,393.5C 114.872,391.655 114.372,389.655 114.5,387.5 Z"/></g>
<g><path style="opacity:1" fill="#e52a71" d="M 152.5,438.5 C 151.167,436.833 149.833,435.167 148.5,433.5C 148.649,432.448 148.483,431.448 148,430.5C 144.001,425.335 139.501,420.668 134.5,416.5C 132.241,412.391 130.575,408.057 129.5,403.5C 127.851,401.35 126.018,399.35 124,397.5C 123.298,393.383 121.464,389.883 118.5,387C 118.63,385.941 119.13,385.108 120,384.5C 126.174,388.517 132.674,391.85 139.5,394.5C 145.77,401.984 149.603,410.65 151,420.5C 151.93,423.362 153.597,425.695 156,427.5C 157.46,429.972 158.46,432.639 159,435.5C 160.028,437.361 161.528,438.695 163.5,439.5C 164.466,441.396 164.799,443.396 164.5,445.5C 163.127,445.657 161.793,445.49 160.5,445C 158.229,442.218 155.563,440.051 152.5,438.5 Z"/></g>
<g><path style="opacity:1" fill="#781339" d="M 120.5,379.5 C 127.939,383.71 135.939,386.544 144.5,388C 145.333,388.833 146.167,389.667 147,390.5C 149.977,402.464 154.644,413.798 161,424.5C 161.494,426.134 161.66,427.801 161.5,429.5C 159.607,426.386 157.441,423.386 155,420.5C 154.338,415.273 152.504,410.606 149.5,406.5C 145.866,401.525 144.199,395.859 144.5,389.5C 139.209,388.228 133.876,387.062 128.5,386C 125.019,384.672 122.352,382.505 120.5,379.5 Z"/></g>
<g><path style="opacity:1" fill="#881f43" d="M 120.5,379.5 C 117.753,379.187 115.086,379.52 112.5,380.5C 113.325,382.801 113.992,385.135 114.5,387.5C 113.414,387.38 112.747,386.713 112.5,385.5C 111.604,383.199 111.438,380.866 112,378.5C 115.253,375.86 118.086,376.194 120.5,379.5 Z"/></g>
<g><path style="opacity:1" fill="#150107" d="M 129.5,379.5 C 131.857,379.337 134.19,379.503 136.5,380C 140.462,382.564 144.629,384.731 149,386.5C 149.612,390.073 151.445,392.74 154.5,394.5C 155.666,398.166 156.833,401.833 158,405.5C 158.667,406.167 159.333,406.833 160,407.5C 160.248,420.652 165.581,430.985 176,438.5C 177.293,441.719 178.96,444.719 181,447.5C 182.686,453.692 185.853,459.025 190.5,463.5C 190.119,465.741 189.952,468.074 190,470.5C 189.667,469.5 189.333,468.5 189,467.5C 188.365,468.966 187.531,470.3 186.5,471.5C 183.167,472.833 179.833,472.833 176.5,471.5C 171.712,469.456 168.379,465.956 166.5,461C 160.771,459.748 157.105,456.248 155.5,450.5C 152.904,449.787 150.237,449.787 147.5,450.5C 145.213,443.546 140.546,438.88 133.5,436.5C 130.305,432.392 128.639,427.726 128.5,422.5C 129.907,424.532 131.24,426.699 132.5,429C 148.15,441.985 163.15,455.652 177.5,470C 180.531,470.495 183.531,470.329 186.5,469.5C 186.477,464.12 184.31,459.787 180,456.5C 176.897,448.96 173.23,441.627 169,434.5C 167.291,432.825 165.624,431.158 164,429.5C 158.67,416.178 153.336,402.845 148,389.5C 147.167,388.667 146.333,387.833 145.5,387C 139.919,384.706 134.586,382.206 129.5,379.5 Z"/></g>
<g><path style="opacity:0.507" fill="#1d1d1f" d="M 135.5,474.5 C 127.445,476.648 119.445,478.981 111.5,481.5C 109.132,480.235 108.465,478.569 109.5,476.5C 122.143,472.511 134.476,468.178 146.5,463.5C 147.884,462.199 149.384,462.199 151,463.5C 151.756,465.809 151.256,467.809 149.5,469.5C 145.365,471.378 141.032,472.545 136.5,473C 135.944,473.383 135.611,473.883 135.5,474.5 Z"/></g>
<g><path style="opacity:0.603" fill="#171719" d="M 544.5,329.5 C 545.787,330.871 546.453,332.705 546.5,335C 546.464,337.094 546.131,339.094 545.5,341C 546.047,341.925 546.713,342.758 547.5,343.5C 547.833,346.667 548.167,349.833 548.5,353C 549.038,362.198 547.371,370.864 543.5,379C 543.645,379.772 543.978,380.439 544.5,381C 542.881,388.296 540.714,395.463 538,402.5C 536.028,403.305 534.528,404.639 533.5,406.5C 536.11,410.72 535.276,411.387 531,408.5C 531.452,422.028 526.452,433.028 516,441.5C 512.907,446.125 510.407,451.125 508.5,456.5C 506.5,457.5 504.5,458.5 502.5,459.5C 496.997,466.592 490.997,473.258 484.5,479.5C 482.827,481.086 480.827,481.753 478.5,481.5C 478.714,483.144 478.38,484.644 477.5,486C 472.221,489.465 466.887,492.631 461.5,495.5C 458.212,494.462 457.879,495.128 460.5,497.5C 454.87,500.809 449.537,504.476 444.5,508.5C 445.63,506.685 446.296,504.685 446.5,502.5C 445.448,502.351 444.448,502.517 443.5,503C 444.696,503.654 444.696,504.154 443.5,504.5C 442.482,503.807 441.482,503.141 440.5,502.5C 455.219,494.467 468.886,484.801 481.5,473.5C 493.7,460.748 504.7,447.081 514.5,432.5C 516.817,430.684 518.984,428.684 521,426.5C 527.131,408.776 533.464,391.109 540,373.5C 543.267,359.013 544.767,344.346 544.5,329.5 Z"/></g>
<g><path style="opacity:0.542" fill="#1a191d" d="M 282.5,515.5 C 288.908,516.745 295.241,518.411 301.5,520.5C 310.866,521.412 320.2,522.412 329.5,523.5C 330.602,525.092 329.935,525.925 327.5,526C 328.305,527.113 328.972,528.279 329.5,529.5C 328.078,529.291 326.745,528.791 325.5,528C 317.167,527.667 308.833,527.333 300.5,527C 295.541,524.296 290.207,522.629 284.5,522C 281.408,520.541 280.742,518.374 282.5,515.5 Z"/></g>
<g><path style="opacity:0.541" fill="#252427" d="M 440.5,502.5 C 441.482,503.141 442.482,503.807 443.5,504.5C 444.696,504.154 444.696,503.654 443.5,503C 444.448,502.517 445.448,502.351 446.5,502.5C 446.296,504.685 445.63,506.685 444.5,508.5C 435.154,512.891 425.821,517.391 416.5,522C 412.534,522.828 408.534,523.328 404.5,523.5C 404.5,524.5 404.5,525.5 404.5,526.5C 379.547,528.392 354.547,529.392 329.5,529.5C 328.972,528.279 328.305,527.113 327.5,526C 329.935,525.925 330.602,525.092 329.5,523.5C 336.664,523.803 343.831,524.136 351,524.5C 366.844,523.29 382.677,521.957 398.5,520.5C 413.789,517.192 427.789,511.192 440.5,502.5 Z"/></g>
<g><path style="opacity:0.964" fill="#101011" d="M 427.5,532.5 C 414.96,536.623 402.293,540.457 389.5,544C 373.796,545.696 358.129,547.53 342.5,549.5C 344.256,547.383 345.923,545.217 347.5,543C 352.986,541.57 358.486,540.403 364,539.5C 364.333,539.833 364.667,540.167 365,540.5C 367.564,538.923 370.397,537.923 373.5,537.5C 375.768,538.544 378.101,538.711 380.5,538C 379.692,537.692 379.025,537.192 378.5,536.5C 382.644,535.421 386.81,535.421 391,536.5C 395.119,535.677 399.119,534.677 403,533.5C 408.355,537.144 411.522,535.81 412.5,529.5C 415.69,529.441 418.857,529.107 422,528.5C 424.326,528.949 426.493,529.783 428.5,531C 427.944,531.383 427.611,531.883 427.5,532.5 Z"/></g>
</svg>
